<svg id="Layer_1" data-name="Layer 1" xmlns="http://www.w3.org/2000/svg" xmlns:xlink="http://www.w3.org/1999/xlink" viewBox="0 0 674.62 552.08" width="150" height="150" class="illustration styles_illustrationTablet__1DWOa" style="user-select: auto;"><defs style="user-select: auto;"><linearGradient id="linear-gradient" x1="51.13" y1="343.81" x2="110.6" y2="533.56" gradientTransform="matrix(-0.93, -0.37, -0.37, 0.93, 677.72, 128.51)" gradientUnits="userSpaceOnUse" style="user-select: auto;"><stop offset="0" stop-color="#010101" stop-opacity="0" style="user-select: auto;"></stop><stop offset="0.95" stop-color="#010101" style="user-select: auto;"></stop></linearGradient><linearGradient id="linear-gradient-2" x1="33.3" y1="346.45" x2="200.4" y2="549.22" xlink:href="#linear-gradient" style="user-select: auto;"></linearGradient><linearGradient id="linear-gradient-3" x1="-26.72" y1="384.31" x2="215.13" y2="515.92" xlink:href="#linear-gradient" style="user-select: auto;"></linearGradient><linearGradient id="linear-gradient-4" x1="-47.83" y1="387.65" x2="218.39" y2="482.8" xlink:href="#linear-gradient" style="user-select: auto;"></linearGradient><linearGradient id="linear-gradient-5" x1="-175.6" y1="615.13" x2="49.31" y2="673.68" gradientTransform="matrix(-0.96, 0.29, 0.29, 0.96, 176.07, -27.93)" xlink:href="#linear-gradient" style="user-select: auto;"></linearGradient><linearGradient id="linear-gradient-6" x1="436.31" y1="438.16" x2="227.5" y2="736.13" gradientTransform="matrix(1, 0, 0, 1, 0, 0)" xlink:href="#linear-gradient" style="user-select: auto;"></linearGradient><linearGradient id="linear-gradient-7" x1="128.24" y1="500.15" x2="218.87" y2="531.87" gradientTransform="matrix(1, 0, 0, 1, 0, 0)" xlink:href="#linear-gradient" style="user-select: auto;"></linearGradient><linearGradient id="linear-gradient-8" x1="149.3" y1="490.83" x2="346.98" y2="562.76" gradientTransform="matrix(1, 0, 0, 1, 0, 0)" xlink:href="#linear-gradient" style="user-select: auto;"></linearGradient><linearGradient id="linear-gradient-9" x1="240.02" y1="445.44" x2="220.76" y2="380.87" gradientTransform="matrix(1, 0, 0, 1, 0, 0)" xlink:href="#linear-gradient" style="user-select: auto;"></linearGradient><linearGradient id="linear-gradient-10" x1="168.88" y1="444.45" x2="252.06" y2="444.45" gradientTransform="matrix(1, 0, 0, 1, 0, 0)" xlink:href="#linear-gradient" style="user-select: auto;"></linearGradient><linearGradient id="linear-gradient-11" x1="207.27" y1="386.88" x2="228.52" y2="386.88" gradientUnits="userSpaceOnUse" style="user-select: auto;"><stop offset="0" stop-color="#e5c6d6" style="user-select: auto;"></stop><stop offset="0.42" stop-color="#ead4d0" style="user-select: auto;"></stop><stop offset="1" stop-color="#f0e9cb" style="user-select: auto;"></stop></linearGradient><linearGradient id="linear-gradient-12" x1="235.47" y1="350.39" x2="242.89" y2="350.39" xlink:href="#linear-gradient-11" style="user-select: auto;"></linearGradient><linearGradient id="linear-gradient-13" x1="265.83" y1="411.97" x2="227.43" y2="425.93" gradientTransform="translate(-85.49 21) rotate(-6.73)" xlink:href="#linear-gradient" style="user-select: auto;"></linearGradient><linearGradient id="linear-gradient-14" x1="237.79" y1="383.65" x2="374.89" y2="418.68" gradientTransform="matrix(1, 0, 0, 1, 0, 0)" xlink:href="#linear-gradient" style="user-select: auto;"></linearGradient><linearGradient id="linear-gradient-15" x1="212.8" y1="388.66" x2="261.54" y2="388.66" xlink:href="#linear-gradient-11" style="user-select: auto;"></linearGradient><linearGradient id="linear-gradient-16" x1="242.84" y1="424.59" x2="189.8" y2="349.47" gradientTransform="translate(-90.75 -6.32) rotate(-6.73)" xlink:href="#linear-gradient" style="user-select: auto;"></linearGradient><linearGradient id="linear-gradient-17" x1="236.75" y1="337.84" x2="221.16" y2="344.71" xlink:href="#linear-gradient-11" style="user-select: auto;"></linearGradient></defs><title style="user-select: auto;">Code Java</title><path d="M677.84,412.16c-5.92,28.68-24.5,52.86-43,75.6-22.57,27.76-46.67,55.68-78.46,72.09-24.22,12.48-51,17.39-78.37,18.91-9.54.57-19.15.69-28.73.61-10.54,0-21.08-.36-31.5-.77q-44.67-1.56-89.32-3.18-73.81-2.59-147.66-5.27-31.92-1.08-63.85-2.25c-21.37-.76-43.54-1.69-62.61-11.39-30.17-15.36-46.43-50.21-48.72-84s7-67.11,16.26-99.7Q35.57,324.39,49.3,276q6.77-23.77,13.48-47.63c12.72-44.78,33.48-106.7,64.3-142.47,20.76-24.06,52.26-35.93,83.08-43.74a482.22,482.22,0,0,1,116-14.8c42.13-.2,86.79,6.11,119.42,32.75,43.13,35.12,44.26,84.49,61.76,132.45,16.53,45.22,72.62,43.77,108.19,68.72,18.42,12.95,31.26,32.35,41.68,52.3C673.13,343.88,684.76,378.6,677.84,412.16Z" transform="translate(-5.26 -27.31)" fill="#338bff" opacity="0.24" style="isolation: isolate; user-select: auto;"></path><path d="M513.83,428.12c.46-18.62-2.88-37.11-3.93-55.71a193.14,193.14,0,0,0-73,113.65c-1.35,6.35-2.38,12.88-1.6,19.33,1.14,9.46,9.91,26.74,21,27.93,9.93,1.06,23.49-18,29.26-25.59C502.85,484.94,513.13,456.76,513.83,428.12Z" transform="translate(-5.26 -27.31)" fill="#338bff" style="user-select: auto;"></path><path d="M513.1,428.43c.46-18.62-2.89-37.11-3.94-55.7a193.09,193.09,0,0,0-73,113.65c-1.36,6.35-2.39,12.88-1.61,19.33,1.15,9.45,9.91,26.74,21,27.92,9.93,1.06,23.49-18,29.27-25.58C502.12,485.25,512.39,457.07,513.1,428.43Z" transform="translate(-5.26 -27.31)" fill="url(#linear-gradient)" style="user-select: auto;"></path><path d="M492.74,447.46c.23-9.66-1.5-19.25-2.05-28.9a100.21,100.21,0,0,0-37.87,58.95,30.64,30.64,0,0,0-.83,10c.59,4.91,5.14,13.87,10.91,14.49,5.15.55,12.19-9.32,15.18-13.27A72,72,0,0,0,492.74,447.46Z" transform="translate(-5.26 -27.31)" fill="url(#linear-gradient-2)" style="user-select: auto;"></path><path d="M533.74,543.32c4.26-14,6.38-29,14.94-40.84,11.34-15.64,32.61-23.43,39.85-41.34,3.6-8.9,3-18.94,1.22-28.36a18.38,18.38,0,0,0-2.4-6.89c-2.68-4-8.09-5.54-12.8-4.61s-8.8,3.93-12.09,7.44c-11.5,12.24-14.92,30.6-27,42.27-12.61,12.2-32.05,14.62-45.63,25.72C477.29,507,460.44,554.21,464,570c3.14,13.89,26.59.06,41.13,3.41C520.46,577,530,555.42,533.74,543.32Z" transform="translate(-5.26 -27.31)" fill="#338bff" style="user-select: auto;"></path><path d="M533.74,543.32c4.26-14,6.38-29,14.94-40.84,11.34-15.64,32.61-23.43,39.85-41.34,3.6-8.9,3-18.94,1.22-28.36a18.38,18.38,0,0,0-2.4-6.89c-2.68-4-8.09-5.54-12.8-4.61s-8.8,3.93-12.09,7.44c-11.5,12.24-14.92,30.6-27,42.27-12.61,12.2-32.05,14.62-45.63,25.72-12.55,10.26-32,57.88-28.47,73.7,3.13,13.88,29.23-.32,43.77,3C520.46,577,530,555.42,533.74,543.32Z" transform="translate(-5.26 -27.31)" fill="url(#linear-gradient-3)" style="user-select: auto;"></path><path d="M529.22,511c12.62-17.82,34.67-29.87,39.78-51.09.78-3.22.76-7.32-2.08-9-3.76-2.25-8.07,1.8-10.65,5.35-4.41,6.09-9.09,12.1-15,16.8-10.66,8.54-24.47,12.14-35.76,19.82-15.21,10.33-26.59,29.67-25.42,48.44.47,7.54,4.07,16.18,12.5,17.34,8.77,1.21,14.28-7,18.29-13.51C517.73,534.13,521.71,521.59,529.22,511Z" transform="translate(-5.26 -27.31)" fill="url(#linear-gradient-4)" style="user-select: auto;"></path><path d="M523.52,463q1.31,15.54,1.73,31.15c.36,12.65.24,25.6-4,37.55-7.31,20.8-26.17,35.75-46.46,44.39q-5-22.67-11.4-45c-2.94-10.27-5.49-16.91,0-26.45,6-10.5,15.48-19.76,25.29-26.7C491.3,476.14,523.33,460.75,523.52,463Z" transform="translate(-5.26 -27.31)" fill="#338bff" style="user-select: auto;"></path><path d="M506,489.19q1.08,12.9,1.44,25.85c.29,10.51.19,21.26-3.29,31.17-6.07,17.27-21.43,24.72-38.27,31.88-2.77-12.54-6.22-20-9.75-32.38-2.44-8.52-4.56-14,0-22,5-8.72,12.85-16.4,21-22.16C479.21,500.08,505.8,487.3,506,489.19Z" transform="translate(-5.26 -27.31)" fill="url(#linear-gradient-5)" style="user-select: auto;"></path><path d="M478,576.45l-149.15-2.27-.38-158.82A74.54,74.54,0,0,1,403,340.82h.45A74.54,74.54,0,0,1,478,415.36Z" transform="translate(-5.26 -27.31)" fill="#338bff" style="user-select: auto;"></path><path d="M478,415.58V578.76c-9.54.57-19.15.69-28.73.61-10.54,0-21.08-.36-31.5-.77q-44.67-1.56-89.32-3.18V415.58a74.78,74.78,0,1,1,149.55,0Z" transform="translate(-5.26 -27.31)" fill="url(#linear-gradient-6)" style="user-select: auto;"></path><path d="M147.33,491.53c-2.47-7.21-3.39-14.87-5.68-22.14s-6.3-14.48-13-18.12-16.43-2.27-20.13,4.4A15.61,15.61,0,0,0,107,465c1.33,11.26,10.72,20.07,13.22,31.13,1.48,6.57.41,13.47,1.38,20.14a33.73,33.73,0,0,0,14.72,23.09c4.49,2.93,9.63,4.75,14.21,7.54a38.57,38.57,0,0,1,14.17,15.24,35.18,35.18,0,0,0,11.51-27.41C175.2,512.47,153.69,510.1,147.33,491.53Z" transform="translate(-5.26 -27.31)" fill="#338bff" style="user-select: auto;"></path><path d="M147.33,491.53c-2.47-7.21-3.39-14.87-5.68-22.14s-6.3-14.48-13-18.12-16.43-2.27-20.13,4.4A15.61,15.61,0,0,0,107,465c1.33,11.26,10.72,20.07,13.22,31.13,1.48,6.57.41,13.47,1.38,20.14a33.73,33.73,0,0,0,14.72,23.09c4.49,2.93,9.63,4.75,14.21,7.54a38.57,38.57,0,0,1,14.17,15.24,35.18,35.18,0,0,0,11.51-27.41C175.2,512.47,153.69,510.1,147.33,491.53Z" transform="translate(-5.26 -27.31)" fill="url(#linear-gradient-7)" style="user-select: auto;"></path><path d="M173.16,451.53c-1-4.74-.94-9.7-2.4-14.32s-5-9.09-9.82-9.58c-5.55-.55-10.37,4.59-11.5,10.06s.46,11.09,2,16.45l6.15,21c1.91,6.51,3.07,15.12-2.73,18.63a37.09,37.09,0,0,1-4.25,1.8,13.65,13.65,0,0,0-7.88,12.78c.31,6.61,5.32,11.89,9.68,16.88s8.57,11.35,6.9,17.75c-1.24,4.75-5.62,8.87-4.72,13.69.75,4,5.12,6.5,9.19,6.53s7.9-1.77,11.57-3.54l17.53-8.47c5.64-2.73,11.57-5.7,14.93-11,2.26-3.54,3.13-7.79,3.55-12a66.92,66.92,0,0,0-12.14-45.11C190.69,471.13,176.54,467.81,173.16,451.53Z" transform="translate(-5.26 -27.31)" fill="#338bff" style="user-select: auto;"></path><path d="M173.16,451.53c-1-4.74-.94-9.7-2.4-14.32s-5-9.09-9.82-9.58c-5.55-.55-10.37,4.59-11.5,10.06s.46,11.09,2,16.45l6.15,21c1.91,6.51,3.07,15.12-2.73,18.63a37.09,37.09,0,0,1-4.25,1.8,13.65,13.65,0,0,0-7.88,12.78c.31,6.61,5.32,11.89,9.68,16.88s8.57,11.35,6.9,17.75c-1.24,4.75-5.62,8.87-4.72,13.69.75,4,5.12,6.5,9.19,6.53s7.9-1.77,11.57-3.54l17.53-8.47c5.64-2.73,11.57-5.7,14.93-11,2.26-3.54,3.13-7.79,3.55-12a66.92,66.92,0,0,0-12.14-45.11C190.69,471.13,176.54,467.81,173.16,451.53Z" transform="translate(-5.26 -27.31)" fill="url(#linear-gradient-8)" style="user-select: auto;"></path><rect x="265.39" y="279.35" width="198.56" height="147.23" rx="25.68" transform="translate(724.09 678.61) rotate(-180)" fill="#338bff" opacity="0.24" style="isolation: isolate; user-select: auto;"></rect><g opacity="0.52" style="user-select: auto;"><rect x="282.2" y="290.12" width="53.13" height="3.9" fill="#fff" style="user-select: auto;"></rect><rect x="282.2" y="297.66" width="32.43" height="3.66" fill="#fff" style="user-select: auto;"></rect><rect x="327.71" y="297.66" width="102.04" height="3.68" fill="#fff" style="user-select: auto;"></rect><rect x="299.06" y="305.22" width="44.59" height="3.86" fill="#fff" style="user-select: auto;"></rect><rect x="313.37" y="312.75" width="53.13" height="3.9" fill="#fff" style="user-select: auto;"></rect><rect x="369.97" y="312.75" width="44.53" height="4.33" fill="#fff" style="user-select: auto;"></rect><rect x="313.3" y="320.29" width="41.02" height="3.66" fill="#fff" style="user-select: auto;"></rect><rect x="358.26" y="320.29" width="84.65" height="4.05" fill="#fff" style="user-select: auto;"></rect><rect x="282.2" y="330.5" width="53.13" height="3.9" fill="#fff" style="user-select: auto;"></rect><rect x="282.2" y="338.03" width="32.43" height="3.66" fill="#fff" style="user-select: auto;"></rect><rect x="327.71" y="338.03" width="102.04" height="3.68" fill="#fff" style="user-select: auto;"></rect><rect x="299.06" y="345.57" width="44.59" height="3.86" fill="#fff" style="user-select: auto;"></rect><rect x="313.37" y="353.13" width="53.13" height="3.9" fill="#fff" style="user-select: auto;"></rect><rect x="369.97" y="353.13" width="44.53" height="4.33" fill="#fff" style="user-select: auto;"></rect><rect x="313.3" y="360.67" width="41.02" height="3.66" fill="#fff" style="user-select: auto;"></rect><rect x="358.26" y="360.67" width="84.65" height="4.05" fill="#fff" style="user-select: auto;"></rect></g><rect x="394.92" y="201.89" width="131.4" height="97.43" rx="16.99" transform="translate(915.98 473.9) rotate(-180)" fill="#fff" style="user-select: auto;"></rect><g opacity="0.52" style="user-select: auto;"><rect x="404.26" y="199.78" width="35.16" height="2.58" fill="#338bff" style="user-select: auto;"></rect><rect x="404.26" y="204.77" width="21.46" height="2.42" fill="#338bff" style="user-select: auto;"></rect><rect x="434.38" y="204.77" width="67.53" height="2.44" fill="#338bff" style="user-select: auto;"></rect><rect x="415.42" y="209.77" width="29.51" height="2.55" fill="#338bff" style="user-select: auto;"></rect><rect x="424.89" y="214.76" width="35.16" height="2.58" fill="#338bff" style="user-select: auto;"></rect><rect x="462.34" y="214.76" width="29.47" height="2.86" fill="#338bff" style="user-select: auto;"></rect><rect x="424.84" y="219.75" width="27.15" height="2.42" fill="#338bff" style="user-select: auto;"></rect><rect x="454.59" y="219.75" width="56.02" height="2.68" fill="#338bff" style="user-select: auto;"></rect><rect x="404.26" y="226.5" width="35.16" height="2.58" fill="#338bff" style="user-select: auto;"></rect><rect x="404.26" y="231.49" width="21.46" height="2.42" fill="#338bff" style="user-select: auto;"></rect><rect x="434.38" y="231.49" width="67.53" height="2.44" fill="#338bff" style="user-select: auto;"></rect><rect x="415.42" y="236.48" width="29.51" height="2.55" fill="#338bff" style="user-select: auto;"></rect><rect x="424.89" y="241.48" width="35.16" height="2.58" fill="#338bff" style="user-select: auto;"></rect><rect x="462.34" y="241.48" width="29.47" height="2.86" fill="#338bff" style="user-select: auto;"></rect><rect x="424.84" y="246.47" width="27.15" height="2.42" fill="#338bff" style="user-select: auto;"></rect><rect x="454.59" y="246.47" width="56.02" height="2.68" fill="#338bff" style="user-select: auto;"></rect></g><rect x="78.43" y="294.75" width="129.32" height="95.89" rx="16.72" transform="translate(280.92 658.08) rotate(-180)" fill="#fff" style="user-select: auto;"></rect><g opacity="0.52" style="user-select: auto;"><rect x="87.55" y="292.24" width="34.6" height="2.54" fill="#338bff" style="user-select: auto;"></rect><rect x="87.55" y="297.15" width="21.12" height="2.38" fill="#338bff" style="user-select: auto;"></rect><rect x="117.18" y="297.15" width="66.45" height="2.4" fill="#338bff" style="user-select: auto;"></rect><rect x="98.53" y="302.07" width="29.04" height="2.51" fill="#338bff" style="user-select: auto;"></rect><rect x="107.85" y="306.98" width="34.6" height="2.54" fill="#338bff" style="user-select: auto;"></rect><rect x="144.7" y="306.98" width="29" height="2.82" fill="#338bff" style="user-select: auto;"></rect><rect x="107.8" y="311.89" width="26.72" height="2.38" fill="#338bff" style="user-select: auto;"></rect><rect x="137.08" y="311.89" width="55.13" height="2.64" fill="#338bff" style="user-select: auto;"></rect><rect x="87.55" y="318.54" width="34.6" height="2.54" fill="#338bff" style="user-select: auto;"></rect><rect x="87.55" y="323.45" width="21.12" height="2.38" fill="#338bff" style="user-select: auto;"></rect><rect x="117.18" y="323.45" width="66.45" height="2.4" fill="#338bff" style="user-select: auto;"></rect><rect x="98.53" y="328.36" width="29.04" height="2.51" fill="#338bff" style="user-select: auto;"></rect><rect x="107.85" y="333.28" width="34.6" height="2.54" fill="#338bff" style="user-select: auto;"></rect><rect x="144.7" y="333.28" width="29" height="2.82" fill="#338bff" style="user-select: auto;"></rect><rect x="107.8" y="338.19" width="26.72" height="2.38" fill="#338bff" style="user-select: auto;"></rect><rect x="137.08" y="338.19" width="55.13" height="2.64" fill="#338bff" style="user-select: auto;"></rect></g><g opacity="0.24" style="isolation: isolate; user-select: auto;"><path d="M356.23,163.76v78.88a17.51,17.51,0,0,1-17.5,17.5H255.58L231,284.67l-19.18-24.53h-85.1a17.46,17.46,0,0,1-17.45-17.5V163.76a17.5,17.5,0,0,1,17.45-17.5h212A17.54,17.54,0,0,1,356.23,163.76Z" transform="translate(-5.26 -27.31)" fill="#338bff" style="user-select: auto;"></path></g><rect x="104.03" y="108.52" width="246.92" height="113.87" rx="17.48" fill="#fff" style="user-select: auto;"></rect><polygon points="202.76 217.69 225.79 247.12 253.94 218.97 202.76 217.69" fill="#fff" style="user-select: auto;"></polygon><path d="M154.68,186.76l24.43-12.57v3.63l-20.59,10.32v.1l20.59,10.32v3.63l-24.43-12.58Z" transform="translate(-5.26 -27.31)" fill="#338bff" style="user-select: auto;"></path><path d="M180.23,209.56a7.43,7.43,0,0,0,5.05-1.95c1.26-1.47,1.74-3.47,1.74-9.58V176.71h4.63v23.11c0,5-.79,8.16-3.05,10.48a11.78,11.78,0,0,1-7.9,2.89Zm12-40a2.72,2.72,0,0,1-2.9,2.85,2.77,2.77,0,0,1-2.84-2.85,2.83,2.83,0,0,1,2.95-2.89A2.73,2.73,0,0,1,192.18,169.55Z" transform="translate(-5.26 -27.31)" fill="#338bff" style="user-select: auto;"></path><path d="M213.34,202.19,213,199h-.16a9.49,9.49,0,0,1-7.79,3.79c-5.16,0-7.79-3.63-7.79-7.32,0-6.16,5.47-9.53,15.31-9.48v-.52c0-2.11-.57-5.89-5.79-5.89a12.69,12.69,0,0,0-6.63,1.89l-1-3a15.79,15.79,0,0,1,8.37-2.27c7.79,0,9.68,5.32,9.68,10.43v9.52a35.39,35.39,0,0,0,.43,6.11Zm-.68-13c-5-.11-10.79.79-10.79,5.74a4.1,4.1,0,0,0,4.37,4.42,6.35,6.35,0,0,0,6.16-4.26,5.12,5.12,0,0,0,.26-1.48Z" transform="translate(-5.26 -27.31)" fill="#338bff" style="user-select: auto;"></path><path d="M226,176.71,231,191a67.2,67.2,0,0,1,2.06,6.53h.16c.58-2.11,1.31-4.21,2.15-6.53l4.95-14.32h4.85l-10,25.48h-4.42l-9.68-25.48Z" transform="translate(-5.26 -27.31)" fill="#338bff" style="user-select: auto;"></path><path d="M263.43,202.19l-.36-3.21h-.16a9.5,9.5,0,0,1-7.8,3.79c-5.15,0-7.79-3.63-7.79-7.32,0-6.16,5.48-9.53,15.32-9.48v-.52c0-2.11-.58-5.89-5.79-5.89a12.69,12.69,0,0,0-6.63,1.89l-1.05-3a15.79,15.79,0,0,1,8.37-2.27c7.79,0,9.68,5.32,9.68,10.43v9.52a35.39,35.39,0,0,0,.43,6.11Zm-.68-13c-5.06-.11-10.79.79-10.79,5.74a4.1,4.1,0,0,0,4.37,4.42,6.36,6.36,0,0,0,6.16-4.26,5.12,5.12,0,0,0,.26-1.48Z" transform="translate(-5.26 -27.31)" fill="#338bff" style="user-select: auto;"></path><path d="M297.63,189.66l-24.42,12.53v-3.63L294,188.24v-.1l-20.74-10.32v-3.63l24.42,12.52Z" transform="translate(-5.26 -27.31)" fill="#338bff" style="user-select: auto;"></path><path d="M449.27,504.13v75.24c-10.54,0-21.08-.36-31.5-.77q-118.47-4.15-237-8.45v-66a83.66,83.66,0,0,1,83.65-83.65H365.66A83.63,83.63,0,0,1,449.27,504.13Z" transform="translate(-5.26 -27.31)" fill="#338bff" style="user-select: auto;"></path><path d="M240.86,441.92c10.58-1.17,21.75-3.23,29.64-10.39,1.86-1.7,3.61-4.29,2.55-6.58-.95-2.06-3.58-2.6-5.84-2.78-16.24-1.29-32.49,2.65-47.75,8.37-5.67,2.13-11.72,4.68-15.6,9.55-2.62,3.29-4.53,10.84,2.15,10.84,2.35,0,5.13-2.54,7.23-3.48a47.89,47.89,0,0,1,8.87-2.89C228.26,443.12,234.59,442.62,240.86,441.92Z" transform="translate(-5.26 -27.31)" fill="url(#linear-gradient-9)" style="user-select: auto;"></path><path d="M235.51,409.56l-13.92-2.38s-37.1,15-40.78,20.4-5.67,45.31-5.67,45.31-7.5,6.51-6.09,8.49,14.45-5.8,14.45-5.8l10.19-30.87,58.37-33.22Z" transform="translate(-5.26 -27.31)" fill="#606161" style="user-select: auto;"></path><path d="M235.51,409.56l-13.92-2.38s-37.1,15-40.78,20.4-5.67,45.31-5.67,45.31-7.5,6.51-6.09,8.49,14.45-5.8,14.45-5.8l10.19-30.87,58.37-33.22Z" transform="translate(-5.26 -27.31)" fill="url(#linear-gradient-10)" style="user-select: auto;"></path><path d="M220.66,385.5c-1.68,1.65-4,2.15-5.87,3.5s-3.84,2.2-5.45,3.58a6.13,6.13,0,0,0-2,5.73,1.23,1.23,0,0,0,.35.73,1.24,1.24,0,0,0,1.13,0A18.72,18.72,0,0,0,214,396a.82.82,0,0,1,.71-.22c.29.11.36.49.56.73a1,1,0,0,0,1.43,0,3.52,3.52,0,0,0,.81-1.34c1.21-2.85,5.34-3.05,8.19-2.8,3.48.3,2.3-1.33,2.77-1.77s-2.73-2.17-2.47-2.89a30.81,30.81,0,0,0,1.78-9.41,5.24,5.24,0,0,0-.37-2.52c-1.77-3.52-3.23,1.93-3.64,3.29C223.07,381.31,222.43,383.77,220.66,385.5Z" transform="translate(-5.26 -27.31)" fill="url(#linear-gradient-11)" style="user-select: auto;"></path><path d="M223.53,373.24a2,2,0,0,0,0,1.22,2,2,0,0,0,.73.83,11.84,11.84,0,0,0,3.9,1.88,3.23,3.23,0,0,0,1.3.15,3.45,3.45,0,0,0,2-1.26,18.6,18.6,0,0,0,4.55-10.63c.19-1.76.81-8.2-.66-9.48-1.65-1.44-3.7,1.89-4.81,3.28A36.67,36.67,0,0,0,223.53,373.24Z" transform="translate(-5.26 -27.31)" fill="#fff" style="user-select: auto;"></path><path d="M231.94,360.5c-4.23,10.25-5.92,21.42-6,32.51,0,3.56-5.15,12.39-2.35,14.6,1.68,1.33,1.85,1.25,4,1.56,5,.72,22,11.19,26.9,10.33S264.07,389.9,264,386c-.17-10.84-1.11-23.89-9.51-31.84-3.23-3.05-7.34-6.59-12-5.25C237,350.51,234,355.56,231.94,360.5Z" transform="translate(-5.26 -27.31)" fill="#fff" style="user-select: auto;"></path><path d="M236.58,355.41c0,.8,0,1.79.69,2.15a1.54,1.54,0,0,0,.95.1,4.92,4.92,0,0,0,3.1-2.4,9.63,9.63,0,0,0,1.49-6.41,8.69,8.69,0,0,0-2.75-5.17,1.7,1.7,0,0,0-1.34-.57,1.75,1.75,0,0,0-.73.4,10,10,0,0,0-2.19,2.26c-.6.93-.24,1.46,0,2.47A23.73,23.73,0,0,1,236.58,355.41Z" transform="translate(-5.26 -27.31)" fill="url(#linear-gradient-12)" style="user-select: auto;"></path><polygon points="170.88 356.08 188.17 381.43 207.44 392.59 231.28 381.63 226.02 378.29 210.09 366.96 197.21 373.21 193.25 366.42 170.88 356.08" fill="#338bff" style="user-select: auto;"></polygon><path d="M202.47,400.53s9.88,14.17,9.94,14.67,19.2-8,19.2-8l-16.26-13Z" transform="translate(-5.26 -27.31)" fill="url(#linear-gradient-13)" style="user-select: auto;"></path><path d="M245.25,363.87s-2.85,17.37-2.11,18.66,4.5,2.85,4.5,2.85-1.28,6.89-10.11,8.55-7,8.91-7,8.91,4.78,3.31,13.43,2.21,13-1.29,15.07-4.6,3.5-16,2-21.14S245.25,363.87,245.25,363.87Z" transform="translate(-5.26 -27.31)" fill="url(#linear-gradient-14)" style="user-select: auto;"></path><path d="M247.94,390.17c-3.25,3.13-7.81,4.46-12.23,5.38a97.44,97.44,0,0,1-11.41,1.68c-2.63.24-5.36.39-7.72,1.59s-4.24,3.81-3.68,6.39q13.24-.7,26.48-1.6c4.69-.32,9.45-.67,13.89-2.2,3.11-1.07,6.23-2.94,7.46-6a12.26,12.26,0,0,0,.72-3.84,75.89,75.89,0,0,0-.21-9.77,16.33,16.33,0,0,0-1.29-6.4c-2.3-4.6-8.07-4.4-8.88.6C250.2,381.35,252.63,385.66,247.94,390.17Z" transform="translate(-5.26 -27.31)" fill="url(#linear-gradient-15)" style="user-select: auto;"></path><path d="M243.51,360.88l6.06,20s13-.41,14.35-2.76S260.8,358,254.5,354.19,243.64,354.81,243.51,360.88Z" transform="translate(-5.26 -27.31)" fill="#fff" style="user-select: auto;"></path><path d="M235.51,409.56,189.45,434.1l-3.59,43.3s-7.17,6.62-7.17,8.55,3.86.83,9.66-1.38a34,34,0,0,0,8.82-4.69l8-36.4s47.71-6.62,51.3-16.55a13.25,13.25,0,0,0-4.41-15.44Z" transform="translate(-5.26 -27.31)" fill="#606161" style="user-select: auto;"></path><polygon points="187.95 380.91 205.82 391.59 190.56 368.68 172.27 358.79 187.95 380.91" fill="url(#linear-gradient-16)" style="user-select: auto;"></polygon><path d="M225,347.92a13,13,0,0,0,2,2.8,7.51,7.51,0,0,0,8.62,1.23,8.89,8.89,0,0,0,4.06-5.23A14.67,14.67,0,0,0,240,340a13.73,13.73,0,0,0-4.2-8.33,13.94,13.94,0,0,0-6-2.75,7.35,7.35,0,0,0-3.16-.16,8.37,8.37,0,0,0-2.74,1.36,12.52,12.52,0,0,0-2.55,2.09C217.77,336.39,222.87,344.26,225,347.92Z" transform="translate(-5.26 -27.31)" fill="url(#linear-gradient-17)" style="user-select: auto;"></path><path d="M237.25,339.73a1.53,1.53,0,0,0,.61-1.33c0-.51-.12-1-.12-1.53a.78.78,0,0,1,.08-.4c.22-.41.88-.23,1.18.13.79,1,.28,2.41.32,3.67a3.94,3.94,0,0,0,1.05,2.5,14.19,14.19,0,0,0-1.29-12.53,4,4,0,0,1-.59-1.1c-.24-.82.09-1.7-.05-2.54-.22-1.42-1.71-2.32-3.14-2.53s-2.88.07-4.32,0c-1-.07-2-.31-2.95-.34a11.71,11.71,0,0,0-3.1.43c-2.4.59-4.86,1.46-6.52,3.29-2,2.17-2.48,5.28-2.64,8.21-.09,1.69,0,3.61,1.27,4.73a4.78,4.78,0,0,0,3.47.9,5.74,5.74,0,0,0,3.58-1.28,11.37,11.37,0,0,0,2.09-3.59.74.74,0,0,1,.29-.34.67.67,0,0,1,.42,0,14.52,14.52,0,0,0,2.83.46,3.5,3.5,0,0,0,2.62-1,.72.72,0,0,1,.39-.28.56.56,0,0,1,.35.09,12.59,12.59,0,0,1,2.73,1.34A11.29,11.29,0,0,1,237.25,339.73Z" transform="translate(-5.26 -27.31)" fill="#606161" style="user-select: auto;"></path></svg>