<svg t="1648631329920" class="icon" viewBox="0 0 1024 1024" version="1.1" xmlns="http://www.w3.org/2000/svg" p-id="2198" width="32" height="32"><path d="M133.310936 296.552327l757.206115 0c19.781623 0 35.950949-16.169326 35.950949-35.950949 0-19.781623-15.997312-35.950949-35.950949-35.950949L133.310936 224.650428c-19.781623 0-35.950949 16.169326-35.950949 35.950949C97.359987 280.383 113.529313 296.552327 133.310936 296.552327z" p-id="2199" fill="#8a8a8a"></path><path d="M890.51705 476.135058 133.310936 476.135058c-19.781623 0-35.950949 16.169326-35.950949 35.950949 0 19.781623 16.169326 35.950949 35.950949 35.950949l757.206115 0c19.781623 0 35.950949-16.169326 35.950949-35.950949C926.467999 492.304384 910.298673 476.135058 890.51705 476.135058z" p-id="2200" fill="#8a8a8a"></path><path d="M890.51705 727.447673 133.310936 727.447673c-19.781623 0-35.950949 15.997312-35.950949 35.950949s16.169326 35.950949 35.950949 35.950949l757.206115 0c19.781623 0 35.950949-15.997312 35.950949-35.950949S910.298673 727.447673 890.51705 727.447673z" p-id="2201" fill="#8a8a8a"></path></svg>