<svg id="Layer_1" data-name="Layer 1" xmlns="http://www.w3.org/2000/svg" viewBox="0 0 400 300" width="150" height="150" class="illustration styles_illustrationTablet__1DWOa" style="user-select: auto;"><path d="M104.48,76.6C72,88.75,47.93,119.54,43.18,156.78c-4,31.38,5.56,66.06,61.84,75.94C214.53,252,317.09,257.43,343.28,205.56S361.4,64.83,305.83,59.09C261.65,54.51,167.88,52.89,104.48,76.6Z" fill="#e6e6e6" opacity="0.3" style="user-select: auto;"></path><path d="M303.2,126.48a8.32,8.32,0,0,0,5.21-6.11v-3.1c-.44-2-.82-4-1.34-6-1.4-5.3-3.22-10.42-6.52-14.9a20.78,20.78,0,0,0-2-2.23,7.74,7.74,0,0,0-8.88-1.36A28.67,28.67,0,0,1,270,94.86c-8.47-2.13-15.31-10.52-16.21-19.44a25.67,25.67,0,0,1,1.95-13.07,22.12,22.12,0,0,0,.9-2.94,5.14,5.14,0,0,0-1-4.82,36.16,36.16,0,0,0-5.05-5.36,36.23,36.23,0,0,0-20.77-7.44,5.06,5.06,0,0,0-3.67,1.26,14.19,14.19,0,0,0-4,5.33,24.34,24.34,0,0,1-31,13.73c-6.85-2.62-11.28-7.94-14.14-14.6-.15-.34-.27-.68-.44-1-1.91-3.83-4.14-5.12-8.36-4.63A45.76,45.76,0,0,0,148,49a19.58,19.58,0,0,0-3.2,2.69,8.09,8.09,0,0,0-2,8.22A36.92,36.92,0,0,1,142,81.65c-2.21,6.49-7.23,10.09-13.43,12.12a26.66,26.66,0,0,1-17.37-.48c-.91-.32-1.83-.56-2.73-.86-3-1-5.41-.14-7.57,1.94A24.75,24.75,0,0,0,96,101.43a39.28,39.28,0,0,0-4.41,15.74A11.51,11.51,0,0,0,93,123.11a7,7,0,0,0,3.73,3.44,33.51,33.51,0,0,1,12.69,9.17,20.69,20.69,0,0,1,.87,26.4,31.27,31.27,0,0,1-13.38,10.55c-3.31,1.33-4.74,3.73-5.15,7.05a23.87,23.87,0,0,0,1,8.85,47.62,47.62,0,0,0,6,13.6c1.92,3,4.51,5.07,8.22,5.2a13.13,13.13,0,0,0,4.11-.61,34.37,34.37,0,0,1,18.44-.56,14.77,14.77,0,0,1,6.82,3.88c7.22,7.1,7.92,16.66,4.87,24.41-.58,1.48-1.26,2.91-1.75,4.42a7.35,7.35,0,0,0,1.48,7.34,26,26,0,0,0,7.54,5.89,50.82,50.82,0,0,0,17.36,5.94A15.34,15.34,0,0,0,170,258a8.19,8.19,0,0,0,6.75-5.5A27.8,27.8,0,0,1,186.54,240c.48-.36,1-.69,1.48-1a21.64,21.64,0,0,1,8.11-3.21,22.45,22.45,0,0,1,19.66,6.39,30.13,30.13,0,0,1,6.79,10.09,11.72,11.72,0,0,0,3.53,4.72,6.9,6.9,0,0,0,5.24,1.24,43.17,43.17,0,0,0,21.42-8.43,9.48,9.48,0,0,0,3.15-12,24.08,24.08,0,0,1-.15-20.47c3.17-7,8.53-11,16.27-12A32.74,32.74,0,0,1,287,206.8a11.85,11.85,0,0,0,13.29-3.94A36.26,36.26,0,0,0,308,181.44a8.2,8.2,0,0,0-3-6.66,16.84,16.84,0,0,0-4.42-2.86,23.62,23.62,0,0,1-8.05-38.27A29,29,0,0,1,303.2,126.48Zm-85.62,85.18a64.87,64.87,0,0,1-18,2.53,63,63,0,0,1-25-5.15c-23.48-10.12-39.29-33.87-39.11-59.52a64.42,64.42,0,1,1,82.16,62.14Z" fill="#e6e6e6" style="user-select: auto;"></path><path d="M218,215.55c-2,4.78-13.17,5.31-17.47,6.52a6.54,6.54,0,0,0-2.76,1.31,5.69,5.69,0,0,0-1.48,2.84c-.77,3.1-.39,6.31-.16,9.52A21.64,21.64,0,0,0,188,239c-.51.33-1,.66-1.48,1a94.12,94.12,0,0,1,2.4-23.66c-3.91-1.44-8.21,1.84-9.7,5.74s-1.08,8.21-1.26,12.38a42.26,42.26,0,0,1-2.44,12.44,8.7,8.7,0,0,1-2.44,4,3.49,3.49,0,0,1-4.38.2c-1.48-1.35-.93-3.74-.45-5.68,2.37-9.56.32-19.76,2.43-29.38a12.42,12.42,0,0,1,2.89-6.19,7.18,7.18,0,0,1,.94-.81,15.52,15.52,0,0,1,6.4-2.4,66.93,66.93,0,0,1,26.75.33c2.54.55,7.9,2,9.9,4.69A3.74,3.74,0,0,1,218,215.55Z" opacity="0.09" style="user-select: auto;"></path><path d="M172,137.55a48.75,48.75,0,0,0-2,35c6.17,19.55-9.28,28.7,19.82,32.41S172,137.55,172,137.55Z" fill="#338bff" style="user-select: auto;"></path><path d="M172,137.55a48.75,48.75,0,0,0-2,35c6.17,19.55-9.28,28.7,19.82,32.41S172,137.55,172,137.55Z" fill="#fff" opacity="0.46" style="user-select: auto;"></path><path d="M193.32,97.45a30.87,30.87,0,0,0-3.14,7.52,2.45,2.45,0,0,0,1.95,2.9,5.45,5.45,0,0,0,5.61-1.86l3.16-3.24a4.41,4.41,0,0,0,.28-5.09C199.54,94.7,194.71,94.8,193.32,97.45Z" fill="#f4a28c" style="user-select: auto;"></path><polygon points="198.62 103.3 201.87 119.05 193.06 120.22 194.2 108.59 198.62 103.3" fill="#f4a28c" style="user-select: auto;"></polygon><path d="M191.89,100.2l-2,1.12a.78.78,0,0,0-.09,1.32l1.54,1.13Z" fill="#f4a28c" style="user-select: auto;"></path><path d="M194.18,108s3.24-.56,4.35-1.53c0,0-.59,7.3-4.91,8.08Z" fill="#ce8172" opacity="0.31" style="user-select: auto;"></path><path d="M196.89,103s.85-1.69,2.06-1,0,3.2-1.84,2.6Z" fill="#f4a28c" style="user-select: auto;"></path><path d="M203,102.19l-1.44,1.44s-2.36,4.07-5.89,5.56-7.5-.08-7-3.26c.54-3.64,2.68-2.16,5.89-1.46s3.86-3.68,3.86-3.68a3.79,3.79,0,0,1-2.58-2.37L194.19,97a3.4,3.4,0,0,1,.1-5.16,4.56,4.56,0,0,1,3.3-1.19C201,90.93,207.44,97.93,203,102.19Z" fill="#24285b" style="user-select: auto;"></path><path d="M200.11,101.89s2.67-.75,3,1.31-2.59,2.81-4,1.23A3.92,3.92,0,0,0,200.11,101.89Z" fill="#f4a28c" style="user-select: auto;"></path><polygon points="188.47 246.97 187.13 211.11 175.66 212.4 171.73 225.98 173.47 246.38 188.47 246.97" opacity="0.08" style="user-select: auto;"></polygon><path d="M187.22,242.22s-1.35,3.33-4.42,3.47-4,3.1-1.26,4,10-2.38,10-2.38l0-4.42Z" fill="#338bff" style="user-select: auto;"></path><path d="M192.32,120l8.81-1.17s29.1,1.17,33.81,11.34,2.19,47.22-15.83,77l-34.5-.34s2.78-22.3-3.17-34.73S156.53,133.06,192.32,120Z" fill="#338bff" style="user-select: auto;"></path><path d="M219.11,207.21,202.35,204a16.15,16.15,0,0,0-19.14,16.89l1.37,21.5,8.27.32.06-20.08a7.6,7.6,0,0,1,9.09-7.43C209.13,216.65,218.05,216.49,219.11,207.21Z" fill="#24285b" style="user-select: auto;"></path><path d="M170.06,241.55s-1.35,3.34-4.42,3.48-4,3.1-1.26,4,10-2.37,10-2.37l0-4.42Z" fill="#338bff" style="user-select: auto;"></path><path d="M219,133.15s-9.88,8-8.32,17.33c.25,1.5.51,3.32.75,5.32a52.76,52.76,0,0,1-14.07,42.72l-6.28,6.65,28,2,2.59-4.61,13.94-21.25Z" opacity="0.08" style="user-select: auto;"></path><path d="M202,206.54l-16.76-3.2a16.15,16.15,0,0,0-19.14,16.89l1.37,21.51,8.27.32.06-20.08a7.61,7.61,0,0,1,9.09-7.44C192,216,200.88,215.82,202,206.54Z" fill="#24285b" style="user-select: auto;"></path><path d="M235.39,131.12c6,9.24,10.94,29.3,4.92,57.07a18.77,18.77,0,0,1-17.89,14.75l-26.41.64.34-8.59,20.12-2.12a7.68,7.68,0,0,0,6.63-9.59c-3.07-11.74-7.72-33-5.72-47.92C218.59,126.29,230.38,123.46,235.39,131.12Z" fill="#338bff" style="user-select: auto;"></path><path d="M235.39,131.12c6,9.24,10.94,29.3,4.92,57.07a18.77,18.77,0,0,1-17.89,14.75l-26.41.64.34-8.59,20.12-2.12a7.68,7.68,0,0,0,6.63-9.59c-3.07-11.74-7.72-33-5.72-47.92C218.59,126.29,230.38,123.46,235.39,131.12Z" fill="#fff" opacity="0.46" style="user-select: auto;"></path><path d="M196.27,197.07s-10.68-.69-9.38,5,9.12,1.56,9.12,1.56Z" fill="#f4a28c" style="user-select: auto;"></path><polygon points="160.38 204.2 157.01 179.64 187.61 180.83 189.46 201.73 203.48 202.47 203.34 205.87 160.38 204.2" fill="#c9c9c9" style="user-select: auto;"></polygon><circle cx="173.05" cy="191.98" r="3.07" fill="#fff" style="user-select: auto;"></circle><path d="M208.62,119.5s3.84-3.75-6.14-4.56-20,0-18,8.6S208.62,119.5,208.62,119.5Z" fill="#338bff" style="user-select: auto;"></path><path d="M208.62,119.5s3.84-3.75-6.14-4.56-20,0-18,8.6S208.62,119.5,208.62,119.5Z" fill="#fff" opacity="0.46" style="user-select: auto;"></path><rect x="77.89" y="67.06" width="73.73" height="52.08" fill="#ffd200" style="user-select: auto;"></rect><g opacity="0.5" style="user-select: auto;"><path d="M114.75,77.18A15.92,15.92,0,1,0,130.67,93.1,15.92,15.92,0,0,0,114.75,77.18Zm0,27.18A11.26,11.26,0,1,1,126,93.1,11.26,11.26,0,0,1,114.75,104.36Z" fill="#fff" style="user-select: auto;"></path><polygon points="123.47 93.6 114.52 93.6 110.66 88.85 111.43 88.22 114.99 92.6 123.47 92.6 123.47 93.6" fill="#fff" style="user-select: auto;"></polygon></g><rect x="88.29" y="184.88" width="45.94" height="37.17" fill="#ffd200" style="user-select: auto;"></rect><g opacity="0.5" style="user-select: auto;"><path d="M107.37,207.05h7.79c2.09-3.2,3.48-5.51,3.48-8.16a7.38,7.38,0,0,0-14.75,0C103.89,201.54,105.29,203.85,107.37,207.05Z" fill="#fff" style="user-select: auto;"></path><rect x="107.25" y="208.04" width="8.04" height="1.06" rx="0.53" fill="#fff" style="user-select: auto;"></rect><rect x="107.25" y="209.55" width="8.04" height="1.06" rx="0.53" fill="#fff" style="user-select: auto;"></rect><rect x="107.25" y="211.06" width="8.04" height="1.06" rx="0.53" fill="#fff" style="user-select: auto;"></rect><path d="M107.86,213.1a3.66,3.66,0,0,0,6.81,0Z" fill="#fff" style="user-select: auto;"></path></g><rect x="255.13" y="142.78" width="73.73" height="52.08" fill="#ffd200" style="user-select: auto;"></rect><rect x="271.25" y="176.07" width="5.82" height="6.71" fill="#fff" opacity="0.3" style="user-select: auto;"></rect><rect x="283.21" y="169.91" width="5.82" height="12.87" fill="#fff" opacity="0.3" style="user-select: auto;"></rect><rect x="295.18" y="165.84" width="5.82" height="16.94" fill="#fff" opacity="0.3" style="user-select: auto;"></rect><rect x="307.15" y="153.07" width="5.82" height="29.71" fill="#fff" opacity="0.3" style="user-select: auto;"></rect><rect x="266.65" y="182.78" width="50.68" height="1.78" fill="#fff" opacity="0.3" style="user-select: auto;"></rect><polygon points="271.25 167.93 297.2 154.13 297.97 155.4 300.42 151.9 295.9 151.69 296.61 153.05 270.42 166.45 271.25 167.93" fill="#fff" opacity="0.3" style="user-select: auto;"></polygon></svg>