<svg t="1647414957681" class="icon" viewBox="0 0 1024 1024" version="1.1" xmlns="http://www.w3.org/2000/svg" p-id="2196" width="32" height="32"><path d="M788.80256 102.83008H235.20256c-72.75008 0-132.30592 59.55072-132.30592 132.34176v553.66144c0 72.79616 59.55584 132.34176 132.30592 132.34176h553.60512c72.77568 0 132.30592-59.5456 132.30592-132.34176V235.17184c-0.00512-72.79104-59.53536-132.34176-132.31104-132.34176z m-67.25632 419.49696l-334.84288 193.1008c-0.128 0.0512-5.85216 2.90816-11.59168-0.38912-5.62176-3.25632-6.10816-7.99232-6.12864-9.41056V319.03744s0.32256-6.49728 6.12864-9.85088c5.62176-3.23584 9.984-1.28 11.2128-0.5888l335.2064 193.28s5.46816 3.53792 5.46816 10.24512c0 7.64928-5.4528 10.20416-5.4528 10.20416z" fill="#13227a" p-id="2197"></path></svg>