<svg t="1664905852064" class="icon" viewBox="0 0 1024 1024" version="1.1" xmlns="http://www.w3.org/2000/svg" p-id="8242" width="60" height="60"><path d="M147.2 426.666667c-6.4 0-10.666667-2.133333-14.933333-6.4-8.533333-8.533333-8.533333-21.333333 0-29.866667l311.466666-320c8.533333-8.533333 21.333333-8.533333 29.866667 0 8.533333 8.533333 8.533333 21.333333 0 29.866667l-311.466667 320c-4.266667 4.266667-8.533333 6.4-14.933333 6.4zM876.8 426.666667c-4.266667 0-6.4 0-10.666667-2.133334l-332.8-170.666666c-10.666667-6.4-14.933333-19.2-8.533333-27.733334 6.4-10.666667 19.2-14.933333 27.733333-8.533333l332.8 170.666667c10.666667 6.4 14.933333 19.2 8.533334 27.733333-2.133333 6.4-8.533333 10.666667-17.066667 10.666667z" p-id="8243" fill="#338bff" style="user-select: auto;"></path><path d="M846.933333 928H177.066667C138.666667 928 106.666667 896 106.666667 857.6V443.733333c0-38.4 32-70.4 70.4-70.4h667.733333c38.4 0 70.4 32 70.4 70.4v411.733334c2.133333 40.533333-29.866667 72.533333-68.266667 72.533333z m-669.866666-512c-14.933333 0-27.733333 12.8-27.733334 27.733333v411.733334c0 14.933333 12.8 27.733333 27.733334 27.733333h667.733333c14.933333 0 27.733333-12.8 27.733333-27.733333V443.733333c0-14.933333-12.8-27.733333-27.733333-27.733333H177.066667zM573.866667 810.666667H469.333333c-19.2 0-34.133333-14.933333-34.133333-34.133334V640h-12.8c-12.8 0-23.466667-6.4-27.733333-19.2-4.266667-10.666667-2.133333-25.6 6.4-34.133333l96-96c12.8-12.8 34.133333-12.8 46.933333 0l96 96c8.533333 8.533333 10.666667 21.333333 6.4 34.133333-4.266667 10.666667-14.933333 19.2-27.733333 19.2h-12.8v136.533333c2.133333 19.2-12.8 34.133333-32 34.133334z m-93.866667-42.666667h85.333333v-145.066667c0-14.933333 10.666667-25.6 25.6-25.6h2.133334l-68.266667-68.266666-70.4 68.266666h2.133333c14.933333 0 25.6 10.666667 25.6 25.6V768z" p-id="8244" fill="#338bff" style="user-select: auto;"></path></svg>