<svg t="1665222361927" class="icon" viewBox="0 0 1024 1024" version="1.1" xmlns="http://www.w3.org/2000/svg" p-id="4614" width="35" height="35"><path d="M176 232H112a8 8 0 0 1 0-16h64a8 8 0 0 1 0 16zM272 152h-64a8 8 0 0 1 0-16h64a8 8 0 0 1 0 16z" fill="#ffffff" p-id="4615" style="user-select: auto;"></path><path d="M240 184a8 8 0 0 1-8-8V112a8 8 0 0 1 16 0v64a8 8 0 0 1-8 8zM144 264a8 8 0 0 1-8-8v-64a8 8 0 0 1 16 0v64a8 8 0 0 1-8 8zM48 880a8 8 0 0 1-8-8v-224a8 8 0 0 1 16 0v224a8 8 0 0 1-8 8zM48 624a8 8 0 0 1-8-8v-32a8 8 0 0 1 16 0v32a8 8 0 0 1-8 8zM592 256H432c-13.232 0-24-10.768-24-24v-16c0-13.232 10.768-24 24-24h160c13.232 0 24 10.768 24 24v16c0 13.232-10.768 24-24 24z m-160-48a8 8 0 0 0-8 8v16a8 8 0 0 0 8 8h160a8 8 0 0 0 8-8v-16a8 8 0 0 0-8-8H432z" fill="#ffffff" p-id="4616" style="user-select: auto;"></path><path d="M664 296a8 8 0 0 1-8-8v-24c0-17.648-14.352-32-32-32h-16a8 8 0 0 1 0-16h16c26.464 0 48 21.536 48 48V288a8 8 0 0 1-8 8zM360 296a8 8 0 0 1-8-8v-24c0-26.464 21.536-48 48-48h16a8 8 0 0 1 0 16h-16c-17.648 0-32 14.352-32 32V288a8 8 0 0 1-8 8zM976 656a8 8 0 0 1-8-8v-224a8 8 0 0 1 16 0v224a8 8 0 0 1-8 8zM976 720a8 8 0 0 1-8-8v-32a8 8 0 0 1 16 0v32a8 8 0 0 1-8 8z" fill="#ffffff" p-id="4617" style="user-select: auto;"></path><path d="M636.992 623.792L912 552v-192a40 40 0 0 0-40-40h-720A40 40 0 0 0 112 360v192l275.008 71.792h249.984z" fill="#ffffff" p-id="4618" style="user-select: auto;"></path><path d="M872 920h-720c-26.464 0-48-21.536-48-48v-512c0-26.464 21.536-48 48-48h720c26.464 0 48 21.536 48 48v512c0 26.464-21.536 48-48 48z m-720-592c-17.648 0-32 14.352-32 32v512c0 17.648 14.352 32 32 32h720c17.648 0 32-14.352 32-32v-512c0-17.648-14.352-32-32-32h-720z" fill="#ffffff" p-id="4619" style="user-select: auto;"></path><path d="M592 656H432a16 16 0 0 1-16-16v-32a16 16 0 0 1 16-16h160a16 16 0 0 1 16 16v32a16 16 0 0 1-16 16z" fill="#ffffff" p-id="4620" style="user-select: auto;"></path><path d="M592 664H432c-13.232 0-24-10.768-24-24v-32c0-13.232 10.768-24 24-24h160c13.232 0 24 10.768 24 24v32c0 13.232-10.768 24-24 24z m-160-64a8 8 0 0 0-8 8v32a8 8 0 0 0 8 8h160a8 8 0 0 0 8-8v-32a8 8 0 0 0-8-8H432z" fill="#ffffff" p-id="4621" style="user-select: auto;"></path><path d="M636.992 631.792a7.984 7.984 0 0 1-2.016-15.744l269.024-70.24V360c0-17.648-14.352-32-32-32h-720c-17.648 0-32 14.352-32 32v185.824l269.024 70.24c4.288 1.12 6.848 5.488 5.712 9.76a7.968 7.968 0 0 1-9.744 5.712L109.984 559.744A8 8 0 0 1 104 552v-192c0-26.464 21.536-48 48-48h720c26.464 0 48 21.536 48 48v192a8 8 0 0 1-5.984 7.744l-275.008 71.792a8 8 0 0 1-2.016 0.256z" fill="#ffffff" p-id="4622" style="user-select: auto;"></path><path d="M512 720a40 40 0 0 1-40-40V656h80v24A40 40 0 0 1 512 720z" fill="#ffffff" p-id="4623" style="user-select: auto;"></path><path d="M512 728c-26.464 0-48-21.536-48-48V656a8 8 0 0 1 8-8h80a8 8 0 0 1 8 8v24c0 26.464-21.536 48-48 48z m-32-64v16c0 17.648 14.352 32 32 32s32-14.352 32-32v-16h-64zM830 888a8 8 0 0 1-8-8c0-17.648-14.352-32-32-32h-556c-17.648 0-32 14.352-32 32a8 8 0 0 1-16 0c0-26.464 21.536-48 48-48h556c26.464 0 48 21.536 48 48a8 8 0 0 1-8 8z" fill="#ffffff" p-id="4624" style="user-select: auto;"></path><path d="M552 480h-80a8 8 0 0 1 0-16h80a8 8 0 0 1 0 16z" fill="#ffffff" p-id="4625" style="user-select: auto;"></path><path d="M864 456a8 8 0 0 1-8-8v-64a8 8 0 0 0-8-8h-64a8 8 0 0 1 0-16h64c13.232 0 24 10.768 24 24v64a8 8 0 0 1-8 8z" fill="#ffffff" p-id="4626" style="user-select: auto;"></path></svg>