<svg t="1743050655253" class="icon" viewBox="0 0 1024 1024" version="1.1" xmlns="http://www.w3.org/2000/svg" p-id="17532" width="30" height="30"><path d="M512 128a384 384 0 1 1 0 768 384 384 0 0 1 0-768z m0 82.304a301.696 301.696 0 1 0 0 603.392A301.696 301.696 0 0 0 512 210.346667z" fill="#ffffff" p-id="17533"></path><path d="M512 512m-42.666667 0a42.666667 42.666667 0 1 0 85.333334 0 42.666667 42.666667 0 1 0-85.333334 0Z" fill="#ffffff" p-id="17534"></path><path d="M717.738667 306.304l-102.826667 308.565333-308.650667 102.826667 102.826667-308.608 308.650667-102.826667z m-130.090667 130.005333l-113.493333 37.802667-37.845334 113.493333 113.493334-37.802666 37.845333-113.493334z" fill="#ffffff" p-id="17535"></path></svg>