<svg t="1664959882558" class="icon" viewBox="0 0 1024 1024" version="1.1" xmlns="http://www.w3.org/2000/svg" p-id="17229" width="50" height="50"><path d="M511.993585 0a511.955092 511.955092 0 1 0 511.955091 511.955092A511.955092 511.955092 0 0 0 511.993585 0z m0 947.014272a434.969364 434.969364 0 1 1 434.969363-434.969364 435.508264 435.508264 0 0 1-434.969363 434.969364z" fill="#338bff" p-id="17230" style="user-select: auto;"></path><path d="M663.578483 330.653702a181.057601 181.057601 0 0 0-151.584898 81.9898 181.288559 181.288559 0 1 0 0 198.597517A181.262897 181.262897 0 1 0 663.578483 330.653702zM447.646347 569.001516a104.315662 104.315662 0 1 1 0-114.10568l37.440726 57.046425z m215.932136 47.243575a104.123197 104.123197 0 0 1-87.250492-47.243575l-37.440725-57.059255 37.440725-57.046425a104.264338 104.264338 0 1 1 87.250492 161.349255z" fill="#338bff" p-id="17231" style="user-select: auto;"></path></svg>