<?xml version="1.0" standalone="no"?><!DOCTYPE svg PUBLIC "-//W3C//DTD SVG 1.1//EN" "http://www.w3.org/Graphics/SVG/1.1/DTD/svg11.dtd"><svg t="1691756315196" class="icon" viewBox="0 0 1025 1024" version="1.1" xmlns="http://www.w3.org/2000/svg" p-id="19404" xmlns:xlink="http://www.w3.org/1999/xlink" width="35" height="35"><path d="M965.290667 4.344242c31.154424 0 56.475152 31.278545 56.35103 70.004364v876.916364c0 38.601697-25.320727 70.004364-56.475152 70.004363H61.315879c-31.154424-0.124121-56.475152-31.402667-56.475152-70.128485V74.224485c0-38.601697 25.320727-69.880242 56.599273-69.880243h903.850667z m-121.638788 75.217455c-14.025697 0-25.444848 11.29503-25.444849 25.072485 0 13.901576 11.419152 25.072485 25.444849 25.072485s25.444848-11.29503 25.444848-25.072485c0-6.702545-2.730667-13.156848-7.447272-17.873455-4.840727-4.592485-11.29503-7.323152-17.997576-7.19903z m-130.079031 0c-14.025697 0-25.444848 11.29503-25.444848 25.072485 0 13.901576 11.419152 25.072485 25.444848 25.072485s25.444848-11.29503 25.444849-25.072485c0-6.702545-2.730667-13.156848-7.447273-17.873455-4.840727-4.592485-11.29503-7.323152-17.997576-7.19903z m-551.222303 0c-16.880485 0-30.409697 11.29503-30.409697 25.072485 0 13.901576 13.529212 25.072485 30.409697 25.072485h396.815516c16.880485 0 30.409697-11.29503 30.409697-25.072485 0-13.901576-13.529212-25.072485-30.409697-25.072485H162.350545zM68.390788 226.769455v699.050666c0 17.252848 14.149818 31.77503 31.650909 31.775031h826.39903c8.440242 0 16.508121-3.351273 22.46594-9.309091 5.957818-5.957818 9.309091-14.025697 9.184969-22.46594V226.769455c0-17.252848-14.149818-31.77503-31.650909-31.775031H100.041697c-8.440242 0-16.508121 3.351273-22.465939 9.309091-5.957818 5.957818-9.309091 14.025697-9.18497 22.46594z m0 0" p-id="19405" fill="#338bff"></path><path d="M375.466667 433.927758c-20.604121 0-37.236364 16.632242-37.236364 37.236363s16.632242 37.236364 37.236364 37.236364c20.48 0 37.236364-16.632242 37.236363-37.236364 0-20.48-16.632242-37.112242-37.236363-37.236363m0 125.238303c-48.531394 0-87.877818-39.346424-88.00194-88.00194 0-48.531394 39.470545-88.001939 88.00194-88.001939 48.531394 0 88.001939 39.470545 88.001939 88.001939 0 48.531394-39.470545 88.001939-88.001939 88.00194m53.248 60.695272c0.248242 0.124121 0.744727 0.372364 1.365333 0.372364h0.124121l42.449455-23.458909c-0.99297-2.358303-5.709576-13.901576-5.709576-25.941333 0-35.995152 28.175515-65.660121 64.046545-67.52194 0.496485-2.854788 3.351273-18.742303 3.351273-30.657939s-2.854788-27.927273-3.351273-30.65794c-35.87103-1.985939-64.046545-31.526788-64.046545-67.521939 0-12.163879 4.716606-23.707152 5.709576-26.065455L430.824727 325.197576h-0.124121c-0.620606 0-1.117091 0.124121-1.613576 0.496485-4.716606 4.716606-9.929697 9.060848-15.515151 12.908606-12.908606 9.060848-25.072485 13.653333-36.243394 13.653333-11.29503 0-23.58303-4.716606-36.491637-13.901576-5.585455-3.971879-10.798545-8.440242-15.515151-13.280969-0.496485-0.248242-0.99297-0.372364-1.613576-0.372364h-0.124121l-43.318303 23.831273c0.99297 2.358303 5.709576 13.901576 5.709576 25.941333 0 35.995152-28.175515 65.536-64.046546 67.521939-0.496485 2.854788-3.227152 18.742303-3.227151 30.65794s2.730667 27.927273 3.351272 30.657939c35.87103 1.985939 64.046545 31.526788 64.046546 67.52194 0 12.039758-4.716606 23.707152-5.709576 26.065454l40.96 22.962424h0.124121c0.620606 0 1.117091-0.248242 1.365334-0.372363 4.840727-5.08897 10.053818-9.681455 15.763394-13.777455 13.156848-9.681455 25.56897-14.522182 37.112242-14.522182 11.667394 0 24.203636 4.964848 37.484606 14.770425 8.688485 6.454303 14.770424 13.032727 15.515152 13.901575m18.618181 80.927031c-8.812606 0-17.37697-3.599515-22.962424-9.805576-7.571394-8.316121-31.402667-29.789091-51.013818-29.789091-19.362909 0-43.690667 21.597091-50.641454 29.168485-5.461333 5.957818-14.025697 9.557333-22.714182 9.557333-4.096 0-8.067879-0.744727-11.667394-2.358303l-0.620606-0.248242-59.32994-33.140364-0.620606-0.496485c-10.922667-7.819636-14.894545-22.093576-9.557333-34.381576 0-0.124121 5.461333-12.660364 5.461333-24.079515 0-34.753939-28.175515-62.929455-62.929454-62.929454h-2.482425c-9.929697 0-17.997576-8.812606-20.604121-22.46594-0.248242-1.117091-5.08897-27.058424-5.088969-47.414303 0-20.48 4.840727-46.421333 5.088969-47.538424 2.606545-13.777455 10.922667-22.714182 20.976485-22.465939h2.110061c34.753939 0 62.929455-28.175515 62.929454-62.929455 0-11.419152-5.461333-23.955394-5.461333-24.079515-5.337212-12.288-1.241212-26.686061 9.681454-34.381576l0.620607-0.372363 62.681212-34.505697 0.620606-0.248243c3.475394-1.489455 7.323152-2.234182 11.419151-2.234182 8.688485 0 17.252848 3.475394 22.838303 9.433213 7.447273 7.819636 30.906182 27.927273 49.896728 27.927272 18.866424 0 42.077091-19.859394 49.524363-27.430788 5.585455-5.709576 14.025697-9.18497 22.590061-9.184969 4.220121 0 8.067879 0.744727 11.667394 2.358303l0.620606 0.248242 60.571151 33.636849 0.620606 0.372363c10.798545 7.571394 14.894545 22.341818 9.557334 34.381576 0 0.124121-5.461333 12.660364-5.461334 24.079515 0 34.753939 28.175515 62.929455 62.929455 62.929455h2.11006c10.053818-0.248242 18.369939 8.688485 20.976485 22.465939 0.248242 1.117091 5.08897 27.058424 5.08897 47.414303 0 20.48-4.840727 46.421333-5.08897 47.538424-2.606545 13.777455-10.922667 22.714182-20.976485 22.46594h-2.11006c-34.753939 0-62.929455 28.175515-62.929455 62.929454 0 11.419152 5.461333 23.955394 5.461334 24.079515 5.337212 12.288 1.241212 26.686061-9.681455 34.381576l-0.620606 0.496485-61.564121 34.009212-0.620606 0.248243c-3.475394 1.613576-7.323152 2.358303-11.295031 2.358303z" p-id="19406" fill="#338bff"></path><path d="M686.762667 716.427636c-9.309091 0-17.004606 7.571394-17.004606 17.004606 0 9.309091 7.571394 17.004606 17.004606 17.004606 9.309091 0 17.004606-7.571394 17.004606-17.004606s-7.571394-17.004606-17.004606-17.004606m0 69.507879c-29.044364 0-52.503273-23.58303-52.503273-52.503273 0-28.920242 23.58303-52.503273 52.503273-52.503272 28.920242 0 52.503273 23.58303 52.503272 52.503272 0.124121 28.920242-23.458909 52.503273-52.503272 52.503273m33.885091 41.95297c0.124121 0.124121 0.496485 0.248242 0.868848 0.248242l26.934303-14.894545c-0.620606-1.489455-3.599515-8.812606-3.599515-16.508121 0-22.838303 17.873455-41.704727 40.711758-42.94594 0.372364-1.737697 2.110061-11.915636 2.11006-19.48703s-1.737697-17.749333-2.11006-19.48703c-22.838303-1.241212-40.711758-20.107636-40.711758-42.94594 0-7.695515 2.978909-15.018667 3.599515-16.508121l-26.561939-14.770424h-0.124122c-0.372364 0-0.744727 0.124121-0.992969 0.248242-2.978909 2.978909-6.330182 5.833697-9.805576 8.192-8.192 5.709576-15.887515 8.688485-22.962424 8.688485-7.19903 0-14.894545-2.978909-23.210667-8.812606-3.475394-2.482424-6.826667-5.337212-9.929697-8.440242-0.372364-0.124121-0.620606-0.248242-0.99297-0.248243h-0.124121l-27.306666 15.142788c0.620606 1.489455 3.599515 8.812606 3.599515 16.508121 0 22.838303-17.873455 41.704727-40.711758 42.94594-0.372364 1.737697-2.110061 11.915636-2.11006 19.48703s1.737697 17.749333 2.11006 19.48703c22.838303 1.241212 40.711758 20.107636 40.711758 42.94594 0 7.695515-2.978909 15.018667-3.599515 16.508121l26.065454 14.522182c0.372364 0 0.744727-0.124121 0.868849-0.248243 3.10303-3.227152 6.454303-6.081939 9.929697-8.688485 8.316121-6.081939 16.259879-9.18497 23.58303-9.184969s15.39103 3.227152 23.831273 9.433212c5.585455 4.096 9.433212 8.192 9.929697 8.812606m15.515151 63.301818c-6.081939 0-11.915636-2.482424-15.763394-6.702545-5.213091-5.709576-21.597091-20.48-35.002182-20.48-13.28097 0-30.037333 14.894545-34.753939 20.107636-3.847758 4.096-9.681455 6.578424-15.639273 6.578424-2.854788 0-5.585455-0.496485-8.067879-1.613576l-0.372363-0.124121-40.835879-22.838303-0.372364-0.248242c-7.447273-5.337212-10.177939-15.266909-6.578424-23.707152 0-0.124121 3.723636-8.688485 3.723636-16.508121 0-23.831273-19.362909-43.194182-43.318303-43.318303H537.444848c-6.826667 0-12.412121-6.081939-14.149818-15.515152-0.124121-0.744727-3.475394-18.618182-3.475394-32.643878s3.351273-31.899152 3.475394-32.643879c1.861818-9.557333 7.447273-15.639273 14.398061-15.39103h1.489454c23.955394 0 43.318303-19.362909 43.318303-43.318303 0-7.819636-3.723636-16.508121-3.723636-16.508122-3.599515-8.440242-0.868848-18.245818 6.578424-23.58303l0.372364-0.248242 43.070061-23.707152 0.496484-0.124121c2.358303-0.99297 5.08897-1.613576 7.819637-1.613576 5.957818 0 11.791515 2.358303 15.639273 6.454303 5.08897 5.337212 21.224727 19.238788 34.257454 19.238788 12.908606 0 28.920242-13.653333 34.009212-18.866424 3.847758-3.971879 9.681455-6.330182 15.515152-6.330182 2.854788 0 5.585455 0.496485 8.067879 1.613576l0.372363 0.124121 41.580606 23.086545 0.372364 0.248243c7.447273 5.213091 10.302061 15.39103 6.578424 23.707151 0 0.124121-3.723636 8.688485-3.723636 16.508122 0 23.831273 19.362909 43.194182 43.318303 43.318303h1.489454c6.950788-0.124121 12.660364 5.957818 14.398061 15.515151 0.124121 0.744727 3.475394 18.618182 3.475394 32.643879s-3.351273 31.899152-3.475394 32.643879c-1.737697 9.433212-7.447273 15.639273-14.398061 15.39103h-1.489454c-23.831273 0-43.194182 19.362909-43.318303 43.318303 0 7.819636 3.723636 16.508121 3.723636 16.508121 3.599515 8.440242 0.868848 18.369939-6.578424 23.707152l-0.372364 0.248242-42.325333 23.334788-0.372364 0.124121c-2.358303 1.117091-4.964848 1.613576-7.695515 1.613576z" p-id="19407" fill="#338bff"></path></svg>