<?xml version="1.0" standalone="no"?><!DOCTYPE svg PUBLIC "-//W3C//DTD SVG 1.1//EN" "http://www.w3.org/Graphics/SVG/1.1/DTD/svg11.dtd"><svg t="1691755994131" class="icon" viewBox="0 0 1024 1024" version="1.1" xmlns="http://www.w3.org/2000/svg" p-id="5044" xmlns:xlink="http://www.w3.org/1999/xlink" width="35" height="35"><path d="M989.866667 242.858667V163.328c0-41.984-34.133333-76.117333-76.117334-76.117333H110.250667C68.266667 87.210667 34.133333 121.344 34.133333 163.328v79.530667h955.733334zM34.133333 311.125333v549.546667c0 41.984 34.133333 76.117333 76.117334 76.117333h803.498666c41.984 0 76.117333-34.133333 76.117334-76.117333v-549.546667H34.133333z m306.005334 398.165334a34.2016 34.2016 0 0 1-24.064 58.368c-8.704 0-17.408-3.413333-24.064-10.069334l-118.954667-118.954666c-13.312-13.312-13.312-34.986667 0-48.298667l118.954667-118.954667c13.312-13.312 34.986667-13.312 48.298666 0 13.312 13.312 13.312 34.986667 0 48.298667L245.248 614.4l94.890667 94.890667z m257.706666-272.384l-106.154666 373.589333c-4.266667 15.018667-17.92 24.746667-32.768 24.746667-3.072 0-6.144-0.512-9.386667-1.365334a34.218667 34.218667 0 0 1-23.552-42.154666l106.154667-373.589334c5.12-18.090667 24.064-28.672 42.154666-23.552 18.261333 5.290667 28.672 24.234667 23.552 42.325334z m253.269334 201.557333l-118.954667 118.954667c-6.656 6.656-15.36 10.069333-24.064 10.069333s-17.408-3.413333-24.064-10.069333c-13.312-13.312-13.312-34.986667 0-48.298667L778.752 614.4l-94.890667-94.890667c-13.312-13.312-13.312-34.986667 0-48.298666 13.312-13.312 34.986667-13.312 48.298667 0l118.954667 118.954666c13.312 13.482667 13.312 34.986667 0 48.298667z" fill="#338bff" p-id="5045"></path></svg>