<svg t="1664906864018" class="icon" viewBox="0 0 1024 1024" version="1.1" xmlns="http://www.w3.org/2000/svg" p-id="10475" width="60" height="60"><path d="M755.48 406l150.88-73.62a16 16 0 0 0 0-28.76L519 114.62a16 16 0 0 0-14 0l-387.34 189a16 16 0 0 0 0 28.76L268.52 406l-150.88 73.62a16 16 0 0 0 0 28.76L268.52 582l-150.88 73.62a16 16 0 0 0 0 28.76l387.36 189a16 16 0 0 0 14 0l387.34-189a16 16 0 0 0 0-28.76L755.48 582l150.88-73.62a16 16 0 0 0 0-28.76zM512 173.51L808.13 318 512 462.49 215.87 318zM332.37 437.16L505 521.38a16 16 0 0 0 14 0l172.61-84.22L808.13 494 512 638.49 215.87 494zM808.13 670L512 814.49 215.87 670l116.5-56.84L505 697.38a16 16 0 0 0 14 0l172.61-84.23z" p-id="10476" fill="#338bff" style="user-select: auto;"></path></svg>