<svg t="1664901434582" class="icon" viewBox="0 0 1024 1024" version="1.1" xmlns="http://www.w3.org/2000/svg" p-id="4304" width="20" height="20"><path d="M960 320H64c-35.346 0-64-28.654-64-64V128c0-35.346 28.654-64 64-64h896c35.346 0 64 28.654 64 64v128c0 35.346-28.654 64-64 64z m-96-176c-26.51 0-48 21.49-48 48s21.49 48 48 48 48-21.49 48-48-21.49-48-48-48z m-128 0c-26.51 0-48 21.49-48 48s21.49 48 48 48 48-21.49 48-48-21.49-48-48-48z m224 496H64c-35.346 0-64-28.654-64-64v-128c0-35.346 28.654-64 64-64h896c35.346 0 64 28.654 64 64v128c0 35.346-28.654 64-64 64z m-96-176c-26.51 0-48 21.49-48 48s21.49 48 48 48 48-21.49 48-48-21.49-48-48-48z m-128 0c-26.51 0-48 21.49-48 48s21.49 48 48 48 48-21.49 48-48-21.49-48-48-48z m224 496H64c-35.346 0-64-28.654-64-64v-128c0-35.346 28.654-64 64-64h896c35.346 0 64 28.654 64 64v128c0 35.346-28.654 64-64 64z m-96-176c-26.51 0-48 21.49-48 48s21.49 48 48 48 48-21.49 48-48-21.49-48-48-48z m-128 0c-26.51 0-48 21.49-48 48s21.49 48 48 48 48-21.49 48-48-21.49-48-48-48z" p-id="4305" fill="#ffffff" style="user-select: auto;"></path></svg>