<?xml version="1.0" standalone="no"?><!DOCTYPE svg PUBLIC "-//W3C//DTD SVG 1.1//EN" "http://www.w3.org/Graphics/SVG/1.1/DTD/svg11.dtd"><svg t="1691750810894" class="icon" viewBox="0 0 1032 1024" version="1.1" xmlns="http://www.w3.org/2000/svg" p-id="19820" xmlns:xlink="http://www.w3.org/1999/xlink" width="35" height="35"><path d="M783.986662 1023.995319c-78.018327 0-169.104724-24.770819-263.311853-73.922365-184.025729 95.767496-353.813112 98.790706-445.289601 7.314218s-88.453278-261.263872 7.216696-445.2896C-13.360638 327.97432-16.383849 158.089413 75.09264 66.612925s261.263872-88.453278 445.192077 7.314218C704.310446-21.840353 874.09783-24.863563 965.476795 66.612925c91.476488 91.476488 88.453278 261.361395-7.314218 445.289601 95.767496 184.025729 98.888229 353.813112 7.314218 445.289601-44.372923 44.470446-107.275199 66.803192-181.490133 66.803192z m-263.311853-125.902075a24.283204 24.283204 0 0 1 11.507703 2.925687c168.714632 91.086397 321.825598 99.473367 399.258788 21.845132s68.851173-230.446633-22.1377-399.356311a24.47825 24.47825 0 0 1 0-23.210452c90.988874-168.617109 99.375844-321.825598 21.845131-399.161265s-230.446633-69.241265-399.063742 21.747608h-0.877706a24.185681 24.185681 0 0 1-22.527792 0c-168.617109-91.086397-321.825598-99.375844-399.161265-21.845131S40.374484 331.582668 131.363358 500.2973a24.47825 24.47825 0 0 1 0 23.210452C40.374484 692.41743 31.987514 845.138305 109.518226 922.669017s230.544156 69.241265 399.258788-21.845132a24.380727 24.380727 0 0 1 11.605226-2.925687z" p-id="19821" fill="#338bff"></path><path d="M520.38224 665.891199a153.988673 153.988673 0 1 1 153.988673-153.988673 154.183718 154.183718 0 0 1-153.988673 153.988673z m0-259.215892a105.227218 105.227218 0 1 0 105.227219 105.227219A105.324741 105.324741 0 0 0 520.38224 406.675307zM754.144652 761.268603a24.673296 24.673296 0 0 1-17.261555-7.119172 24.380727 24.380727 0 0 1 0-34.52311A1005.266142 1005.266142 0 0 0 909.3036 491.520238a24.380727 24.380727 0 0 1 42.91008 23.112929 1051.296955 1051.296955 0 0 1-180.904996 239.516264 24.283204 24.283204 0 0 1-17.164032 7.119172zM520.284717 945.976992a24.575773 24.575773 0 0 1-11.507703-2.925687 1052.369707 1052.369707 0 0 1-239.41874-180.612427 24.380727 24.380727 0 1 1 34.425586-34.52311 1005.266142 1005.266142 0 0 0 228.106083 172.420503 24.380727 24.380727 0 0 1 9.752291 33.060266A24.673296 24.673296 0 0 1 520.284717 945.976992z" p-id="19822" fill="#338bff"></path><path d="M930.75864 527.506191a24.283204 24.283204 0 0 1-21.45504-12.873024 1007.411646 1007.411646 0 0 0-172.420503-228.106083 24.380727 24.380727 0 0 1 34.425587-34.425587A1053.247413 1053.247413 0 0 1 952.21368 491.520238a24.47825 24.47825 0 0 1-21.45504 35.985953zM109.908318 536.380776a24.47825 24.47825 0 0 1-21.45504-35.985953 1053.247413 1053.247413 0 0 1 180.904996-239.516264 24.380727 24.380727 0 0 1 34.425586 34.52311 1005.266142 1005.266142 0 0 0-172.420502 228.106083 24.380727 24.380727 0 0 1-21.45504 12.873024z" p-id="19823" fill="#338bff"></path><path d="M109.908318 488.301982m-109.908318 0a109.908318 109.908318 0 1 0 219.816636 0 109.908318 109.908318 0 1 0-219.816636 0Z" p-id="19824" fill="#338bff"></path><path d="M742.831995 269.363052m-99.375844 0a99.375844 99.375844 0 1 0 198.751688 0 99.375844 99.375844 0 1 0-198.751688 0Z" p-id="19825" fill="#338bff"></path><path d="M742.831995 736.887876m-99.375844 0a99.375844 99.375844 0 1 0 198.751688 0 99.375844 99.375844 0 1 0-198.751688 0Z" p-id="19826" fill="#338bff"></path></svg>