<svg t="1664968021414" class="icon" viewBox="0 0 1024 1024" version="1.1" xmlns="http://www.w3.org/2000/svg" p-id="26083" width="60" height="60"><path d="M511.9 325.12v248.55L727.15 449.4l-0.01-248.55z" fill="#C3D2FB" p-id="26084" style="user-select: auto;"></path><path d="M296.65 200.85L511.9 325.12v248.56L296.65 449.4z" fill="#3D4265" p-id="26085" style="user-select: auto;"></path><path d="M511.9 325.12l215.25-124.27L511.9 76.57 296.65 200.85z" fill="#338bff" p-id="26086" style="user-select: auto;"></path><path d="M296.62 698.02v248.55L511.87 822.3l-0.01-248.56z" fill="#C3D2FB" p-id="26087" style="user-select: auto;"></path><path d="M81.37 573.74l215.25 124.28v248.55L81.37 822.3z" fill="#3D4265" p-id="26088" style="user-select: auto;"></path><path d="M296.62 698.02l215.25-124.28-215.25-124.27L81.37 573.74z" fill="#338bff" p-id="26089" style="user-select: auto;"></path><path d="M727.03 698.02v248.55L942.28 822.3l-0.01-248.56z" fill="#C3D2FB" p-id="26090" style="user-select: auto;"></path><path d="M511.78 573.74l215.25 124.28v248.55L511.78 822.3z" fill="#3D4265" p-id="26091" style="user-select: auto;"></path><path d="M727.03 698.02l215.25-124.28-215.25-124.27-215.25 124.27z" fill="#338bff" p-id="26092" style="user-select: auto;"></path></svg>