<?xml version="1.0" standalone="no"?><!DOCTYPE svg PUBLIC "-//W3C//DTD SVG 1.1//EN" "http://www.w3.org/Graphics/SVG/1.1/DTD/svg11.dtd"><svg t="1691750362980" class="icon" viewBox="0 0 1024 1024" version="1.1" xmlns="http://www.w3.org/2000/svg" p-id="14198" xmlns:xlink="http://www.w3.org/1999/xlink" width="35" height="35"><path d="M815.217778 879.198815c28.766815 0 51.446519 32.104296 51.996444 71.111111 0 38.987852-23.22963 71.111111-51.427555 71.111111H198.049185c-28.197926 0-51.427556-32.123259-51.427555-71.111111 0-39.006815 23.22963-71.111111 51.427555-71.111111H815.217778zM1013.05837 711.111111c0 38.987852-32.692148 71.111111-72.362666 71.111111H72.362667C32.673185 782.222222 0 750.098963 0 711.111111V71.111111C0 32.123259 32.673185 0 72.362667 0h869.110518c39.670519 0 72.362667 32.123259 72.362667 71.111111V711.111111h-0.777482zM511.658667 457.746963c60.643556 0 121.287111 0.056889 181.949629-0.037926 19.209481-0.037926 26.794667-7.698963 26.870519-26.889481 0.113778-23.134815 0-46.288593 0.018963-69.442371 0-12.250074-6.314667-19.342222-17.995852-21.712592a65.801481 65.801481 0 0 0-13.046519-0.967112c-118.101333-0.056889-236.22163-0.037926-354.322963-0.037925-2.389333 0-4.79763-0.094815-7.186963 0.037925-16.877037 0.872296-24.38637 8.685037-24.462222 25.637926-0.075852 21.162667-0.037926 42.30637 0 63.469037 0 23.267556 6.599111 29.923556 29.809778 29.923556 59.448889 0.037926 118.897778 0 178.36563 0z m155.837629-88.557037v58.254222h-63.943111v-58.273185H667.496296zM511.81037 606.757926c60.681481 0 121.325037 0.037926 181.968593-0.018963 19.626667-0.018963 26.586074-7.016296 26.680889-26.756741 0.113778-22.755556 0.18963-45.511111-0.018963-68.266666-0.151704-14.52563-7.186963-21.959111-21.617778-23.400297-3.546074-0.360296-7.168-0.227556-10.752-0.246518H336.118519c-3.185778 0-6.390519-0.113778-9.576297 0.13274-15.815111 1.156741-22.945185 8.609185-23.04 24.44326a6339.090963 6339.090963 0 0 0 0 67.053037c0.075852 20.366222 6.902519 27.022222 27.553185 27.041185 60.264296 0.037926 120.528593 0 180.773926 0z m91.648-89.391407h63.86726v58.69037h-63.86726v-58.69037z m-92.690963-209.08563c59.904 0 119.808 0.037926 179.712 0 23.703704-0.018963 29.999407-6.257778 30.018371-29.544296 0-21.18163 0.151704-42.363259-0.056889-63.525926-0.18963-17.825185-7.86963-25.543111-25.78963-25.562074-121.799111-0.094815-243.598222-0.094815-365.416296 0-17.92 0-25.562074 7.736889-25.732741 25.562074-0.18963 21.162667-0.075852 42.344296-0.056889 63.525926 0.018963 23.305481 6.276741 29.525333 29.999408 29.544296 59.107556 0.037926 118.215111 0 177.322666 0z m156.368593-30.075259h-63.336296v-57.590519h63.336296v57.590519z" fill="#338bff" p-id="14199"></path></svg>