<?xml version="1.0" standalone="no"?><!DOCTYPE svg PUBLIC "-//W3C//DTD SVG 1.1//EN" "http://www.w3.org/Graphics/SVG/1.1/DTD/svg11.dtd"><svg t="1678878570803" class="icon" viewBox="0 0 1322 1024" version="1.1" xmlns="http://www.w3.org/2000/svg" p-id="5349" xmlns:xlink="http://www.w3.org/1999/xlink" width="258.203125" height="200"><path d="M1109.673105 595.132059c8.203057-19.687337 16.284587-39.44759 24.098759-59.32937a12.638784 12.638784 0 0 0 0-8.640553q-84.400343-188.852603-168.922213-377.644443c-4.362811-9.795058-8.506874-16.041534-19.359215-12.310662a8.847149 8.847149 0 0 1-2.892337 0c-25.812286-0.36458-51.150618-4.861071-76.051453-11.654418-23.478972-6.428766-46.641975-14.242938-69.938658-21.510238-24.803614-7.741255-50.348542-10.791577-75.954232-12.383578-16.685626-1.032978-33.735832-1.652764-50.202709 0.765618-37.272261 5.480857-71.457742 21.510239-104.792535 39.702797a23.770637 23.770637 0 0 1-10.93741 2.916642q-93.405477 0.267359-186.823106 0c-3.791635 0-5.80898 1.081588-7.449591 4.861071-7.291606 16.940832-14.959946 33.711526-22.4703 50.555137-1.215268 2.892337-2.430535 5.821132-3.998231 9.406172h129.32879c0 1.105894 0.072916 1.3611 0 1.49478q-1.154504 1.786444-2.333314 3.536429a191.404665 191.404665 0 0 0-32.496258 91.363827c-1.215268 14.449533-0.838535 29.081356-2.321162 43.506584-2.236093 21.874819-7.595423 42.826034-18.034573 61.978653-8.94437 16.357503-6.85411 37.150734 6.927026 48.610709 19.444283 16.090145 41.525698 24.69424 66.462992 19.334909 60.447416-12.979059 104.427955-60.459569 116.665701-125.087506 1.215268-6.562446 2.430535-13.744678 5.784674-19.128314 18.557138-30.114334 44.843379-43.749638 78.299699-38.888566 9.296798 1.348947 19.444283 4.010383 26.966791 9.612767 13.258571 9.904432 24.767156 22.518911 36.992749 34.027496l203.144151 190.797032q60.763386 57.044667 121.441703 114.089333c25.070973 23.69772 19.286299 71.396978-10.548523 85.797901-13.100586 6.319392-27.951157 8.737775-39.982308-0.401038q-124.455567-94.244011-247.914615-189.909887c-7.510354-5.784674-15.360984-7.388828-23.965079-6.732583s-14.024189 5.638842-16.223824 14.315854c-2.612826 10.269012 0.072916 21.765445 6.197865 26.577905q118.950404 93.405477 237.949419 186.713732c13.088433 10.232554 17.171733 23.576194 13.939121 39.76356-7.206538 36.093451-37.235803 40.930217-58.33285 24.852224q-106.943559-81.350021-213.765592-163.003858c-6.076339-4.642323-12.006845-5.249957-18.496374-4.010384-8.506874 1.616306-15.61619 5.723911-17.013748 15.992923s-1.008672 19.808864 8.312431 27.015402q90.646819 70.035879 180.880447 140.691543c12.84538 10.050264 18.994634 24.14737 16.260282 41.319103-5.225651 32.812228-38.244475 42.133332-57.555079 27.197691-55.19746-42.740966-111.172691-84.33958-166.552441-126.801033-9.454783-7.291606-18.824497-6.902721-28.46157-3.111086-12.687395 4.99475-15.239457 26.833111-4.484338 35.68026q55.525582 45.645455 111.221302 91.035705c3.840246 3.123238 4.921834 6.222171 4.156215 10.998173-4.435727 27.671646-33.760137 40.529178-55.221765 24.050148-8.968676-6.890568-17.767214-14.012037-26.553599-21.157811a10.341928 10.341928 0 0 1-3.645803-4.618017c-3.986078-14.583213-14.012037-22.749812-26.675127-25.860897-10.293318-2.527757-18.229016-8.26382-26.310546-14.583213-3.26907-2.58852-6.35585-5.517315-9.867974-7.656187-7.522507-4.569407-10.183943-11.216921-12.152677-20.416497-5.444399-24.572713-17.913046-44.369424-41.841667-51.855474-7.753408-2.430535-16.539794-2.600673-24.64563-1.72568-6.939179 0.765619-11.423517-0.145832-16.175213-6.222171-6.380156-8.130141-12.152677-16.673473-13.829747-27.46505-4.666628-29.786212-32.2289-60.496027-67.155694-57.725217-8.616248 0.68055-16.029381 0.777771-20.878299-8.300278-0.54687-1.020825-2.065955-1.458321-2.53991-2.491299-1.008672-2.151024-2.491299-4.654475-2.236092-6.793346 1.494779-12.249899 2.04165-24.51195-0.717008-36.458032-4.861071-20.951215-13.987731-38.815651-33.735832-47.541273-16.053687-7.097163-32.812228-7.024247-49.595075-4.119758-3.147543 0.54687-4.861071 0-6.841958-2.600672q-35.510123-48.610709-71.190383-96.954059c-4.399269-5.966964-8.847149-11.885318-13.878357-18.630054-8.045072 18.374848-15.531121 35.826092-23.345293 53.119352-1.519085 3.366292-1.118046 5.444399 0.923604 8.190904 9.722142 13.173502 19.322757 26.517142 28.947677 39.800018l42.133331 58.114102c-15.105778 22.275857-29.652532 44.588173-45.12289 66.122717-7.619729 10.597134-12.359273 21.716834-13.367945 35.011863-1.385405 19.20123-0.157985 38.317391 12.152677 53.02213 26.201172 31.18377 61.127966 38.013574 93.757905 12.565868 3.074627-2.430535 6.076339-4.958292 9.053744-7.449591-5.578079 16.795-9.017286 33.565694-5.699605 51.259993 3.45136 18.423459 13.367945 31.949388 27.525813 42.2184 30.636899 22.202941 58.575904 13.89051 86.284008-10.48776-1.713527 4.180521-2.734352 6.586751-3.645803 9.005133-5.116277 13.039823-8.093683 26.529294-5.699605 40.699316 4.034689 23.952927 20.100528 37.102123 38.523986 47.395441 14.352312 8.008614 29.664685 8.117988 44.126371 0.534718 8.725622-4.581559 16.624862-11.16831 24.414728-17.536313 4.107605-3.354139 7.157927-8.190904 10.682204-12.359273l1.324642 1.215268c-0.473954 1.956581-0.923603 3.937467-1.434016 5.894048-6.635362 25.459859 3.645803 53.872818 24.572713 67.714718 23.709873 15.701259 49.108968 12.954754 70.485527-8.834997 9.126661-9.296798 16.709931-20.331429 25.046668-30.636899 21.388712 17.390481 46.070799 20.258513 71.931696 13.173502 26.5536-7.291606 45.220112-25.01021 55.233918-53.131504 14.801961 10.25686 29.944197 18.229016 46.787807 22.081414 38.110796 8.786386 76.233744-10.694356 91.910698-48.270434 4.326353-10.378386 5.894048-22.081414 8.907912-33.857358 26.41992 3.293376 51.806863-0.656245 73.669529-21.218575s30.454609-46.180173 27.817478-76.841377c6.744736-1.032978 12.833227-1.822902 18.873108-2.916643 49.971809-9.029439 76.282355-50.312083 77.546233-98.436685 0.704855-26.73589-9.07805-49.825976-24.305355-70.485528-2.369772-3.427055-2.612826-5.833285-1.081588-9.515546zM326.870558 93.834126c8.506874-21.267185 3.171849-39.520506-13.781136-48.610709q-39.897239-21.29149-80.061837-42.048263c-15.689106-8.130141-34.027496 0-41.12466 17.013748-14.145716 33.869511-28.084837 67.860549-43.166309 101.256106-46.763502 103.625878-94.086027 206.960092-140.971055 310.525207-3.463513 7.656187-5.213499 16.223824-7.753408 24.378271l1.506932 0.54687c-0.631939 13.270723 3.961773 23.64911 15.069319 29.883434q37.466704 20.975521 75.152156 41.525697c7.704797 4.204826 15.956465 6.234323 24.682087 4.593712 14.097106-2.661436 21.656071-13.246418 27.379982-26.140408Q224.338421 325.306168 304.91067 143.854545c7.388828-16.576252 15.154388-33.067435 21.959888-50.020419zM1315.855426 433.331315c-14.376617-31.949388-29.166425-63.680028-43.749638-95.483584Q1204.828567 191.626719 1137.539194 45.430013c-4.362811-9.466936-8.506874-19.189077-14.121411-27.817478-10.317623-15.944312-24.985904-20.209902-40.541331-12.286357-26.833111 13.671762-53.605459 27.489356-80.134753 41.85382-17.706451 9.600615-20.027612 28.680318-12.602327 44.770463 14.157869 30.673357 29.555311 60.69047 43.591653 91.42459q48.610709 106.445299 96.431494 213.328095c16.564099 36.786154 32.812228 73.730292 49.352022 110.589363 10.013806 22.324468 27.951157 29.166425 48.829457 18.946023 10.937409-5.335025 21.716834-10.779425 32.569174-16.150908 12.614479-6.246476 25.301874-12.286357 37.819132-18.751581 13.550235-7.012095 22.78627-17.621382 23.588346-38.414612-1.494779-4.520796-3.244765-12.444341-6.465224-19.590116z" p-id="5350" fill="#ffffff"></path></svg>