<svg t="1664964989539" class="icon" viewBox="0 0 1024 1024" version="1.1" xmlns="http://www.w3.org/2000/svg" p-id="20503" width="70" height="70"><path d="M858.2144 344.6784l8.704-82.7392 41.472 18.7392-50.176 64zM881.5616 387.1744l73.3184-39.1168 7.7824 44.8512-81.1008-5.7344zM873.1648 426.5984l62.976 54.272-39.0144 23.4496-23.9616-77.7216z" fill="#338bff" p-id="20504" style="user-select: auto;"></path><path d="M268.3904 296.8576h48.2304l152.6784 21.504 13.4144 251.904h-195.584l-18.7392-273.408zM295.1168 661.2992l214.4256-26.7264v225.0752l-214.4256-18.7392V661.2992z" fill="#338bff" p-id="20505" style="user-select: auto;"></path><path d="M654.7456 274.2272L525.0048 404.8896l112.4352 169.0624 187.392-169.0624-170.0864-130.6624z" fill="#338bff" p-id="20506" style="user-select: auto;"></path><path d="M564.8384 617.3696v225.0752l227.84-24.064 13.4144-267.9808-241.2544 66.9696z" fill="#338bff" p-id="20507" style="user-select: auto;"></path><path d="M268.3904 296.8576l21.2992-0.9216 30.8224 274.3296h-33.3824l-18.7392-273.408zM295.1168 661.2992l25.3952-3.1744-6.9632 184.32-18.432-1.536V661.2992z" fill="#338bff" p-id="20508" style="user-select: auto;"></path><path d="M654.7456 274.2272l-56.5248 240.7424-73.216-110.08 129.7408-130.6624z" fill="#338bff" p-id="20509" style="user-select: auto;"></path><path d="M564.8384 617.3696l41.5744 220.672-41.5744 4.4032V617.3696z" fill="#338bff" p-id="20510" style="user-select: auto;"></path><path d="M692.0192 309.248l-36.7616-28.2624-18.432 18.5344-7.2704-7.2704 24.7808-24.8832 43.8272 33.792-6.144 8.0896z" fill="#338bff" p-id="20511" style="user-select: auto;"></path></svg>