<svg t="1653984132024" class="icon" viewBox="0 0 1024 1024" version="1.1" xmlns="http://www.w3.org/2000/svg" p-id="12686" width="200" height="200"><path d="M544 805.5V768c0-17.7-14.3-32-32-32s-32 14.3-32 32v37.5c-37.2 13.2-64 48.8-64 90.5 0 52.9 43.1 96 96 96s96-43.1 96-96c0-41.7-26.8-77.3-64-90.5zM512 928c-17.6 0-32-14.4-32-32s14.4-32 32-32 32 14.4 32 32-14.4 32-32 32z" p-id="12687" fill="#267df7" style="user-select: auto;"></path><path d="M832 608c-29.6 0-57 10.1-78.7 27.1l-64.1-49.3c9.5-22.7 14.8-47.7 14.8-73.8 0-95-69.3-174-160-189.3V252c55.1-14.2 96-64.4 96-124C640 57.4 582.6 0 512 0S384 57.4 384 128c0 59.5 40.9 109.7 96 124v70.7C389.3 338 320 417 320 512c0 25.6 5 50 14.2 72.4L270 634.6c-21.7-16.7-48.7-26.6-78-26.6-70.6 0-128 57.4-128 128s57.4 128 128 128 128-57.4 128-128c0-18.1-3.8-35.4-10.6-51l58.8-45.9c35.2 39.8 86.6 65 143.8 65 56.7 0 107.7-24.7 142.9-63.9l59.4 45.7c-6.6 15.4-10.3 32.4-10.3 50.2 0 70.6 57.4 128 128 128s128-57.4 128-128S902.6 608 832 608zM192 800c-35.3 0-64-28.7-64-64s28.7-64 64-64 64 28.7 64 64-28.7 64-64 64z m256-672c0-35.3 28.7-64 64-64s64 28.7 64 64-28.7 64-64 64-64-28.7-64-64z m64 512c-70.6 0-128-57.4-128-128s57.4-128 128-128 128 57.4 128 128-57.4 128-128 128z m320 160c-35.3 0-64-28.7-64-64s28.7-64 64-64 64 28.7 64 64-28.7 64-64 64z" p-id="12688" fill="#267df7" style="user-select: auto;"></path><path d="M160 448c27.1 0 51.6-11.3 69.1-29.4l28.1 12.8c4.3 2 8.8 2.9 13.2 2.9 12.2 0 23.8-7 29.2-18.8 7.3-16.1 0.2-35.1-15.9-42.4l-28-12.7c0.2-2.7 0.4-5.5 0.4-8.3 0-52.9-43.1-96-96-96s-96 43.1-96 96 43 95.9 95.9 95.9z m0-128c17.6 0 32 14.4 32 32s-14.4 32-32 32-32-14.4-32-32 14.4-32 32-32zM753.6 434.2c4.4 0 8.9-0.9 13.2-2.9l28.1-12.8c17.5 18.1 42 29.4 69.1 29.4 52.9 0 96-43.1 96-96s-43.1-96-96-96-96 43.1-96 96c0 2.8 0.1 5.6 0.4 8.3l-28 12.7c-16.1 7.3-23.2 26.3-15.9 42.4 5.3 11.9 17 18.9 29.1 18.9zM864 320c17.6 0 32 14.4 32 32s-14.4 32-32 32-32-14.4-32-32 14.4-32 32-32z" p-id="12689" fill="#267df7" style="user-select: auto;"></path></svg>