<?xml version="1.0" encoding="UTF-8"?>
<svg width="90px" height="89px" viewBox="0 0 90 89" version="1.1" xmlns="http://www.w3.org/2000/svg" xmlns:xlink="http://www.w3.org/1999/xlink">
    <!-- Generator: Sketch 51.3 (57544) - http://www.bohemiancoding.com/sketch -->
    <title>go</title>
    <desc>Created with Sketch.</desc>
    <defs></defs>
    <g id="Page-1" stroke="none" stroke-width="1" fill="none" fill-rule="evenodd">
        <g id="website-layout-02" transform="translate(-836.000000, -1775.000000)" fill-rule="nonzero">
            <g id="about" transform="translate(-1.000000, 812.000000)">
                <g id="langus" transform="translate(194.500000, 962.000000)">
                    <g id="go" transform="translate(643.140625, 1.000000)">
                        <circle id="Oval-7" fill="#FFFFFF" cx="44.5" cy="44.5" r="44.5"></circle>
                        <path d="M11.0533508,38.0052934 C10.9038853,38.0052934 10.866519,37.9305607 10.9412517,37.8184616 L11.7259453,36.8095698 C11.800678,36.6974707 11.9875098,36.622738 12.1369753,36.622738 L25.4767668,36.622738 C25.6262322,36.622738 25.6635986,36.7348371 25.5888659,36.8469362 L24.9536377,37.8184616 C24.878905,37.9305607 24.6920732,38.0426598 24.5799741,38.0426598 L11.0533508,38.0052934 Z" id="Shape" fill="#5DC9E1"></path>
                        <path d="M5.41102999,41.4429988 C5.26156454,41.4429988 5.22419818,41.3682661 5.2989309,41.256167 L6.08362452,40.2472752 C6.15835725,40.1351761 6.34518906,40.0604434 6.49465451,40.0604434 L23.5337159,40.0604434 C23.6831814,40.0604434 23.7579141,40.1725425 23.7205477,40.2846416 L23.4216168,41.1814343 C23.3842505,41.3308997 23.234785,41.4056324 23.0853196,41.4056324 L5.41102999,41.4429988 Z" id="Shape" fill="#5DC9E1"></path>
                        <path d="M14.4536898,44.8807042 C14.3042243,44.8807042 14.266858,44.7686051 14.3415907,44.656506 L14.8647198,43.7223469 C14.9394525,43.6102478 15.0889179,43.4981488 15.2383834,43.4981488 L22.711656,43.4981488 C22.8611214,43.4981488 22.9358541,43.6102478 22.9358541,43.7597133 L22.8611214,44.656506 C22.8611214,44.8059715 22.711656,44.9180705 22.5995569,44.9180705 L14.4536898,44.8807042 Z" id="Shape" fill="#5DC9E1"></path>
                        <g id="CXHf1q_7_" transform="translate(25.551500, 29.000000)" fill="#5DC9E1">
                            <g id="Group">
                                <path d="M27.6884748,8.3326989 C25.334394,8.9305607 23.7276404,9.37895705 21.4109259,9.97681886 C20.8504304,10.1262843 20.8130641,10.1636507 20.3273013,9.60315523 C19.7668059,8.96792706 19.3557759,8.55689707 18.5710823,8.18323345 C16.2170014,7.0248762 13.9376533,7.36117347 11.8077706,8.74372889 C9.26685797,10.3878488 7.95903527,12.8166624 7.99640163,15.8433378 C8.033768,18.8326468 10.0889179,21.2988268 13.0408606,21.7098568 C15.5817733,22.046154 17.711656,21.1493613 19.3931423,19.2436768 C19.7294395,18.8326468 20.0283704,18.3842505 20.4020341,17.8611214 C19.056845,17.8611214 17.3753587,17.8611214 13.1903261,17.8611214 C12.4056324,17.8611214 12.2188006,17.3753587 12.4803652,16.7401305 C12.9661279,15.5817733 13.8629206,13.6387224 14.3860497,12.667197 C14.4981488,12.4429988 14.7597133,12.0693352 15.3202087,12.0693352 C17.2258932,12.0693352 24.2507694,12.0693352 28.9215648,12.0693352 C28.8468321,13.078227 28.8468321,14.0871188 28.6973666,15.0960106 C28.2863366,17.7863887 27.2774448,20.2525686 25.6333249,22.4198177 C22.9429467,25.9696221 19.4305086,28.1742375 14.9839115,28.7720993 C11.3220079,29.257862 7.92166891,28.5479012 4.93235989,26.3059194 C2.16724904,24.2134031 0.597861804,21.4482922 0.186831814,18.0105869 C-0.298930902,13.9376533 0.896792706,10.2757498 3.36297265,7.06224256 C6.01598441,3.58717083 9.52842251,1.38255542 13.8255542,0.597861804 C17.3379923,-0.0373663628 20.700965,0.373663628 23.7276404,2.42881358 C25.7080576,3.73663628 27.1279794,5.53022169 28.0621384,7.69747073 C28.2863366,8.033768 28.1368712,8.22059981 27.6884748,8.3326989 Z" id="Shape"></path>
                                <path d="M40.0567409,28.9962975 C36.6564019,28.9215648 33.5549938,27.9500394 30.9393484,25.7080576 C28.734733,23.8023731 27.3521775,21.3735595 26.9037812,18.4963496 C26.2311867,14.2739506 27.3895439,10.5373143 29.9304566,7.21170801 C32.6582011,3.62453719 35.946441,1.75621905 40.3930382,0.971525432 C44.2044072,0.298930902 47.791578,0.67259453 51.0424515,2.87720993 C53.9943942,4.89499352 55.825346,7.622738 56.3111087,11.2099088 C56.9463369,16.2543678 55.4890487,20.3646677 52.013977,23.8771058 C49.547797,26.3806521 46.5211216,27.9500394 43.0460499,28.6600002 C42.0371581,28.8468321 41.0282663,28.8841984 40.0567409,28.9962975 Z M48.9499352,13.9002869 C48.9125689,13.4145242 48.9125689,13.0408606 48.8378361,12.667197 C48.1652416,8.96792706 44.7649026,6.87541075 41.2150981,7.69747073 C37.7400264,8.48216435 35.4980446,10.6867798 34.6759846,14.1992179 C34.0033901,17.1137941 35.4233119,20.0657368 38.11369,21.2614604 C40.16884,22.1582531 42.2239899,22.046154 44.2044072,21.0372622 C47.1563498,19.5052414 48.7631034,17.1137941 48.9499352,13.9002869 Z" id="Shape"></path>
                            </g>
                        </g>
                    </g>
                </g>
            </g>
        </g>
    </g>
</svg>