<?xml version="1.0" encoding="UTF-8"?>
<svg width="90px" height="89px" viewBox="0 0 90 89" version="1.1" xmlns="http://www.w3.org/2000/svg" xmlns:xlink="http://www.w3.org/1999/xlink">
    <!-- Generator: Sketch 51.3 (57544) - http://www.bohemiancoding.com/sketch -->
    <title>java</title>
    <desc>Created with Sketch.</desc>
    <defs></defs>
    <g id="Page-1" stroke="none" stroke-width="1" fill="none" fill-rule="evenodd">
        <g id="website-layout-02" transform="translate(-579.000000, -1775.000000)" fill-rule="nonzero">
            <g id="about" transform="translate(-1.000000, 812.000000)">
                <g id="langus" transform="translate(194.500000, 962.000000)">
                    <g id="java" transform="translate(385.570312, 0.500000)">
                        <circle id="Oval-7" fill="#FFFFFF" cx="45" cy="45" r="44.5"></circle>
                        <path d="M36.7,60.49 C36.7,60.49 34.25,61.91 38.44,62.39 C42.8539398,63.0112958 47.3442244,62.8215177 51.69,61.83 C52.8124179,62.5021469 53.9899999,63.0775563 55.21,63.55 C42.68,68.92 26.86,63.24 36.7,60.49" id="Shape" fill="#5382A1" opacity="0.97"></path>
                        <path d="M35.17,53.49 C35.17,53.49 32.43,55.49 36.62,55.95 C42.3259619,56.6288568 48.1051771,56.3517248 53.72,55.13 C54.477264,55.8409752 55.372402,56.3889494 56.35,56.74 C41.2,61.17 24.35,57.09 35.17,53.49" id="Shape" fill="#5382A1" opacity="0.97"></path>
                        <path d="M48.08,41.6 C51.17,45.15 47.27,48.35 47.27,48.35 C47.27,48.35 55.11,44.35 51.51,39.24 C48.15,34.51 45.57,32.17 59.51,24.07 C59.51,24.07 37.6,29.54 48.06,41.6" id="Shape" fill="#E76F00" opacity="0.97"></path>
                        <path d="M64.65,65.68 C64.65,65.68 66.46,67.17 62.65,68.32 C55.42,70.51 32.55,71.17 26.2,68.41 C23.92,67.41 28.2,66.04 29.55,65.75 C30.2729177,65.5723513 31.0156661,65.48833 31.76,65.5 C29.22,63.71 15.35,69.01 24.76,70.5 C50.3,74.64 71.33,68.63 64.7,65.65" id="Shape" fill="#5382A1" opacity="0.97"></path>
                        <path d="M37.88,46.23 C37.88,46.23 26.25,49 33.76,50 C38.8847185,50.3994928 44.0346948,50.3459518 49.15,49.84 C53.96,49.43 58.8,48.57 58.8,48.57 C57.7822894,49.0128369 56.8023768,49.5379096 55.87,50.14 C44.05,53.23 21.24,51.79 27.8,48.61 C30.9197069,47.0273394 34.3718517,46.2114402 37.87,46.23" id="Shape" fill="#5382A1" opacity="0.97"></path>
                        <path d="M58.74,57.89 C70.74,51.65 65.2,45.65 61.32,46.46 C60.8543066,46.5470823 60.3962163,46.6708001 59.95,46.83 C60.2048093,46.4505394 60.5719611,46.1603147 61,46 C68.67,43.3 74.56,53.95 58.53,58.16 C58.6296705,58.0735143 58.7112377,57.9681566 58.77,57.85" id="Shape" fill="#5382A1" opacity="0.97"></path>
                        <path d="M51.5,11 C51.5,11 58.15,17.65 45.19,27.88 C34.8,36.09 42.82,40.76 45.19,46.11 C39.13,40.64 34.67,35.82 37.66,31.34 C42,24.76 54.19,21.57 51.5,11" id="Shape" fill="#E76F00" opacity="0.97"></path>
                        <path d="M39.06,74.8 C50.59,75.54 68.28,74.39 68.7,68.94 C68.7,68.94 67.89,71.01 59.17,72.65 C49.5276707,74.301499 39.6877535,74.4499242 30,73.09 C30,73.09 31.47,74.31 39,74.79" id="Shape" fill="#5382A1" opacity="0.97"></path>
                    </g>
                </g>
            </g>
        </g>
    </g>
</svg>