<?xml version="1.0" encoding="UTF-8"?>
<svg width="90px" height="89px" viewBox="0 0 90 89" version="1.1" xmlns="http://www.w3.org/2000/svg" xmlns:xlink="http://www.w3.org/1999/xlink">
    <!-- Generator: Sketch 51.3 (57544) - http://www.bohemiancoding.com/sketch -->
    <title>node</title>
    <desc>Created with Sketch.</desc>
    <defs></defs>
    <g id="Page-1" stroke="none" stroke-width="1" fill="none" fill-rule="evenodd">
        <g id="website-layout-02" transform="translate(-193.000000, -1775.000000)">
            <g id="about" transform="translate(-1.000000, 812.000000)">
                <g id="langus" transform="translate(194.500000, 962.000000)">
                    <g id="node" transform="translate(0.000000, 1.000000)">
                        <circle id="Oval-7" fill="#FFFFFF" fill-rule="nonzero" cx="44.5" cy="44.5" r="44.5"></circle>
                        <g transform="translate(16.500000, 11.500000)" fill="#41873F" id="Shape">
                            <path d="M27.83,65 C26.9662207,65.0002145 26.1176705,64.7725547 25.37,64.34 L17.54,59.71 C16.37,59.06 16.94,58.82 17.33,58.71 C18.5470278,58.3318787 19.7125597,57.8045344 20.8,57.14 C21.0047131,57.038217 21.2452869,57.038217 21.45,57.14 L27.45,60.71 C27.6778717,60.8326755 27.9521283,60.8326755 28.18,60.71 L51.64,47.16 C51.8648471,47.0254498 52.0017739,46.7820245 52,46.52 L52,19.41 C51.9997821,19.1484941 51.8633696,18.905983 51.64,18.77 L28.36,5.33 C28.1366922,5.20341207 27.8633078,5.20341207 27.64,5.33 L4.37,18.77 C4.14279159,18.9035128 4.00232742,19.1464779 4,19.41 L4,46.41 C3.99767667,46.6695368 4.13521957,46.9102368 4.36,47.04 L10.57,50.75 C13.94,52.51 16,50.46 16,48.4 L16,21.68 C16,21.3044464 16.3044464,21 16.68,21 L20.32,21 C20.6955536,21 21,21.3044464 21,21.68 L21,48.4 C21,53.05 18.46,55.72 14,55.72 C12.64,55.72 11.57,55.72 8.59,54.25 L2.46,50.71 C0.943778996,49.815817 0.00944473799,48.1902273 0,46.43 L0,19.5 C0.0044861103,17.7305904 0.943816716,16.0953185 2.47,15.2 L26,1.59 C27.5553597,0.728578644 29.4446403,0.728578644 31,1.59 L54,15 C55.53,15.88 56,17.73 56,19.5 L56,46.5 C56,48.26 56.06,49.89 54.54,50.78 L31.09,64.34 C30.3392116,64.7738147 29.4871079,65.0015023 28.62,65"></path>
                            <path d="M35.63,46.7 C24.96,46.7 22.74,41.8 22.74,37.7 C22.7373222,37.5179264 22.8077809,37.3423856 22.935597,37.2126898 C23.0634132,37.082994 23.2379067,37.0099803 23.42,37.01 L26.6,37.01 C26.9491127,37.0107018 27.2459127,37.2651018 27.3,37.61 C27.78,40.82 29.19,42.43 35.64,42.43 C40.77,42.43 42.95,41.27 42.95,38.55 C42.95,36.98 42.33,35.82 34.36,35.03 C27.7,34.37 23.57,32.9 23.57,27.57 C23.57,22.66 27.71,19.73 34.66,19.73 C42.46,19.73 46.32,22.44 46.81,28.25 C46.8266963,28.4467365 46.7607155,28.6415403 46.6279005,28.7876368 C46.4950855,28.9337333 46.3074328,29.0179263 46.11,29.02 L42.94,29.02 C42.612603,29.0182498 42.3301528,28.7897975 42.26,28.47 C41.5,25.08 39.66,24 34.65,24 C29.05,24 28.4,26 28.4,27.41 C28.4,29.18 29.17,29.7 36.73,30.7 C44.29,31.7 47.73,33.09 47.73,38.35 C47.73,43.61 43.35,46.7 35.63,46.7"></path>
                        </g>
                    </g>
                </g>
            </g>
        </g>
    </g>
</svg>