<?xml version="1.0" encoding="UTF-8"?>
<svg width="90px" height="89px" viewBox="0 0 90 89" version="1.1" xmlns="http://www.w3.org/2000/svg" xmlns:xlink="http://www.w3.org/1999/xlink">
    <!-- Generator: Sketch 51.3 (57544) - http://www.bohemiancoding.com/sketch -->
    <title>python</title>
    <desc>Created with Sketch.</desc>
    <defs></defs>
    <g id="Page-1" stroke="none" stroke-width="1" fill="none" fill-rule="evenodd">
        <g id="website-layout-02" transform="translate(-321.000000, -1775.000000)" fill-rule="nonzero">
            <g id="about" transform="translate(-1.000000, 812.000000)">
                <g id="langus" transform="translate(194.500000, 962.000000)">
                    <g id="python" transform="translate(127.570312, 0.500000)">
                        <circle id="Oval-7" fill="#FFFFFF" cx="45" cy="45" r="44.5"></circle>
                        <path d="M13,44.46 C13.0276135,44.3718625 13.0476857,44.2815374 13.06,44.19 C13.11,43.26 13.12,42.32 13.22,41.39 C13.3759703,38.3757846 14.3813359,35.4671579 16.12,33 C17.501207,31.1312172 19.5925778,29.9154722 21.9,29.64 C22.2317307,29.5988906 22.5657337,29.5788504 22.9,29.58 L44.48,29.58 C44.9,29.58 44.9,29.58 44.9,29.16 C44.9,28.74 44.9,28.16 44.9,27.66 C44.9,27.35 44.81,27.28 44.52,27.28 L32.61,27.28 C31.68,27.28 30.75,27.28 29.83,27.28 C29.58,27.28 29.49,27.21 29.49,26.95 C29.49,24.51 29.49,22.06 29.49,19.62 C29.538992,18.5586755 29.9809794,17.5535106 30.73,16.8 C31.7252488,15.7404789 32.9646154,14.9405553 34.34,14.47 C36.0192569,13.8659542 37.7651686,13.4664091 39.54,13.28 C41.9662664,13.0029201 44.4114621,12.9293301 46.85,13.06 C49.4779659,13.1087547 52.0797613,13.5919453 54.55,14.49 C56.2446258,15.0615481 57.7425245,16.1017555 58.87,17.49 C59.776623,18.6569246 60.224812,20.1153173 60.13,21.59 C60.07,22.83 60.13,24.08 60.13,25.33 C60.13,27.64 60.13,29.95 60.13,32.25 C60.13,33.61 60.13,34.98 60.07,36.33 C60.0496144,39.3252487 58.1844156,41.9977723 55.38,43.05 C54.0510271,43.5946598 52.626156,43.8667116 51.19,43.85 L35.91,43.85 C34.2941649,43.8192682 32.7015789,44.2381875 31.31,45.06 C29.5299015,46.1788252 28.2618026,47.9534452 27.78,50 C27.4903184,51.0316054 27.3455973,52.098503 27.35,53.17 C27.35,55.48 27.35,57.79 27.35,60.1 C27.35,60.56 27.35,60.55 26.89,60.56 C25.23,60.56 23.57,60.61 21.89,60.56 C20.2452739,60.4930728 18.6767434,59.8486652 17.46,58.74 C16.0452632,57.452897 14.9905716,55.819159 14.4,54 C13.8016497,52.3464738 13.4217718,50.6218954 13.27,48.87 C13.17,47.75 13.13,46.63 13.06,45.52 C13.0470263,45.3956295 13.026994,45.2720969 13,45.15 C13,44.9233333 13,44.6933333 13,44.46 Z" id="Shape" fill="#3772A4"></path>
                        <path d="M33.27,20.65 C33.2810271,22.1992688 34.5439479,23.4473068 36.0932385,23.4399685 C37.6425291,23.4326301 38.8935706,22.1726844 38.889921,20.6233807 C38.8862715,19.074077 37.629308,17.8200392 36.08,17.82 C34.5248503,17.8309907 33.2699612,19.0948114 33.27,20.65 Z" id="Shape" fill="#000000"></path>
                        <path d="M33.27,20.65 C33.27,19.0953184 34.5303184,17.835 36.085,17.835 C37.6396816,17.835 38.9,19.0953184 38.9,20.65 C38.9,22.2046816 37.6396816,23.465 36.085,23.465 C34.5303184,23.465 33.27,22.2046816 33.27,20.65 Z" id="Shape" fill="#FFFFFF"></path>
                        <path d="M77,45.54 C76.9723865,45.6281375 76.9523143,45.7184626 76.94,45.81 C76.89,46.74 76.88,47.68 76.78,48.61 C76.6240297,51.6242154 75.6186641,54.5328421 73.88,57 C72.5006871,58.8725481 70.4090462,60.0920688 68.1,60.37 C67.7682693,60.4111094 67.4342663,60.4311496 67.1,60.43 L45.52,60.43 C45.1,60.43 45.1,60.43 45.1,60.85 C45.1,61.27 45.1,61.85 45.1,62.35 C45.1,62.66 45.19,62.73 45.48,62.73 L57.39,62.73 C58.32,62.73 59.25,62.73 60.17,62.73 C60.42,62.73 60.51,62.8 60.51,63.06 C60.51,65.5 60.51,67.95 60.51,70.39 C60.461008,71.4513245 60.0190206,72.4564894 59.27,73.21 C58.2747512,74.2695211 57.0353846,75.0694447 55.66,75.54 C53.9839533,76.1432659 52.2414453,76.5428005 50.47,76.73 C48.0437336,77.0070799 45.5985379,77.0806699 43.16,76.95 C40.5320341,76.9012453 37.9302387,76.4180547 35.46,75.52 C33.7653742,74.9484519 32.2674755,73.9082445 31.14,72.52 C30.233377,71.3530754 29.785188,69.8946827 29.88,68.42 C29.94,67.18 29.88,65.93 29.88,64.68 C29.88,62.37 29.88,60.06 29.88,57.76 C29.88,56.4 29.88,55.03 29.94,53.68 C29.9603856,50.6847513 31.8255844,48.0122277 34.63,46.96 C35.9589729,46.4153402 37.383844,46.1432884 38.82,46.16 L54.09,46.16 C55.7058351,46.1907318 57.2984211,45.7718125 58.69,44.95 C60.4722225,43.8288291 61.7405866,42.0502449 62.22,40 C62.5096816,38.9683946 62.6544027,37.901497 62.65,36.83 C62.65,34.52 62.65,32.21 62.65,29.9 C62.65,29.44 62.65,29.45 63.11,29.44 C64.77,29.44 66.43,29.39 68.11,29.44 C69.7547261,29.5069272 71.3232566,30.1513348 72.54,31.26 C73.9547368,32.547103 75.0094284,34.180841 75.6,36 C76.1966399,37.6603879 76.5731774,39.3917877 76.72,41.15 C76.82,42.27 76.86,43.39 76.93,44.5 C76.9433439,44.6210149 76.9633745,44.7411987 76.99,44.86 C76.9966667,45.08 77,45.3066667 77,45.54 Z" id="Shape" fill="#FFDA4B"></path>
                        <path d="M56.73,69 C56.7189729,67.4507312 55.4560521,66.2026932 53.9067615,66.2100315 C52.3574709,66.2173699 51.1064294,67.4773156 51.110079,69.0266193 C51.1137285,70.575923 52.370692,71.8299608 53.92,71.83 C55.4751497,71.8190093 56.7300388,70.5551886 56.73,69 Z" id="Shape" fill="#000000"></path>
                        <path d="M56.73,69 C56.73,70.5546816 55.4696816,71.815 53.915,71.815 C52.3603184,71.815 51.1,70.5546816 51.1,69 C51.1,67.4453184 52.3603184,66.185 53.915,66.185 C55.4696816,66.185 56.73,67.4453184 56.73,69 Z" id="Shape" fill="#FFFFFF"></path>
                    </g>
                </g>
            </g>
        </g>
    </g>
</svg>