<?xml version="1.0" standalone="no"?><!DOCTYPE svg PUBLIC "-//W3C//DTD SVG 1.1//EN" "http://www.w3.org/Graphics/SVG/1.1/DTD/svg11.dtd"><svg t="1578969093510" class="icon" viewBox="0 0 1024 1024" version="1.1" xmlns="http://www.w3.org/2000/svg" p-id="1590" xmlns:xlink="http://www.w3.org/1999/xlink" width="200" height="200"><defs><style type="text/css"></style></defs><path d="M703.48 370.65L452 479a13.75 13.75 0 0 1-18.13-7.42l-67.41-160.96a14.1 14.1 0 0 1 7.31-18.39l251.46-108.34a13.76 13.76 0 0 1 18.13 7.43l67.44 160.94a14.1 14.1 0 0 1-7.32 18.39zM477.59 690.84l-218.47-543.1A25.49 25.49 0 0 0 225.54 134l-146.6 63.15a26.1 26.1 0 0 0-13.55 34A25.46 25.46 0 0 0 99 244.94l123-53 213.64 531.54a122.8 122.8 0 0 1 41.95-32.64zM957.3 640.73A25.49 25.49 0 0 0 923.72 627l-283 121.92c1 2 1.92 4.11 2.81 6.23a126.32 126.32 0 0 1 9.78 44.77l290.44-125.14a26.1 26.1 0 0 0 13.55-34.05zM870.19 578.93l-79.65-190.1a16.9 16.9 0 0 0-22.28-9.12L470.64 507.93a17.33 17.33 0 0 0-9 22.6L524 679.43a122.74 122.74 0 0 1 86.12 30.25l251-108.16a17.32 17.32 0 0 0 9.07-22.59z" p-id="1591" fill="#1296db"></path><path d="M197.39 421.47H92.12c-15.39 0-27.85-11.62-27.85-26 0-14.34 12.46-26 27.85-26h105.27zM259 557.51H122.15c-15.39 0-27.86-11.63-27.86-26 0-14.34 12.47-26 27.86-26H259zM340.22 693.54h-188c-15.39 0-27.86-11.62-27.86-26 0-14.34 12.47-26 27.86-26h188zM616.07 766.63c-20.15-48.09-74.92-70.51-122.34-50.08s-69.53 76-49.38 124.06 74.92 70.5 122.34 50.07 69.52-75.97 49.38-124.05z m-85.86 73.73a36.75 36.75 0 1 1 36.57-36.74 36.65 36.65 0 0 1-36.57 36.74z" p-id="1592" fill="#1296db"></path></svg>