<?xml version="1.0" standalone="no"?><!DOCTYPE svg PUBLIC "-//W3C//DTD SVG 1.1//EN" "http://www.w3.org/Graphics/SVG/1.1/DTD/svg11.dtd"><svg t="1578969208930" class="icon" viewBox="0 0 1024 1024" version="1.1" xmlns="http://www.w3.org/2000/svg" p-id="6356" xmlns:xlink="http://www.w3.org/1999/xlink" width="200" height="200"><defs><style type="text/css"></style></defs><path d="M392.9344 589.568l-0.2816 96.7168a3.5328 3.5328 0 0 1-5.2992 3.0464l-84.1984-48.6144a3.5584 3.5584 0 0 1-1.7664-3.072l0.2816-96.7168c0-2.7136 2.944-4.4288 5.2992-3.0464l84.1984 48.6144a3.5584 3.5584 0 0 1 1.7664 3.072z" fill="#1296db" p-id="6357"></path><path d="M502.4512 652.8l-0.2816 96.7168a3.5328 3.5328 0 0 1-5.2992 3.0464l-84.1984-48.6144a3.5584 3.5584 0 0 1-1.7664-3.072l0.2816-96.7168c0-2.7136 2.944-4.4288 5.2992-3.0464l84.1984 48.6144c1.1008 0.64 1.7664 1.792 1.7664 3.072z" fill="#1296db" p-id="6358"></path><path d="M630.7072 589.568l0.2816 96.7168c0 2.7136 2.944 4.4288 5.2992 3.0464l84.1984-48.6144a3.5584 3.5584 0 0 0 1.7664-3.072l-0.2816-96.7168a3.5328 3.5328 0 0 0-5.2992-3.0464l-84.1984 48.6144a3.5584 3.5584 0 0 0-1.7664 3.072z" fill="#1296db" p-id="6359"></path><path d="M630.3488 463.744l0.2816 96.7168c0 2.7136 2.944 4.4288 5.2992 3.0464l84.1984-48.6144a3.5584 3.5584 0 0 0 1.7664-3.072l-0.2816-96.7168a3.5328 3.5328 0 0 0-5.2992-3.0464l-84.1984 48.6144a3.5072 3.5072 0 0 0-1.7664 3.072z" fill="#1296db" p-id="6360"></path><path d="M521.1904 652.8l0.2816 96.7168c0 2.7136 2.944 4.4288 5.2992 3.0464l84.1984-48.6144a3.5584 3.5584 0 0 0 1.7664-3.072l-0.256-96.7168a3.5328 3.5328 0 0 0-5.2992-3.0464l-84.1984 48.6144a3.5072 3.5072 0 0 0-1.792 3.072z" fill="#1296db" p-id="6361"></path><path d="M623.5904 445.44l83.6352-48.5888a3.5328 3.5328 0 0 0 0-6.1184l-84.1984-48.6144a3.5328 3.5328 0 0 0-3.5584 0l-83.6352 48.5888a3.5328 3.5328 0 0 0 0 6.1184L620.032 445.44a3.5328 3.5328 0 0 0 3.5584 0z" fill="#1296db" p-id="6362"></path><path d="M612.7616 463.744l-0.2816 96.7168a3.5328 3.5328 0 0 1-5.2992 3.0464l-84.1984-48.6144a3.5584 3.5584 0 0 1-1.7664-3.072l0.2816-96.7168c0-2.7136 2.944-4.4288 5.2992-3.0464l84.1984 48.6144c1.0752 0.6144 1.7664 1.792 1.7664 3.072zM514.0736 633.1392l83.6352-48.5888a3.5328 3.5328 0 0 0 0-6.1184l-84.1984-48.6144a3.5328 3.5328 0 0 0-3.5584 0l-83.6352 48.5888a3.5328 3.5328 0 0 0 0 6.1184l84.1984 48.6144a3.5328 3.5328 0 0 0 3.5584 0z" fill="#1296db" p-id="6363"></path><path d="M404.5568 569.9072l83.6352-48.5888a3.5328 3.5328 0 0 0 0-6.1184l-84.1984-48.6144a3.5328 3.5328 0 0 0-3.5584 0l-83.6352 48.5888a3.5328 3.5328 0 0 0 0 6.1184l84.1984 48.6144a3.5328 3.5328 0 0 0 3.5584 0z" fill="#1296db" p-id="6364"></path><path d="M697.1648 838.912H199.04C92.8256 838.912 6.4 752.4864 6.4 646.272c0-106.2144 86.4256-192.64 192.64-192.64 13.5168 0 26.9568 1.4336 40.1408 4.2496a268.416 268.416 0 0 1-0.5376-16.64c0-167.9616 136.6528-304.6144 304.5888-304.6144 135.936 0 255.1296 90.2656 292.48 220.4928a243.9168 243.9168 0 0 1 181.8624 236.672 244.48 244.48 0 0 1-132.4544 217.7792 12.8512 12.8512 0 0 1-11.8016-22.7584 218.9312 218.9312 0 0 0 118.656-195.0464 218.496 218.496 0 0 0-169.5232-213.6064l-7.552-1.7408-1.9456-7.4752a278.8096 278.8096 0 0 0-269.696-208.7168c-153.856 0-278.9888 125.1584-278.9888 279.0144 0 9.8048 0.64 20.352 1.9968 32.2304l2.2016 19.6096-18.7904-5.9648a166.912 166.912 0 0 0-50.6368-7.8592 167.2192 167.2192 0 0 0-167.04 167.04 167.2448 167.2448 0 0 0 167.04 167.04h498.1248a12.8 12.8 0 0 1 0 25.5744z" fill="#1296db" p-id="6365"></path><path d="M745.6256 887.3728c-33.7664 0-61.2608-27.4688-61.2608-61.2608s27.4688-61.2608 61.2608-61.2608 61.2608 27.4688 61.2608 61.2608-27.4944 61.2608-61.2608 61.2608z m0-96.9216c-19.6608 0-35.6608 16-35.6608 35.6608s16 35.6608 35.6608 35.6608 35.6608-16 35.6608-35.6608-16-35.6608-35.6608-35.6608z" fill="#1296db" p-id="6366"></path></svg>