<?xml version="1.0" encoding="UTF-8"?>
<svg width="81px" height="81px" viewBox="0 0 81 81" version="1.1" xmlns="http://www.w3.org/2000/svg" xmlns:xlink="http://www.w3.org/1999/xlink">
    <!-- Generator: Sketch 51.3 (57544) - http://www.bohemiancoding.com/sketch -->
    <title>Group 2</title>
    <desc>Created with Sketch.</desc>
    <defs>
        <circle id="path-1" cx="40.1347656" cy="40.8652344" r="40.1347656"></circle>
        <filter x="-5.6%" y="-5.6%" width="111.2%" height="111.2%" filterUnits="objectBoundingBox" id="filter-3">
            <feGaussianBlur stdDeviation="4.5" in="SourceAlpha" result="shadowBlurInner1"></feGaussianBlur>
            <feOffset dx="0" dy="0" in="shadowBlurInner1" result="shadowOffsetInner1"></feOffset>
            <feComposite in="shadowOffsetInner1" in2="SourceAlpha" operator="arithmetic" k2="-1" k3="1" result="shadowInnerInner1"></feComposite>
            <feColorMatrix values="0 0 0 0 0.31372549   0 0 0 0 0.368627451   0 0 0 0 0.68627451  0 0 0 0.0870414402 0" type="matrix" in="shadowInnerInner1"></feColorMatrix>
        </filter>
    </defs>
    <g id="Page-1" stroke="none" stroke-width="1" fill="none" fill-rule="evenodd">
        <g id="website-layout-02" transform="translate(-690.000000, -1021.000000)">
            <g id="about" transform="translate(-1.000000, 812.000000)">
                <g id="2" transform="translate(691.000000, 207.000000)">
                    <g id="Group-2" transform="translate(0.000000, 2.000000)">
                        <mask id="mask-2" fill="white">
                            <use xlink:href="#path-1"></use>
                        </mask>
                        <g id="Oval-6" fill-rule="nonzero">
                            <use fill="#F0F0F9" xlink:href="#path-1"></use>
                            <use fill="black" fill-opacity="1" filter="url(#filter-3)" xlink:href="#path-1"></use>
                        </g>
                        <path d="M31.9621931,43.5894252 C30.1460586,43.5894252 29.2380022,42.6813689 29.2380022,40.8652344 C29.2380022,39.0490999 30.1460586,38.1410435 31.9621931,38.1410435 C33.7783276,38.1410435 34.6863839,39.0490999 34.6863839,40.8652344 C34.6863839,42.6813689 33.7783276,43.5894252 31.9621931,43.5894252 Z M40.1347656,43.5894252 C38.3186311,43.5894252 37.4105748,42.6813689 37.4105748,40.8652344 C37.4105748,39.0490999 38.3186311,38.1410435 40.1347656,38.1410435 C41.9509001,38.1410435 42.8589565,39.0490999 42.8589565,40.8652344 C42.8589565,42.6813689 41.9509001,43.5894252 40.1347656,43.5894252 Z M48.3073382,43.5894252 C46.4912037,43.5894252 45.5831473,42.6813689 45.5831473,40.8652344 C45.5831473,39.0490999 46.4912037,38.1410435 48.3073382,38.1410435 C50.1234727,38.1410435 51.031529,39.0490999 51.031529,40.8652344 C51.031529,42.6813689 50.1234727,43.5894252 48.3073382,43.5894252 Z M32.075701,55.5077602 C31.5459948,56.0374666 30.9027879,56.3023158 30.1460658,56.3023158 C29.3893437,56.3023158 28.7461369,56.0374666 28.2164307,55.5077602 L15.50354,42.7948696 C14.9738336,42.2651634 14.7089844,41.6219565 14.7089844,40.8652344 C14.7089844,40.1085123 14.9738336,39.4653054 15.50354,38.9355992 L28.2164307,26.2227086 C28.7461369,25.6930024 29.3893437,25.4281529 30.1460658,25.4281529 C30.9027879,25.4281529 31.5459948,25.6930024 32.075701,26.2227086 C32.6054072,26.7524148 32.8702567,27.3956216 32.8702567,28.1523438 C32.8702567,28.9090659 32.6054072,29.5522727 32.075701,30.0819789 L21.2924456,40.8652344 L32.075701,51.6484898 C32.6054072,52.178196 32.8702567,52.8214014 32.8702567,53.578125 C32.8702567,54.3348486 32.6054072,54.978054 32.075701,55.5077602 Z M52.0531006,55.5077602 C51.5233944,56.0374666 50.8801875,56.3023158 50.1234654,56.3023158 C49.3667433,56.3023158 48.7235364,56.0374666 48.1938302,55.5077602 C47.664124,54.978054 47.3992746,54.3348486 47.3992746,53.578125 C47.3992746,52.8214014 47.664124,52.178196 48.1938302,51.6484898 L58.9770857,40.8652344 L48.1938302,30.0819789 C47.664124,29.5522727 47.3992746,28.9090659 47.3992746,28.1523438 C47.3992746,27.3956216 47.664124,26.7524148 48.1938302,26.2227086 C48.7235364,25.6930024 49.3667433,25.4281529 50.1234654,25.4281529 C50.8801875,25.4281529 51.5233944,25.6930024 52.0531006,26.2227086 L64.7659912,38.9355992 C65.2956974,39.4653054 65.5605469,40.1085123 65.5605469,40.8652344 C65.5605469,41.6219565 65.2956974,42.2651634 64.7659912,42.7948696 L52.0531006,55.5077602 Z" id="Fill-1" fill="#3F9FDF" mask="url(#mask-2)"></path>
                    </g>
                </g>
            </g>
        </g>
    </g>
</svg>