<?xml version="1.0" encoding="UTF-8"?>
<svg width="81px" height="81px" viewBox="0 0 81 81" version="1.1" xmlns="http://www.w3.org/2000/svg" xmlns:xlink="http://www.w3.org/1999/xlink">
    <!-- Generator: Sketch 51.3 (57544) - http://www.bohemiancoding.com/sketch -->
    <title>Group 7</title>
    <desc>Created with Sketch.</desc>
    <defs>
        <linearGradient x1="50%" y1="0%" x2="50%" y2="100%" id="linearGradient-1">
            <stop stop-color="#F0F0FA" offset="0%"></stop>
            <stop stop-color="#FFFFFF" offset="100%"></stop>
        </linearGradient>
    </defs>
    <g id="Page-1" stroke="none" stroke-width="1" fill="none" fill-rule="evenodd">
        <g id="website-layout-02" transform="translate(-690.000000, -1194.000000)">
            <g id="about" transform="translate(-1.000000, 812.000000)">
                <g id="4" transform="translate(691.000000, 381.000000)">
                    <g id="Group-7" transform="translate(0.000000, 1.000000)">
                        <circle id="Oval-6" fill="#F0F0F9" fill-rule="nonzero" cx="40.1347656" cy="40.1347656" r="40.1347656"></circle>
                        <path d="M40.0351561,73.050781 C58.2141695,73.050781 72.9511716,58.3137789 72.9511716,40.1347655 C72.9511716,21.9557521 58.2141695,7.21875 40.0351561,7.21875 C21.8561427,7.21875 7.11914062,21.9557521 7.11914062,40.1347655 C7.11914062,58.3137789 21.8561427,73.050781 40.0351561,73.050781 Z" id="Oval-6" stroke="#505EAF" stroke-width="3" fill="url(#linearGradient-1)" fill-rule="nonzero" opacity="0.451339286" stroke-linecap="round" stroke-linejoin="round" stroke-dasharray="5,12"></path>
                        <path d="M47.6351823,25.4308444 C50.2665132,25.4308444 52.519902,26.3685892 54.3954292,28.2441164 C56.270951,30.1196382 57.2086958,32.373027 57.2086958,35.0043579 C57.2086958,36.7399143 56.9147748,38.4334574 56.3269221,40.0850356 C55.7390748,41.7366192 55.1652283,42.940294 54.6053719,43.6961031 C54.0455156,44.4519068 53.2617263,45.4736297 52.2539827,46.7613043 L51.7501135,47.3491516 C50.3504699,49.084708 46.6554672,52.1918714 40.6649927,56.6707305 C40.5530235,56.782702 40.3290799,56.8386869 39.9931672,56.8386869 C39.7132363,56.8386869 39.517289,56.782702 39.4053198,56.6707305 C33.4148453,52.1918714 29.7198426,49.084708 28.320199,47.3491516 L27.8163298,46.7613043 C26.8085867,45.4736297 26.024798,44.4519068 25.4649406,43.6961031 C24.9050831,42.940294 24.3312377,41.7366192 23.7433877,40.0850356 C23.1555374,38.4334574 22.8616167,36.7399143 22.8616167,35.0043579 C22.8616167,32.373027 23.7993637,30.1196382 25.674886,28.2441164 C27.5504084,26.3685892 29.8037993,25.4308444 32.4351302,25.4308444 C35.6263175,25.4308444 38.1456363,26.6625102 39.9931672,29.1258847 C41.8406981,26.6625102 44.3880078,25.4308444 47.6351823,25.4308444 Z" id="Fill-1" fill="#3F9FDF"></path>
                    </g>
                </g>
            </g>
        </g>
    </g>
</svg>