<svg xml:space="preserve" style="enable-background:new 0 0 242.697 242.697;" viewBox="0 0 242.697 242.697" height="242.697px" width="242.697px" y="0px" x="0px" xmlns:xlink="http://www.w3.org/1999/xlink" xmlns="http://www.w3.org/2000/svg" id="Layer_1" version="1.1">
<g style="opacity:0.12;enable-background:new    ;">
	<circle r="121.349" cy="121.349" cx="121.349" style="fill:#6E6E96;"></circle>
</g>
<circle r="7.5" cy="83.215" cx="8.785" style="fill:#77BD91;"></circle>
<circle r="8" cy="229.215" cx="230.785" style="fill:#ED8EDE;"></circle>
<circle r="5.906" cy="17.514" cx="226.084" style="fill:#FFBF00;"></circle>
<g>
	<g>
		<path d="M202.135,217.358c0,5.807-4.745,10.555-10.554,10.555H48.567c-5.805,0-10.554-4.748-10.554-10.555
			V45.953c0-5.806,4.749-10.555,10.554-10.555h143.014c5.809,0,10.554,4.75,10.554,10.555V217.358L202.135,217.358z" style="fill:#E6BA90;"></path>
		<path d="M191.581,229.413H48.567c-6.646,0-12.054-5.407-12.054-12.055V45.953
			c0-6.647,5.407-12.055,12.054-12.055h143.014c6.646,0,12.054,5.408,12.054,12.055v171.405
			C203.635,224.006,198.228,229.413,191.581,229.413z M48.567,36.898c-4.992,0-9.054,4.062-9.054,9.055v171.405
			c0,4.993,4.062,9.055,9.054,9.055h143.014c4.992,0,9.054-4.062,9.054-9.055V45.953c0-4.993-4.062-9.055-9.054-9.055H48.567z" style="fill:#6E6E96;"></path>
	</g>
	<g>
		<path d="M202.135,217.358c0,5.807-4.745,10.555-10.554,10.555H48.567c-5.805,0-10.554-4.748-10.554-10.555
			V45.953c0-5.806,4.749-10.555,10.554-10.555h143.014c5.809,0,10.554,4.75,10.554,10.555V217.358L202.135,217.358z" style="fill:#E6BA90;"></path>
		<path d="M191.581,229.413H48.567c-6.646,0-12.054-5.407-12.054-12.055V45.953
			c0-6.647,5.407-12.055,12.054-12.055h143.014c6.646,0,12.054,5.408,12.054,12.055v171.405
			C203.635,224.006,198.228,229.413,191.581,229.413z M48.567,36.898c-4.992,0-9.054,4.062-9.054,9.055v171.405
			c0,4.993,4.062,9.055,9.054,9.055h143.014c4.992,0,9.054-4.062,9.054-9.055V45.953c0-4.993-4.062-9.055-9.054-9.055H48.567z" style="fill:#6E6E96;"></path>
	</g>
</g>
<g style="opacity:0.15;enable-background:new    ;">
	<polygon points="142.362,211.688 59.912,211.688 59.912,45.015 180.485,45.015 180.485,173.565" style="fill:#6E6E96;"></polygon>
</g>
<g>
	<polygon points="142.362,202.071 59.912,202.071 59.912,35.398 180.485,35.398 180.485,163.949" style="fill:#FFFFFF;"></polygon>
	<path d="M142.362,203.571h-82.45c-0.829,0-1.5-0.672-1.5-1.5V35.398c0-0.829,0.671-1.5,1.5-1.5h120.573
		c0.828,0,1.5,0.671,1.5,1.5v128.551c0,0.397-0.158,0.779-0.439,1.061l-38.123,38.122
		C143.142,203.413,142.76,203.571,142.362,203.571z M61.412,200.571h80.329l37.244-37.243V36.898H61.412V200.571z" style="fill:#6E6E96;"></path>
</g>
<g>
	<polygon points="142.362,202.071 180.485,163.949 142.362,163.949" style="fill:#FFFFFF;"></polygon>
	<path d="M142.362,203.571c-0.193,0-0.389-0.037-0.574-0.114c-0.561-0.232-0.926-0.779-0.926-1.386v-38.122
		c0-0.828,0.672-1.5,1.5-1.5h38.123c0.606,0,1.153,0.365,1.386,0.926s0.104,1.206-0.325,1.635l-38.123,38.122
		C143.136,203.419,142.752,203.571,142.362,203.571z M143.862,165.449v33.001l33.002-33.001H143.862z" style="fill:#6E6E96;"></path>
</g>
<g>
	<path d="M134.343,28.306c-0.408-9.344-7.201-16.847-15.474-16.847c-8.271,0-15.064,7.503-15.477,16.847
		H87.396v18.616H153V28.306H134.343z" style="fill:#FFFFFF;"></path>
	<path d="M153,48.422H87.396c-0.829,0-1.5-0.671-1.5-1.5V28.306c0-0.829,0.671-1.5,1.5-1.5h14.608
		c1.049-9.556,8.227-16.847,16.865-16.847c8.642,0,15.818,7.291,16.862,16.847H153c0.828,0,1.5,0.671,1.5,1.5v18.616
		C154.5,47.75,153.828,48.422,153,48.422z M88.896,45.422H151.5V29.806h-17.157c-0.803,0-1.464-0.632-1.499-1.435
		c-0.377-8.643-6.516-15.413-13.975-15.413c-7.457,0-13.596,6.771-13.979,15.414c-0.036,0.802-0.696,1.434-1.499,1.434H88.896
		V45.422z" style="fill:#6E6E96;"></path>
</g>
<g>
	<rect height="3" width="59.931" style="fill:#6E6E96;" y="79.112" x="101.049"></rect>
	<rect height="3" width="9.989" style="fill:#6E6E96;" y="79.112" x="82.569"></rect>
</g>
<g>
	<rect height="3" width="23.583" style="fill:#6E6E96;" y="106.419" x="101.049"></rect>
	<rect height="3" width="9.989" style="fill:#6E6E96;" y="106.419" x="82.569"></rect>
</g>
<g>
	<rect height="3" width="46.634" style="fill:#6E6E96;" y="92.462" x="101.049"></rect>
	<rect height="3" width="9.989" style="fill:#6E6E96;" y="92.462" x="82.569"></rect>
</g>
<g style="opacity:0.15;enable-background:new    ;">
	<rect height="11.445" width="65.604" style="fill:#6E6E96;" y="40.876" x="87.396"></rect>
</g>
<g style="opacity:0.15;enable-background:new    ;">
	<path d="M191.081,217.913H48.067c-5.805,0-10.554-4.748-10.554-10.555v9c0,5.807,4.749,10.555,10.554,10.555
		h143.014c5.809,0,10.554-4.748,10.554-10.555v-9C201.635,213.165,196.888,217.913,191.081,217.913z" style="fill:#6E6E96;"></path>
</g>
<g style="opacity:0.15;enable-background:new    ;">
	<polygon points="58.293,192.571 58.293,202.071 140.744,202.071 178.866,163.949 178.866,154.449 
		140.744,192.571" style="fill:#6E6E96;"></polygon>
</g>
<g>
	<rect height="3" width="59.931" style="fill:#6E6E96;" y="118.999" x="101.049"></rect>
	<rect height="3" width="9.989" style="fill:#6E6E96;" y="118.999" x="82.569"></rect>
</g>
<g>
	<rect height="3" width="23.583" style="fill:#6E6E96;" y="146.305" x="101.049"></rect>
	<rect height="3" width="9.989" style="fill:#6E6E96;" y="146.305" x="82.569"></rect>
</g>
<g>
	<rect height="3" width="46.634" style="fill:#6E6E96;" y="132.349" x="101.049"></rect>
	<rect height="3" width="9.989" style="fill:#6E6E96;" y="132.349" x="82.569"></rect>
</g>
</svg>
