<?xml version="1.0" encoding="UTF-8"?>
<svg width="81px" height="81px" viewBox="0 0 81 81" version="1.1" xmlns="http://www.w3.org/2000/svg" xmlns:xlink="http://www.w3.org/1999/xlink">
    <!-- Generator: Sketch 51.3 (57544) - http://www.bohemiancoding.com/sketch -->
    <title>Group 6</title>
    <desc>Created with Sketch.</desc>
    <defs>
        <linearGradient x1="50%" y1="0%" x2="50%" y2="100%" id="linearGradient-1">
            <stop stop-color="#EFF5F8" offset="0%"></stop>
            <stop stop-color="#E6E6F8" offset="100%"></stop>
        </linearGradient>
        <circle id="path-2" cx="40.1347656" cy="40.8652344" r="40.1347656"></circle>
        <filter x="-5.6%" y="-5.6%" width="111.2%" height="111.2%" filterUnits="objectBoundingBox" id="filter-4">
            <feGaussianBlur stdDeviation="3.5" in="SourceAlpha" result="shadowBlurInner1"></feGaussianBlur>
            <feOffset dx="0" dy="2" in="shadowBlurInner1" result="shadowOffsetInner1"></feOffset>
            <feComposite in="shadowOffsetInner1" in2="SourceAlpha" operator="arithmetic" k2="-1" k3="1" result="shadowInnerInner1"></feComposite>
            <feColorMatrix values="0 0 0 0 0   0 0 0 0 0   0 0 0 0 0  0 0 0 0 0" type="matrix" in="shadowInnerInner1"></feColorMatrix>
        </filter>
    </defs>
    <g id="Page-1" stroke="none" stroke-width="1" fill="none" fill-rule="evenodd">
        <g id="website-layout-02" transform="translate(-127.000000, -1194.000000)">
            <g id="about" transform="translate(-1.000000, 812.000000)">
                <g id="3" transform="translate(128.000000, 381.000000)">
                    <g id="Group" transform="translate(0.000000, 1.000000)">
                        <g id="Group-6">
                            <mask id="mask-3" fill="white">
                                <use xlink:href="#path-2"></use>
                            </mask>
                            <g id="Oval-6" fill-rule="nonzero">
                                <use fill="url(#linearGradient-1)" xlink:href="#path-2"></use>
                                <use fill="black" fill-opacity="1" filter="url(#filter-4)" xlink:href="#path-2"></use>
                            </g>
                            <path d="M49.9376462,33.0419335 L56.4358776,33.0419335 L59.6849933,40.7748289 L61.5044981,41.5546166 L69.2373935,38.3055009 L73.9161201,42.9842275 L70.6670044,50.7171229 L71.4467921,52.5366277 L79.1796875,55.7857434 L79.1796875,62.2839748 L71.4467921,65.5330905 L70.6670044,67.3525953 L73.9161201,75.0854907 L69.2373935,79.7642173 L61.5044981,76.5151016 L59.6849933,77.2948893 L56.4358776,85.0277847 L49.9376462,85.0277847 L46.6885305,77.2948893 L44.8690257,76.5151016 L37.1361303,79.7642173 L32.4574037,75.0854907 L35.7065194,67.3525953 L34.9267317,65.5330905 L27.1938363,62.2839748 L27.1938363,55.7857434 L34.9267317,52.5366277 L35.7065194,50.7171229 L32.4574037,42.9842275 L37.1361303,38.3055009 L44.8690257,41.5546166 L46.6885305,40.7748289 L49.9376462,33.0419335 Z M60.0748872,52.1467338 C58.1687285,50.2405751 55.8727084,49.287512 53.1867619,49.287512 C50.5008154,49.287512 48.2047953,50.2405751 46.2986366,52.1467338 C44.3924779,54.0528925 43.4394148,56.3489126 43.4394148,59.0348591 C43.4394148,61.7208056 44.3924779,64.0168257 46.2986366,65.9229844 C48.2047953,67.8291431 50.5008154,68.7822062 53.1867619,68.7822062 C55.8727084,68.7822062 58.1687285,67.8291431 60.0748872,65.9229844 C61.9810459,64.0168257 62.934109,61.7208056 62.934109,59.0348591 C62.934109,56.3489126 61.9810459,54.0528925 60.0748872,52.1467338 Z" id="Fill-1" fill="#3F9FDF" mask="url(#mask-3)"></path>
                            <path d="M23.5839767,0.8046875 L28.7307379,0.8046875 L31.3041185,6.92933332 L32.7452116,7.54694466 L38.8698574,4.97356407 L42.5755255,8.67923213 L40.0021449,14.8038779 L40.6197562,16.2449711 L46.744402,18.8183517 L46.744402,23.9651129 L40.6197562,26.5384935 L40.0021449,27.9795866 L42.5755255,34.1042324 L38.8698574,37.8099005 L32.7452116,35.2365199 L31.3041185,35.8541312 L28.7307379,41.978777 L23.5839767,41.978777 L21.0105961,35.8541312 L19.5695029,35.2365199 L13.4448571,37.8099005 L9.73918907,34.1042324 L12.3125697,27.9795866 L11.6949583,26.5384935 L5.5703125,23.9651129 L5.5703125,18.8183517 L11.6949583,16.2449711 L12.3125697,14.8038779 L9.73918907,8.67923213 L13.4448571,4.97356407 L19.5695029,7.54694466 L21.0105961,6.92933332 L23.5839767,0.8046875 Z M31.6129241,15.9361654 C30.1031989,14.4264402 28.2846938,13.6715905 26.1573573,13.6715905 C24.0300207,13.6715905 22.2115156,14.4264402 20.7017904,15.9361654 C19.1920652,17.4458906 18.4372155,19.2643957 18.4372155,21.3917323 C18.4372155,23.5190688 19.1920652,25.3375739 20.7017904,26.8472991 C22.2115156,28.3570243 24.0300207,29.1118741 26.1573573,29.1118741 C28.2846938,29.1118741 30.1031989,28.3570243 31.6129241,26.8472991 C33.1226493,25.3375739 33.8774991,23.5190688 33.8774991,21.3917323 C33.8774991,19.2643957 33.1226493,17.4458906 31.6129241,15.9361654 Z" id="Fill-1" fill="#73CDF3" mask="url(#mask-3)"></path>
                        </g>
                    </g>
                </g>
            </g>
        </g>
    </g>
</svg>