<?xml version="1.0" encoding="utf-8"?>
<!-- Generator: Adobe Illustrator 23.0.0, SVG Export Plug-In . SVG Version: 6.00 Build 0)  -->
<svg version="1.1" id="图层_1" xmlns="http://www.w3.org/2000/svg" xmlns:xlink="http://www.w3.org/1999/xlink" x="0px" y="0px"
	 viewBox="0 0 657.85 226.61" style="enable-background:new 0 0 657.85 226.61;" xml:space="preserve">
<style type="text/css">
	.st0{fill:#FFFFFF;}
</style>
<g>
	<path class="st0" d="M272.26,71.81v-7.77h16.88v7.77H272.26z M272.26,100.66v-7.64h16.88v7.64H272.26z M272.26,133.07v-7.77h16.88
		v7.77H272.26z M292.66,95.37v-6.84h24.78v-4.49h-23.73v-6.84h23.73v-3.65h-23.73v-6.89h23.73v-3.78h7.64v3.78h23.6v6.89h-23.6v3.65
		h23.6v6.84h-23.6v4.49h24.78v6.84H292.66z M293.59,134.25v-26.83c0-5.99,2.74-8.99,8.23-8.99h37.46c6.44,0,9.66,2.39,9.66,7.18
		v18.43c0,4.51-1.02,7.45-3.07,8.82c-1.57,1.04-4.26,1.53-8.06,1.47h-3.65l0.04-5.84h4.07c2.02,0.03,3.02-0.73,3.02-2.27v-1.43
		h-40.06v9.45H293.59z M301.23,118.63h40.06v-3.49h-40.06V118.63z M301.27,108.84h40.02v-0.71c0-1.99-1.36-2.98-4.07-2.98h-31.45
		c-1.85,0-3.02,0.2-3.53,0.59c-0.64,0.48-0.97,1.16-0.97,2.06V108.84z"/>
	<path class="st0" d="M371.54,62.91h8.36c-0.56,1.54-1.33,3.86-2.31,6.97c-0.98,2.88-1.47,4.65-1.47,5.29
		c0,1.04,0.67,1.55,2.02,1.55l17.38,0.04c1.18,0,2.25-0.46,3.23-1.39c0.7-0.67,1.05-1.5,1.05-2.48c0-1.29-0.28-3.47-0.84-6.55h7.77
		c0.81,3.25,1.22,6.12,1.22,8.61c0,3.58-1.4,6.21-4.2,7.89c-1.9,1.12-4.35,1.68-7.35,1.68h-17.43c-4.03,0-6.82-0.57-8.36-1.72
		c-1.93-1.4-2.9-3.46-2.9-6.17c0-1.48,0.56-3.79,1.68-6.93C370.04,68,370.75,65.73,371.54,62.91z M368.39,134.33V97.04
		c0-5.63,2.79-8.44,8.36-8.44h21.54c6.05,0,9.07,2.77,9.07,8.31v28.72c0,5.88-2.66,8.79-7.98,8.73l-3.86-0.04v-7.73h1.68
		c1.34,0,2.11-0.63,2.31-1.89h-23.35v9.62H368.39z M376.16,102.8h23.47v-3.7c0-1.79-0.98-2.69-2.94-2.69l-17.13-0.04
		c-2.24,0-3.36,0.83-3.36,2.48L376.16,102.8z M376.16,116.95h23.47v-6.47h-23.47V116.95z M412.69,63.03h7.77v5.25h25.28v7.77h-25.28
		v10.5c0,0.78,0.17,1.36,0.5,1.72c0.36,0.39,1.2,0.59,2.52,0.59h22v7.77h-23.98c-3.28-0.03-5.56-0.71-6.84-2.06
		c-1.32-1.37-1.97-3.29-1.97-5.75V63.03z M413.19,100.4h7.77v5.21h24.69v7.77h-24.69v10.83c0,1.65,0.9,2.48,2.69,2.48h21.79v7.77
		h-23.73c-3.05,0-5.25-0.64-6.59-1.93c-1.26-1.23-1.89-3.36-1.89-6.38L413.19,100.4z"/>
	<path class="st0" d="M463.72,134.17v-7.64h62.44l1.39-13.56h-39.93l-6.68,0.08c-2.55,0-5-0.64-7.35-1.93
		c-3.47-1.9-5.21-5.39-5.21-10.46c0-2.52,0.27-5.46,0.8-8.82c1.54-9.99,2.49-17.05,2.86-21.16h-8.31v-7.64h77.35v7.64h-61.39
		l-1.55,13.19l44.55,0.04c9.41,0.03,14.11,4.21,14.11,12.56c0,0.39-0.03,0.88-0.08,1.47l-2.81,28.68l7.1-0.08l0.08,7.64H463.72z
		 M528.26,104.94l0.42-6.8c0.06-0.67,0.08-1.06,0.08-1.18c0-2.04-0.39-3.43-1.18-4.16c-0.76-0.7-2.37-1.05-4.83-1.05H477.2
		l-0.92,7.26c-0.06,0.53-0.08,1.05-0.08,1.55c0,3,1.88,4.49,5.63,4.49L528.26,104.94z"/>
	<path class="st0" d="M559.1,125.81v-7.73h3.19v-47.2h-3.19v-7.77h36.24v7.77h-3.28v47.2h3.28v7.73h-3.28v8.52h-7.77v-8.52H559.1z
		 M570.06,82.22h14.24V70.88h-14.24V82.22z M570.06,100.15h14.24V89.99h-14.24V100.15z M570.06,118.08h14.24v-10.16h-14.24V118.08z
		 M596.09,102.38v-7.77h16.54c0.03-0.95,0.06-1.67,0.08-2.14c0.14-2.6,0.21-3.97,0.21-4.12v-8.52h-16.84v-7.77h5.67v-9.2h7.77v9.2
		h14.78v-9.2h7.73v9.2h4.66v7.77h-16.25v8.27c0,2.94,0.14,5.11,0.42,6.51h15.83v7.77h-14.45c1.93,6.16,3.88,10.74,5.84,13.73
		c2.46,3.81,5.28,6.86,8.44,9.15v9.15c-4.65-2.88-8.44-6.13-11.38-9.74c-3.05-3.75-5.78-8.45-8.19-14.11
		c-2.41,6.44-5.12,11.46-8.15,15.08c-2.6,3.16-5.36,5.5-8.27,7.01c-1.09,0.56-2.58,1.12-4.45,1.68v-7.81
		c2.8-1.82,4.88-3.5,6.26-5.04c3.83-4.28,6.84-10.65,9.03-19.11H596.09z"/>
</g>
<g>
	<path class="st0" d="M145.51,56.67c-2.22,0-4.18,1.43-4.87,3.54l-12.18,37.52c-1,3.08,1.3,6.25,4.54,6.25h103.24
		c-1.53-17.24-7.08-33.32-15.7-47.31H145.51z"/>
	<path class="st0" d="M119.08,126.62l-11.48,35.37c-0.93,2.85,1.2,5.78,4.2,5.78h110.51c7.6-13.26,12.49-28.27,13.91-44.27H123.39
		C121.43,123.5,119.69,124.76,119.08,126.62z"/>
	<path class="st0" d="M205.49,37.47C185.74,17.38,158.26,4.9,127.86,4.9c-30.4,0-57.88,12.47-77.62,32.57H205.49z"/>
	<path class="st0" d="M99.39,187.28H88.58h-0.51v-0.03c-4.98-0.32-8.41-5.26-6.84-10.09l35.49-109.36
		c1.78-5.49-2.31-11.13-8.09-11.13H35.19C24.96,73.26,19.05,92.8,19.05,113.72c0,60.09,48.72,108.81,108.81,108.81
		c31.73,0,60.28-13.58,80.17-35.24H99.39z"/>
</g>
<g>
	<path class="st0" d="M272.37,144.76h21.4v3.78h-8.63v22.3h-4.24v-22.3h-8.53V144.76z"/>
	<path class="st0" d="M296.63,170.83v-3.23h10.46c1.03,0,1.54-0.4,1.54-1.2v-1.52c0-0.84-0.51-1.26-1.54-1.26h-5.86
		c-1.45,0-2.57-0.41-3.37-1.23c-0.82-0.84-1.23-1.79-1.23-2.84v-1.78c0-1.21,0.41-2.21,1.23-3.01c0.82-0.81,1.85-1.21,3.08-1.21
		h10.94v3.23h-10c-0.44,0-0.82,0.11-1.14,0.34c-0.31,0.23-0.47,0.51-0.47,0.84v1.32c0,0.24,0.11,0.47,0.34,0.68
		c0.31,0.29,0.81,0.43,1.5,0.43h5.62c1.42,0,2.55,0.43,3.37,1.28c0.77,0.81,1.16,1.67,1.16,2.58v2.38c0,1.25-0.4,2.26-1.21,3.03
		c-0.82,0.79-2,1.18-3.54,1.18H296.63z"/>
	<path class="st0" d="M315.65,144.73h4.24v26.11h-4.24V144.73z"/>
	<path class="st0" d="M323.33,170.83v-12.83c0-1.34,0.41-2.42,1.23-3.21c0.85-0.82,1.84-1.23,2.96-1.23h7.18
		c1.49,0,2.67,0.41,3.54,1.23c0.84,0.81,1.26,1.83,1.26,3.06v12.99h-3.64V158.5c0-0.64-0.11-1.08-0.34-1.32
		c-0.26-0.27-0.72-0.41-1.37-0.41h-5.01c-0.96,0-1.57,0.16-1.85,0.48c-0.22,0.25-0.32,0.67-0.32,1.25v12.32H323.33z"/>
	<path class="st0" d="M346.4,148.98h3.64v4.94h6.1v3.23h-6.1v8.77c0,0.71,0.18,1.18,0.53,1.42c0.31,0.23,0.99,0.34,2.05,0.34h3.35
		v3.23h-4.31c-1.46,0-2.5-0.17-3.13-0.51c-1.42-0.8-2.14-2.2-2.14-4.2v-9.04h-4v-3.23h4V148.98z"/>
	<path class="st0" d="M362.73,163.84v2.22c0,0.64,0.1,1.06,0.31,1.26c0.25,0.25,0.84,0.38,1.76,0.38h11.25v3.23h-12.19
		c-1.42,0-2.41-0.2-2.96-0.6c-1.21-0.88-1.81-2.06-1.81-3.56v-8.97c0-1.58,0.39-2.72,1.18-3.4c0.82-0.69,2.06-1.04,3.73-1.04h7.67
		c1.58,0,2.88,0.45,3.88,1.35c0.71,0.63,1.06,1.58,1.06,2.87v2.24c0,1.09-0.35,2.03-1.04,2.82c-0.7,0.8-1.66,1.2-2.91,1.2H362.73z
		 M362.73,160.61h8.42c1.21,0,1.81-0.54,1.81-1.62v-0.75c0-0.63-0.13-1.05-0.39-1.28c-0.29-0.24-0.73-0.36-1.33-0.36h-6.7
		c-0.63,0-1.01,0.03-1.16,0.1c-0.43,0.18-0.65,0.61-0.65,1.28V160.61z"/>
	<path class="st0" d="M379.61,171.06v-17.72h3.64v2.48c1.32-0.13,2.23-0.35,2.73-0.68c0.48-0.31,0.87-0.91,1.18-1.79h3.54
		c-0.49,1.64-1.29,2.99-2.39,4.03c-0.75,0.73-1.7,1.23-2.85,1.49c-0.44,0.09-1.18,0.21-2.21,0.34v11.86H379.61z"/>
	<path class="st0" d="M394.05,176.65v-3.23h11.48c0.68,0,1.16-0.15,1.44-0.44c0.23-0.24,0.34-0.65,0.34-1.23l-0.02-3.02h-9.25
		c-1.55,0-2.71-0.39-3.47-1.18c-0.76-0.77-1.15-1.82-1.15-3.14v-6.55c0-1.34,0.39-2.4,1.16-3.18c0.81-0.82,1.84-1.23,3.09-1.23h8.94
		c1.25,0,2.28,0.4,3.09,1.2c0.81,0.8,1.21,1.67,1.21,2.61v14.77c0,1.29-0.19,2.22-0.58,2.79c-0.84,1.23-2.06,1.85-3.66,1.85H394.05z
		 M398.61,165.49h6.65c0.84,0,1.39-0.14,1.64-0.43c0.26-0.3,0.39-0.63,0.39-0.99v-5.74c0-1.1-0.55-1.66-1.66-1.66h-6.75
		c-0.64,0-1.08,0.12-1.33,0.36c-0.32,0.31-0.48,0.77-0.48,1.4v5.14c0,0.73,0.11,1.22,0.34,1.47
		C397.7,165.35,398.1,165.49,398.61,165.49z"/>
	<path class="st0" d="M423.34,169.49h-1.08c-0.93,0-1.73-0.18-2.39-0.53c-0.95-0.5-1.58-1.28-1.9-2.32l-4.08-13.33h3.61l3.37,11.04
		c0.35,1.15,1.08,1.73,2.17,1.73c1.08,0,1.8-0.58,2.17-1.73l3.42-11.04h3.59l-5.91,18.61c-0.55,1.72-1.19,2.91-1.91,3.55
		c-0.9,0.8-2.14,1.2-3.73,1.2h-3.25v-3.23h2.19c0.87,0,1.53-0.15,1.98-0.46c0.49-0.33,0.89-0.96,1.21-1.88L423.34,169.49z"/>
	<path class="st0" d="M453.58,144.76h21.4v3.78h-8.63v22.3h-4.24v-22.3h-8.53V144.76z"/>
	<path class="st0" d="M481.51,163.84v2.22c0,0.64,0.1,1.06,0.31,1.26c0.25,0.25,0.84,0.38,1.76,0.38h11.25v3.23h-12.19
		c-1.42,0-2.41-0.2-2.96-0.6c-1.21-0.88-1.81-2.06-1.81-3.56v-8.97c0-1.58,0.39-2.72,1.18-3.4c0.82-0.69,2.06-1.04,3.73-1.04h7.67
		c1.58,0,2.88,0.45,3.88,1.35c0.71,0.63,1.06,1.58,1.06,2.87v2.24c0,1.09-0.35,2.03-1.04,2.82c-0.7,0.8-1.66,1.2-2.91,1.2H481.51z
		 M481.51,160.61h8.42c1.21,0,1.81-0.54,1.81-1.62v-0.75c0-0.63-0.13-1.05-0.39-1.28c-0.29-0.24-0.73-0.36-1.33-0.36h-6.7
		c-0.63,0-1.01,0.03-1.16,0.1c-0.43,0.18-0.65,0.61-0.65,1.28V160.61z"/>
	<path class="st0" d="M515.89,153.43v3.23h-11.6c-0.93,0-1.57,0.16-1.9,0.48c-0.23,0.22-0.34,0.6-0.34,1.15v6.56
		c0,1.31,0.07,2.07,0.21,2.27c0.28,0.43,0.84,0.65,1.66,0.65h11.98V171h-13.11c-1.32,0-2.39-0.4-3.2-1.2
		c-0.79-0.76-1.18-1.79-1.18-3.09v-9.3c0-1.08,0.39-2,1.18-2.77c0.84-0.81,1.86-1.21,3.06-1.21H515.89z"/>
	<path class="st0" d="M519,170.86v-26.03h3.64v8.66h9.6c1.38,0,2.46,0.41,3.23,1.23c0.76,0.81,1.14,1.81,1.14,3.01v13.13h-3.64
		v-12.39c0-0.62-0.12-1.04-0.36-1.26c-0.32-0.32-0.77-0.48-1.35-0.48h-7.09c-1.03,0-1.54,0.47-1.54,1.42v12.71H519z"/>
	<path class="st0" d="M539.71,170.83v-12.83c0-1.34,0.41-2.42,1.23-3.21c0.85-0.82,1.84-1.23,2.96-1.23h7.18
		c1.49,0,2.67,0.41,3.54,1.23c0.84,0.81,1.26,1.83,1.26,3.06v12.99h-3.64V158.5c0-0.64-0.11-1.08-0.34-1.32
		c-0.26-0.27-0.72-0.41-1.37-0.41h-5.01c-0.96,0-1.57,0.16-1.85,0.48c-0.22,0.25-0.32,0.67-0.32,1.25v12.32H539.71z"/>
	<path class="st0" d="M558.81,166.16v-8.53c0-1.13,0.43-2.1,1.3-2.92c0.8-0.75,1.99-1.13,3.57-1.13h6.39c1.6,0,2.8,0.38,3.62,1.13
		c0.88,0.81,1.32,1.78,1.32,2.92v8.53c0,1.41-0.46,2.58-1.37,3.49c-0.75,0.76-1.94,1.14-3.57,1.14h-6.39c-1.62,0-2.8-0.38-3.55-1.14
		C559.25,168.75,558.81,167.58,558.81,166.16z M562.45,158.78v6.92c0,1.24,0.56,1.86,1.69,1.86h5.54c1.13,0,1.69-0.62,1.69-1.86
		v-6.92c0-1.31-0.64-1.97-1.93-1.97h-5.08c-0.64,0-1.12,0.15-1.45,0.46C562.6,157.56,562.45,158.06,562.45,158.78z"/>
	<path class="st0" d="M578.61,144.71h3.64v26.08h-3.64V144.71z"/>
	<path class="st0" d="M585.84,166.16v-8.53c0-1.13,0.43-2.1,1.3-2.92c0.8-0.75,1.99-1.13,3.57-1.13h6.39c1.6,0,2.8,0.38,3.62,1.13
		c0.88,0.81,1.32,1.78,1.32,2.92v8.53c0,1.41-0.46,2.58-1.37,3.49c-0.75,0.76-1.94,1.14-3.57,1.14h-6.39c-1.62,0-2.8-0.38-3.55-1.14
		C586.28,168.75,585.84,167.58,585.84,166.16z M589.48,158.78v6.92c0,1.24,0.56,1.86,1.69,1.86h5.54c1.13,0,1.69-0.62,1.69-1.86
		v-6.92c0-1.31-0.64-1.97-1.93-1.97h-5.08c-0.64,0-1.12,0.15-1.45,0.46C589.63,157.56,589.48,158.06,589.48,158.78z"/>
	<path class="st0" d="M605.72,176.65v-3.23h11.48c0.68,0,1.16-0.15,1.44-0.44c0.23-0.24,0.34-0.65,0.34-1.23l-0.02-3.02h-9.25
		c-1.55,0-2.71-0.39-3.47-1.18c-0.76-0.77-1.15-1.82-1.15-3.14v-6.55c0-1.34,0.39-2.4,1.16-3.18c0.81-0.82,1.84-1.23,3.09-1.23h8.94
		c1.25,0,2.28,0.4,3.09,1.2c0.81,0.8,1.21,1.67,1.21,2.61v14.77c0,1.29-0.19,2.22-0.58,2.79c-0.84,1.23-2.06,1.85-3.66,1.85H605.72z
		 M610.29,165.49h6.65c0.84,0,1.39-0.14,1.64-0.43c0.26-0.3,0.39-0.63,0.39-0.99v-5.74c0-1.1-0.55-1.66-1.66-1.66h-6.75
		c-0.64,0-1.08,0.12-1.33,0.36c-0.32,0.31-0.48,0.77-0.48,1.4v5.14c0,0.73,0.11,1.22,0.34,1.47
		C609.38,165.35,609.77,165.49,610.29,165.49z"/>
	<path class="st0" d="M635.01,169.49h-1.08c-0.93,0-1.73-0.18-2.39-0.53c-0.95-0.5-1.58-1.28-1.9-2.32l-4.08-13.33h3.61l3.37,11.04
		c0.35,1.15,1.08,1.73,2.17,1.73c1.08,0,1.8-0.58,2.17-1.73l3.42-11.04h3.59l-5.91,18.61c-0.55,1.72-1.19,2.91-1.91,3.55
		c-0.9,0.8-2.14,1.2-3.73,1.2h-3.25v-3.23h2.19c0.87,0,1.53-0.15,1.98-0.46c0.49-0.33,0.89-0.96,1.21-1.88L635.01,169.49z"/>
</g>
</svg>
