<svg t="1618383321310" class="icon" viewBox="0 0 1024 1024" version="1.1" xmlns="http://www.w3.org/2000/svg" p-id="6034" width="200" height="200"><path d="M660 375.6v417.5h-70.4v-639c0-10.6-10-18.3-20.2-15.6L172 241.7c-7.1 1.8-12.1 8.3-12.1 15.6v590.1c0 8.9 7.2 16.1 16.1 16.1h673.5c8.9 0 16.1-7.2 16.1-16.1V412.6c0-7.6-5.3-14.2-12.8-15.8l-173.3-37c-10-2.1-19.5 5.5-19.5 15.8zM506 607.8c0 8.8-7.1 15.9-15.9 15.9H277.9c-8.8 0-15.9-7.1-15.9-15.9v-38.6c0-8.8 7.1-15.9 15.9-15.9h212.2c8.8 0 15.9 7.1 15.9 15.9v38.6z m0-195.1c0 8.8-7.1 15.9-15.9 15.9H277.9c-8.8 0-15.9-7.1-15.9-15.9v-38.6c0-8.8 7.1-15.9 15.9-15.9h212.2c8.8 0 15.9 7.1 15.9 15.9v38.6z" fill="#13227a" p-id="6035"></path></svg>