<svg t="1618382890073" class="icon" viewBox="0 0 1024 1024" version="1.1" xmlns="http://www.w3.org/2000/svg" p-id="2242" width="200" height="200"><path d="M246.272 477.866667a17.066667 17.066667 0 0 0 13.824-19.797334L256 437.077333a17.066667 17.066667 0 1 0-34.133333 5.973334l3.754666 21.162666a17.066667 17.066667 0 0 0 20.650667 13.653334zM189.952 531.797333l21.333333-3.754666A17.066667 17.066667 0 1 0 204.8 494.933333l-21.162667 3.754667a17.066667 17.066667 0 0 0 5.802667 34.133333zM241.493333 549.205333l3.754667 21.162667a17.066667 17.066667 0 0 0 19.626667 13.824 17.066667 17.066667 0 0 0 13.994666-19.626667l-3.754666-21.333333A17.066667 17.066667 0 0 0 256 529.066667a17.066667 17.066667 0 0 0-14.506667 20.138666zM296.277333 513.024l21.162667-3.754667a17.066667 17.066667 0 1 0-5.973333-34.133333l-21.333334 4.266667a17.066667 17.066667 0 1 0 5.973334 34.133333zM598.698667 425.130667l-21.162667 3.754666a17.066667 17.066667 0 0 0-14.336 19.626667 17.066667 17.066667 0 0 0 19.797333 13.994667l21.333334-3.754667a17.066667 17.066667 0 0 0 13.824-19.797333 17.066667 17.066667 0 0 0-19.456-13.824zM648.533333 460.8a17.066667 17.066667 0 0 0-13.824 19.626667l3.754667 21.333333a17.066667 17.066667 0 0 0 19.626667 13.824 17.066667 17.066667 0 0 0 14.165333-20.650667l-3.754667-21.162666A17.066667 17.066667 0 0 0 648.533333 460.8zM826.026667 327.68a17.066667 17.066667 0 0 0-22.869334 7.68 51.2 51.2 0 0 1-96.768-20.650667 17.066667 17.066667 0 0 0-17.066666-17.066666 17.066667 17.066667 0 0 0-17.066667 17.066666 85.333333 85.333333 0 0 0 161.450667 34.133334 17.066667 17.066667 0 0 0-7.68-21.162667zM699.733333 265.386667a22.528 22.528 0 0 0 26.965334-17.066667 22.869333 22.869333 0 0 0-17.066667-27.136A23.04 23.04 0 0 0 682.666667 238.933333a22.869333 22.869333 0 0 0 17.066666 26.453334zM838.485333 248.32a22.698667 22.698667 0 1 0 17.066667 26.965333 22.869333 22.869333 0 0 0-17.066667-26.965333z" fill="#13227a" p-id="2243"></path><path d="M933.546667 332.458667a176.298667 176.298667 0 0 0-339.968-91.989334 130.901333 130.901333 0 0 0-44.544 23.893334 51.2 51.2 0 0 0-18.261334 35.84l-3.242666 45.909333-3.072 4.437333-48.981334 8.704c25.6-36.181333 54.613333-93.013333 32.768-146.261333C475.989333 134.997333 358.4 136.533333 323.242667 139.264a273.066667 273.066667 0 0 0-81.749334 17.066667c-30.72 12.117333-52.565333 13.824-70.826666 5.290666a31.232 31.232 0 0 1-17.066667-26.453333 17.066667 17.066667 0 1 0-34.133333 2.730667 65.194667 65.194667 0 0 0 37.034666 55.466666 123.904 123.904 0 0 0 97.792-4.608 236.202667 236.202667 0 0 1 71.509334-15.36c60.928-4.266667 132.266667 7.338667 151.04 52.565334 23.04 56.149333-37.205333 125.781333-52.736 142.336l-89.429334 15.701333-4.437333-3.242667-18.773333-41.984a50.176 50.176 0 0 0-29.354667-27.306666 132.949333 132.949333 0 0 0-126.293333 22.357333 51.2 51.2 0 0 0-18.261334 35.669333l-3.242666 45.909334a145.92 145.92 0 0 0-29.866667 88.405333v16.384l-17.066667 263.68a113.322667 113.322667 0 0 0 93.525334 119.466667 113.493333 113.493333 0 0 0 128.512-79.872l38.058666-129.706667a39.253333 39.253333 0 0 0 4.437334 0A76.288 76.288 0 0 0 426.666667 621.226667l90.624-15.872a76.8 76.8 0 0 0 70.485333 46.592 74.24 74.24 0 0 0 30.208-6.314667l80.042667 108.714667a113.493333 113.493333 0 0 0 195.242666-112.810667L815.786667 463.189333a176.469333 176.469333 0 0 0 117.76-130.730666z m-368.64-29.866667a17.066667 17.066667 0 0 1 5.802666-11.776 84.138667 84.138667 0 0 1 14.677334-9.728 192.853333 192.853333 0 0 0 0 19.797333 141.312 141.312 0 0 0-20.650667 11.264z m-59.733334 85.333333a144.725333 144.725333 0 0 0 25.088 137.557334A75.605333 75.605333 0 0 0 512 571.733333l-90.624 15.872a76.629333 76.629333 0 0 0-32.256-36.352 144.896 144.896 0 0 0-23.722667-138.069333z m-333.653333-17.066666a17.066667 17.066667 0 0 1 5.802667-11.776 97.962667 97.962667 0 0 1 93.354666-17.066667 17.066667 17.066667 0 0 1 9.557334 9.045333l3.754666 8.533334A142.506667 142.506667 0 0 0 170.666667 381.269333z m79.189333 19.456a112.469333 112.469333 0 0 1 112.298667 112.469333 110.933333 110.933333 0 0 1-6.656 37.717333 48.64 48.64 0 0 0-4.949333 0 76.288 76.288 0 0 0-75.946667 72.192 116.906667 116.906667 0 0 1-24.746667 2.901334 112.469333 112.469333 0 0 1 0-224.768z m25.429334 422.058666A79.189333 79.189333 0 0 1 121.002667 785.066667l12.458666-195.072a145.92 145.92 0 0 0 117.248 59.221333 149.333333 149.333333 0 0 0 30.378667-3.413333A76.458667 76.458667 0 0 0 314.197333 682.666667z m75.264-153.6a42.325333 42.325333 0 1 1 42.325333-42.325333 42.325333 42.325333 0 0 1-42.325333 43.178667z m237.056-40.96A42.325333 42.325333 0 0 1 546.133333 575.658667a40.96 40.96 0 0 1 8.704-25.429334A145.92 145.92 0 0 0 630.101333 580.266667a41.984 41.984 0 0 1-41.642666 37.546666z m-56.661334-183.466666a112.469333 112.469333 0 0 1 57.685334-97.962667 176.469333 176.469333 0 0 0 134.826666 131.925333 187.733333 187.733333 0 0 0 25.6 3.413334 112.298667 112.298667 0 0 1-218.112-37.376z m330.922667 220.842666a79.36 79.36 0 0 1-136.533333 78.848l-80.213334-108.885333A75.605333 75.605333 0 0 0 664.405333 580.266667a146.261333 146.261333 0 0 0 119.466667-102.4z m-131.242667-220.16a142.336 142.336 0 1 1 168.618667-109.568 142.336 142.336 0 0 1-168.618667 109.568z" fill="#13227a" p-id="2244"></path></svg>