<svg t="1618383223042" class="icon" viewBox="0 0 1024 1024" version="1.1" xmlns="http://www.w3.org/2000/svg" p-id="5172" width="200" height="200"><path d="M 897.786 962 a 64.4047 64.4047 0 0 0 64.2141 -64.2141 V 408.154 a 64.4047 64.4047 0 0 0 -64.2141 -64.2141 H 749.291 v -52.1739 a 64.4047 64.4047 0 0 0 -64.2141 -64.2141 H 544.608 V 160.328 h 33.1103 a 32.107 32.107 0 0 0 32.107 32.107 h 62.5786 c 16.9164 0 31.4247 -12.8327 32.6488 -29.7091 A 32.107 32.107 0 0 0 673.037 128.221 h -29.097 a 32.107 32.107 0 0 0 -32.107 -32.107 h -67.2241 v -1.37458 c 0 -16.9164 -12.8327 -31.4247 -29.7091 -32.6488 A 32.107 32.107 0 0 0 480.395 94.108 v 133.446 H 338.923 a 64.4047 64.4047 0 0 0 -64.2141 64.2141 v 52.1739 H 126.214 a 64.4047 64.4047 0 0 0 -64.2141 64.2141 v 489.633 a 64.4047 64.4047 0 0 0 64.2141 64.2141 Z m -0.110369 -553.846 l 0.110369 0.110368 v 61.5953 H 749.291 V 408.154 h 148.385 Z M 239.592 844.609 h 63.2107 v 52.1739 h -63.2107 v -52.1739 Z m 63.2107 0 h -63.2107 V 672.174 c 0 -16.6253 12.592 -30.903 29.1672 -32.107 A 31.6455 31.6455 0 0 1 302.803 671.532 V 844.609 Z m 64.2141 0 h 50.1672 v 53.1772 h -50.1672 v -53.1772 Z m 114.381 53.1772 v -53.1772 h 63.2107 v 53.1772 h -63.2107 Z m 63.2107 -53.1772 h -63.2107 V 674.181 c 0 -16.6253 12.592 -30.903 29.1672 -32.107 A 31.6455 31.6455 0 0 1 544.608 673.539 V 844.609 Z m 64.2141 0 h 49.1639 v 53.1772 h -49.1639 v -53.1772 Z m 113.378 53.1772 v -53.1772 h 63.2107 v 53.1772 h -63.2107 Z m 0 -53.1772 V 675.184 c 0 -16.6253 12.592 -30.903 29.1672 -32.107 A 31.6455 31.6455 0 0 1 785.411 674.542 V 844.609 h -63.2107 Z m 31.6054 -265.886 a 95.8191 95.8191 0 0 0 -95.8191 95.8191 V 844.609 h -49.1639 V 673.539 a 95.8191 95.8191 0 0 0 -95.8191 -95.8191 a 95.8191 95.8191 0 0 0 -95.8191 95.8191 V 844.609 h -50.1672 V 672.705 c 0 -51.8328 -40.7057 -95.1872 -92.5084 -96.9328 A 95.8191 95.8191 0 0 0 175.378 671.532 V 844.609 H 126.214 V 534.073 h 771.572 V 844.609 h -48.1606 V 674.542 a 95.8191 95.8191 0 0 0 -95.8191 -95.8191 Z M 338.923 408.154 h 346.154 v 65.2174 H 338.923 v -65.2174 Z m 0 -116.277 l 0.110368 -0.110368 h 345.933 l 0.110368 0.110368 V 343.94 H 338.923 Z M 126.325 408.154 H 274.709 v 61.7057 H 126.214 v -61.5953 Z M 126.214 897.675 V 844.609 h 49.1639 v 53.1772 H 126.325 Z m 771.462 0.110369 H 849.626 v -53.1772 h 48.1606 v 53.0669 Z" p-id="5173" fill="#13227a"></path></svg>