<svg t="1618383079343" class="icon" viewBox="0 0 1024 1024" version="1.1" xmlns="http://www.w3.org/2000/svg" p-id="3237" width="128" height="128"><path d="M961.6 1020H62.4c-8.8 0-16-7.2-16-16v-170.4c0-8.8 7.2-16 16-16h900c8.8 0 16 7.2 16 16v170.4c-0.8 8.8-7.2 16-16.8 16z m-883.2-32h868v-138.4H78.4v138.4z" p-id="3238" fill="#13227a"></path><path d="M344.8 849.6H147.2c-8.8 0-16-7.2-16-16V293.6c0-8.8 7.2-16 16-16h197.6c8.8 0 16 7.2 16 16v540c0 8.8-7.2 16-16 16z m-181.6-32h165.6V309.6H163.2v508z" p-id="3239" fill="#13227a"></path><path d="M280.8 777.6c-4.8 0-8-3.2-8-8V365.6h-61.6c-4.8 0-8-3.2-8-8s3.2-8 8-8h69.6c4.8 0 8 3.2 8 8v412c0 4-3.2 8-8 8zM610.4 849.6H413.6c-8.8 0-16-7.2-16-16V165.6c0-8.8 7.2-16 16-16h197.6c8.8 0 16 7.2 16 16v667.2c-0.8 9.6-7.2 16.8-16.8 16.8z m-180.8-32h165.6V181.6H429.6v636z" p-id="3240" fill="#13227a"></path><path d="M546.4 777.6c-4.8 0-8-3.2-8-8V237.6h-61.6c-4.8 0-8-3.2-8-8s3.2-8 8-8h69.6c4.8 0 8 3.2 8 8v539.2c0 4.8-3.2 8.8-8 8.8zM876.8 849.6H679.2c-8.8 0-16-7.2-16-16V20c0-8.8 7.2-16 16-16h197.6c8.8 0 16 7.2 16 16v813.6c0 8.8-7.2 16-16 16z m-181.6-32h165.6V36H695.2v781.6z" p-id="3241" fill="#13227a"></path><path d="M812.8 777.6c-4.8 0-8-3.2-8-8V92h-61.6c-4.8 0-8-3.2-8-8s3.2-8 8-8h69.6c4.8 0 8 3.2 8 8v685.6c0 4-4 8-8 8z" p-id="3242" fill="#13227a"></path></svg>