<svg xmlns="http://www.w3.org/2000/svg" xmlns:xlink="http://www.w3.org/1999/xlink" width="576" height="462" viewBox="0 0 576 462" fill="none">
<g opacity="0.9">
<path d="M127.296 47.494C71.8207 66.7549 28.2047 112.413 21.7358 196.884C16.2817 268.067 30.8092 389.268 125.236 402.994C316.153 430.73 519.518 458.63 546.166 336.054C564.235 252.967 569.374 104.086 466.126 57.384C396.11 25.7099 246.169 6.22499 127.286 47.494L127.296 47.494Z"   fill="#FFFFFF" >
</path>
</g>
<path     fill="#E6E6E6"  d="M144 135.828L540.287 135.828L540.287 367.372C540.287 370.133 538.049 372.372 535.287 372.372L149 372.372C146.239 372.372 144 370.133 144 367.372L144 135.828Z">
</path>
<path     fill="#24285B"  d="M149 78.54L535.287 78.54C538.049 78.54 540.287 80.7786 540.287 83.54L540.287 138.838L144 138.838L144 83.54C144 80.7786 146.239 78.54 149 78.54Z">
</path>
<g >
<path     fill="#68E1FD"  d="M160.232 103.304L160.232 116.456L162.168 116.456L162.168 115.4L171.72 115.4L171.72 116.328L173.752 116.328L173.752 103.304L160.232 103.304ZM162.168 113.544L162.168 111.352C162.568 111.72 163.048 112.392 163.224 112.808C165.736 111.448 166.088 109.064 166.152 105.16L167.72 105.16L167.72 109.384C167.72 111.032 168.04 111.8 169.56 111.8C169.848 111.8 170.648 111.8 170.952 111.8C171.208 111.8 171.496 111.8 171.72 111.752L171.72 113.544L162.168 113.544ZM162.168 111.24L162.168 105.16L164.28 105.16C164.232 108.392 164.088 110.152 162.168 111.24ZM169.512 105.16L171.72 105.16L171.72 110.136C171.464 110.184 171.128 110.2 170.904 110.2C170.664 110.2 170.072 110.2 169.848 110.2C169.544 110.2 169.512 109.976 169.512 109.448L169.512 105.16ZM185.064 107.016L185.064 110.008L183.704 110.008L183.704 107.016L185.064 107.016ZM187 107.016L188.344 107.016L188.344 110.008L187 110.008L187 107.016ZM185.064 102.024L185.064 105.16L181.896 105.16L181.896 112.84L183.704 112.84L183.704 111.848L185.064 111.848L185.064 116.936L187 116.936L187 111.848L188.344 111.848L188.344 112.712L190.232 112.712L190.232 105.16L187 105.16L187 102.024L185.064 102.024ZM180.776 102.104C179.448 102.664 177.432 103.144 175.608 103.416C175.8 103.832 176.056 104.488 176.12 104.904C176.696 104.84 177.32 104.744 177.928 104.648L177.928 106.472L175.544 106.472L175.544 108.248L177.656 108.248C177.08 109.8 176.168 111.528 175.272 112.568C175.576 113.048 175.992 113.848 176.168 114.392C176.808 113.592 177.4 112.44 177.928 111.192L177.928 116.984L179.784 116.984L179.784 110.568C180.168 111.176 180.536 111.832 180.728 112.264L181.832 110.76C181.528 110.376 180.216 108.872 179.784 108.488L179.784 108.248L181.544 108.248L181.544 106.472L179.784 106.472L179.784 104.28C180.52 104.104 181.224 103.896 181.848 103.672L180.776 102.104ZM195.736 106.008C194.84 107.16 193.272 108.344 191.816 109.064C192.264 109.384 193 110.088 193.352 110.472C194.776 109.592 196.504 108.136 197.624 106.728L195.736 106.008ZM200.536 107C201.96 108.024 203.752 109.544 204.536 110.552L206.184 109.288C205.288 108.28 203.432 106.856 202.04 105.912L200.536 107ZM196.968 108.856L195.24 109.384C195.864 110.824 196.632 112.056 197.592 113.096C196.008 114.136 194.024 114.824 191.704 115.272C192.072 115.688 192.648 116.552 192.872 116.984C195.24 116.408 197.304 115.576 199 114.376C200.616 115.592 202.648 116.424 205.176 116.904C205.416 116.392 205.928 115.592 206.344 115.176C203.976 114.824 202.04 114.136 200.504 113.128C201.56 112.088 202.408 110.84 203.048 109.336L201.112 108.776C200.632 110.024 199.928 111.08 199.032 111.944C198.152 111.064 197.464 110.04 196.968 108.856ZM197.416 102.408C197.688 102.888 197.992 103.48 198.2 103.992L191.944 103.992L191.944 105.864L206.056 105.864L206.056 103.992L200.36 103.992L200.408 103.976C200.2 103.368 199.672 102.456 199.24 101.768L197.416 102.408ZM213.336 109.304C214.04 110.536 215 112.184 215.4 113.176L217.224 112.232C216.76 111.272 215.752 109.688 215.032 108.52L213.336 109.304ZM218.728 102.152L218.728 105.432L212.616 105.432L212.616 107.368L218.728 107.368L218.728 114.664C218.728 115.016 218.584 115.144 218.184 115.144C217.8 115.16 216.392 115.16 215.144 115.112C215.448 115.608 215.784 116.472 215.88 117.016C217.656 117.032 218.872 116.984 219.656 116.696C220.424 116.408 220.712 115.896 220.712 114.664L220.712 107.368L222.488 107.368L222.488 105.432L220.712 105.432L220.712 102.152L218.728 102.152ZM211.256 102.056C210.392 104.408 208.952 106.728 207.416 108.2C207.752 108.664 208.328 109.736 208.536 110.2C208.92 109.816 209.304 109.368 209.672 108.888L209.672 116.968L211.624 116.968L211.624 105.912C212.216 104.84 212.728 103.736 213.16 102.648L211.256 102.056ZM236.152 102.2C235.256 103.496 233.496 104.792 232.024 105.528C232.504 105.896 233.064 106.472 233.384 106.888C235.032 105.928 236.776 104.52 237.976 102.936L236.152 102.2ZM236.488 106.6C235.544 107.976 233.752 109.352 232.248 110.168C232.728 110.536 233.272 111.096 233.592 111.512C235.24 110.488 237.016 108.968 238.248 107.336L236.488 106.6ZM236.76 110.872C235.672 112.84 233.56 114.472 231.416 115.4C231.896 115.816 232.456 116.472 232.76 116.952C235.112 115.752 237.224 113.912 238.584 111.576L236.76 110.872ZM229 104.68L229 108.136L227.16 108.136L227.16 104.68L229 104.68ZM223.512 108.136L223.512 109.912L225.352 109.912C225.272 112.04 224.872 114.152 223.32 115.8C223.752 116.088 224.424 116.728 224.728 117.112C226.632 115.144 227.064 112.536 227.144 109.912L229 109.912L229 116.984L230.872 116.984L230.872 109.912L232.424 109.912L232.424 108.136L230.872 108.136L230.872 104.68L232.216 104.68L232.216 102.904L223.8 102.904L223.8 104.68L225.368 104.68L225.368 108.136L223.512 108.136ZM247.688 102.024C247.688 102.92 247.704 103.816 247.736 104.696L239.816 104.696L239.816 106.568L247.832 106.568C248.216 112.248 249.416 117 252.168 117C253.688 117 254.344 116.264 254.632 113.208C254.104 113 253.384 112.536 252.952 112.088C252.872 114.12 252.68 114.984 252.344 114.984C251.176 114.984 250.184 111.256 249.848 106.568L254.216 106.568L254.216 104.696L252.696 104.696L253.816 103.736C253.352 103.208 252.424 102.456 251.688 101.96L250.424 103.016C251.064 103.496 251.848 104.168 252.296 104.696L249.768 104.696C249.736 103.816 249.736 102.92 249.752 102.024L247.688 102.024ZM239.816 114.616L240.344 116.552C242.424 116.12 245.272 115.528 247.896 114.952L247.768 113.24L244.76 113.784L244.76 110.248L247.352 110.248L247.352 108.392L240.424 108.392L240.424 110.248L242.84 110.248L242.84 114.12C241.688 114.312 240.648 114.488 239.816 114.616Z">
</path>
</g>
<g opacity="0.8">
<rect  x="167.0400390625" y="155.23204040527344" width="351.3590850830078" height="38.80799865722656" rx="5"    fill="#000000" >
</rect>
</g>
<g >
<path     fill="#FFFFFF"  d="M195.828 169.72C195.612 171.556 195.156 173.32 194.352 174.412C194.664 174.592 195.264 175.012 195.504 175.228C195.96 174.568 196.332 173.704 196.632 172.72L199.104 172.72C198.972 173.476 198.816 174.232 198.684 174.76L199.836 175.036C200.112 174.16 200.412 172.816 200.64 171.616L199.68 171.388L199.464 171.436L196.944 171.436C197.052 170.944 197.136 170.428 197.208 169.912L195.828 169.72ZM196.74 173.812L196.74 174.376C196.74 175.9 196.536 178.288 194.208 180.04C194.544 180.256 195.048 180.712 195.276 181.012C196.416 180.124 197.1 179.08 197.508 178.048C198.012 179.332 198.744 180.352 199.824 180.988C200.016 180.616 200.46 180.064 200.772 179.776C199.296 179.068 198.468 177.46 198.06 175.6C198.096 175.168 198.108 174.772 198.108 174.412L198.108 173.812L196.74 173.812ZM189.996 176.2C190.104 176.092 190.572 176.02 190.992 176.02L192.132 176.02L192.132 177.304C191.064 177.448 190.068 177.58 189.312 177.664L189.612 179.116L192.132 178.708L192.132 180.964L193.416 180.964L193.416 178.492L194.796 178.252L194.724 176.944L193.416 177.124L193.416 176.02L194.604 176.02L194.616 174.724L193.416 174.724L193.416 173.056L192.132 173.056L192.132 174.724L191.316 174.724C191.628 174.016 191.94 173.224 192.228 172.384L194.724 172.384L194.724 171.028L192.66 171.028L192.924 170.02L191.532 169.744C191.448 170.176 191.352 170.608 191.244 171.028L189.48 171.028L189.48 172.384L190.848 172.384C190.596 173.164 190.368 173.788 190.248 174.04C190.008 174.568 189.816 174.892 189.552 174.976C189.708 175.312 189.924 175.936 189.996 176.2ZM204.792 175.54L204.792 176.944L208.044 176.944L208.044 180.988L209.496 180.988L209.496 176.944L212.592 176.944L212.592 175.54L209.496 175.54L209.496 173.464L212.016 173.464L212.016 172.048L209.496 172.048L209.496 169.876L208.044 169.876L208.044 172.048L207.06 172.048C207.18 171.592 207.3 171.136 207.396 170.668L206.004 170.392C205.74 171.856 205.236 173.392 204.588 174.34C204.936 174.484 205.548 174.82 205.836 175.024C206.1 174.592 206.352 174.052 206.58 173.464L208.044 173.464L208.044 175.54L204.792 175.54ZM203.904 169.768C203.304 171.484 202.284 173.2 201.216 174.28C201.468 174.64 201.864 175.42 201.996 175.78C202.236 175.516 202.476 175.228 202.716 174.916L202.716 180.976L204.084 180.976L204.084 172.78C204.54 171.94 204.948 171.064 205.272 170.2L203.904 169.768ZM216.456 169.66C215.796 171.256 214.596 172.792 213.3 173.728C213.636 173.968 214.224 174.532 214.476 174.808C214.74 174.592 215.004 174.34 215.268 174.064L215.268 178.624C215.268 180.316 215.904 180.748 218.124 180.748C218.628 180.748 221.52 180.748 222.072 180.748C223.92 180.748 224.412 180.268 224.652 178.564C224.244 178.492 223.62 178.276 223.272 178.06C223.14 179.2 222.972 179.404 221.964 179.404C221.28 179.404 218.712 179.404 218.136 179.404C216.876 179.404 216.684 179.296 216.684 178.612L216.684 177.388L220.368 177.388L220.368 173.512L215.772 173.512C216.012 173.236 216.24 172.948 216.456 172.648L222.204 172.648C222.12 175.372 222.024 176.404 221.832 176.656C221.724 176.8 221.616 176.848 221.448 176.836C221.244 176.848 220.884 176.836 220.464 176.8C220.68 177.16 220.824 177.748 220.848 178.156C221.4 178.18 221.916 178.168 222.24 178.108C222.6 178.036 222.864 177.928 223.116 177.556C223.452 177.1 223.572 175.672 223.68 171.892C223.692 171.712 223.692 171.292 223.692 171.292L217.332 171.292C217.548 170.908 217.752 170.512 217.932 170.104L216.456 169.66ZM216.684 174.784L218.964 174.784L218.964 176.116L216.684 176.116L216.684 174.784Z">
</path>
</g>
<g opacity="0.98">
<rect  x="241.919921875" y="160.77598571777344" width="266.11158752441406" height="28.643997192382812" rx="5"    fill="#FFFFFF" >
</rect>
</g>
<g >
<path     fill="#000000"  d="M247.04 171.728L247.04 172.628L251.672 172.628L251.672 181.868L252.62 181.868L252.62 175.508C254 176.252 255.608 177.248 256.448 177.92L257.084 177.104C256.124 176.372 254.216 175.292 252.788 174.596L252.62 174.788L252.62 172.628L257.732 172.628L257.732 171.728L247.04 171.728ZM267.212 171.512C267.764 171.98 268.4 172.64 268.676 173.084L269.36 172.604C269.06 172.16 268.412 171.524 267.86 171.092L267.212 171.512ZM268.448 174.908C268.136 176.048 267.692 177.152 267.128 178.148C266.9 177.092 266.744 175.784 266.648 174.284L269.792 174.284L269.792 173.552L266.612 173.552C266.576 172.7 266.564 171.8 266.576 170.852L265.688 170.852C265.688 171.776 265.712 172.688 265.748 173.552L262.796 173.552L262.796 172.52L264.92 172.52L264.92 171.8L262.796 171.8L262.796 170.828L261.932 170.828L261.932 171.8L259.64 171.8L259.64 172.52L261.932 172.52L261.932 173.552L259.028 173.552L259.028 174.284L265.784 174.284C265.904 176.192 266.132 177.884 266.492 179.18C265.904 180.02 265.232 180.74 264.464 181.292C264.68 181.448 264.944 181.712 265.1 181.904C265.736 181.412 266.312 180.812 266.828 180.152C267.272 181.184 267.872 181.784 268.652 181.784C269.492 181.784 269.792 181.232 269.936 179.432C269.72 179.348 269.408 179.168 269.228 178.964C269.156 180.368 269.036 180.908 268.736 180.908C268.22 180.908 267.776 180.32 267.44 179.288C268.22 178.052 268.82 176.636 269.252 175.148L268.448 174.908ZM259.16 179.816L259.256 180.656L262.376 180.332L262.376 181.832L263.216 181.832L263.216 180.248L265.4 180.02L265.4 179.276L263.216 179.48L263.216 178.352L265.124 178.352L265.124 177.572L263.216 177.572L263.216 176.6L262.376 176.6L262.376 177.572L260.708 177.572C260.972 177.176 261.224 176.72 261.476 176.228L265.376 176.228L265.376 175.484L261.836 175.484C261.98 175.172 262.112 174.86 262.232 174.548L261.344 174.308C261.224 174.704 261.068 175.112 260.912 175.484L259.208 175.484L259.208 176.228L260.576 176.228C260.372 176.636 260.204 176.948 260.108 177.092C259.916 177.416 259.736 177.656 259.556 177.692C259.664 177.92 259.784 178.34 259.832 178.52C259.94 178.424 260.3 178.352 260.804 178.352L262.376 178.352L262.376 179.552L259.16 179.816ZM277.568 170.888L277.568 172.172L274.232 172.172L274.232 173L277.568 173L277.568 174.176L274.58 174.176L274.58 177.5L277.508 177.5C277.424 178.16 277.244 178.784 276.86 179.348C276.224 178.904 275.708 178.364 275.336 177.74L274.58 177.992C275.024 178.76 275.612 179.408 276.32 179.948C275.768 180.452 274.952 180.872 273.788 181.172C273.98 181.364 274.232 181.712 274.34 181.916C275.588 181.544 276.452 181.04 277.064 180.452C278.276 181.184 279.788 181.664 281.504 181.904C281.624 181.64 281.852 181.292 282.044 181.088C280.316 180.896 278.804 180.476 277.592 179.816C278.072 179.108 278.288 178.328 278.384 177.5L281.528 177.5L281.528 174.176L278.444 174.176L278.444 173L281.924 173L281.924 172.172L278.444 172.172L278.444 170.888L277.568 170.888ZM275.42 174.932L277.568 174.932L277.568 176.192L277.556 176.732L275.42 176.732L275.42 174.932ZM278.444 174.932L280.664 174.932L280.664 176.732L278.432 176.732L278.444 176.192L278.444 174.932ZM273.716 170.816C273.008 172.64 271.844 174.416 270.632 175.568C270.788 175.784 271.04 176.252 271.136 176.456C271.592 176 272.036 175.472 272.456 174.884L272.456 181.928L273.32 181.928L273.32 173.576C273.788 172.772 274.22 171.932 274.556 171.08L273.716 170.816ZM284.216 171.68L284.216 176.036C284.216 177.728 284.096 179.852 282.764 181.352C282.968 181.46 283.328 181.76 283.46 181.94C284.384 180.92 284.792 179.54 284.972 178.196L287.984 178.196L287.984 181.772L288.896 181.772L288.896 178.196L292.136 178.196L292.136 180.656C292.136 180.872 292.052 180.944 291.812 180.956C291.584 180.968 290.768 180.98 289.928 180.944C290.048 181.184 290.192 181.58 290.24 181.808C291.368 181.82 292.064 181.808 292.472 181.664C292.88 181.52 293.024 181.244 293.024 180.656L293.024 171.68L284.216 171.68ZM285.104 172.544L287.984 172.544L287.984 174.476L285.104 174.476L285.104 172.544ZM292.136 172.544L292.136 174.476L288.896 174.476L288.896 172.544L292.136 172.544ZM285.104 175.328L287.984 175.328L287.984 177.344L285.056 177.344C285.092 176.888 285.104 176.444 285.104 176.036L285.104 175.328ZM292.136 175.328L292.136 177.344L288.896 177.344L288.896 175.328L292.136 175.328Z">
</path>
</g>
<g opacity="0.8">
<rect  x="167.0400390625" y="202.35598754882812" width="351.3590850830078" height="38.80799865722656" rx="5"    fill="#000000" >
</rect>
</g>
<g >
<path     fill="#FFFFFF"  d="M186.164 226.92L188.696 226.92C191.324 226.92 192.992 225.432 192.992 222.432C192.992 219.444 191.324 218.028 188.6 218.028L186.164 218.028L186.164 226.92ZM187.94 225.48L187.94 219.456L188.48 219.456C190.148 219.456 191.18 220.272 191.18 222.432C191.18 224.592 190.148 225.48 188.48 225.48L187.94 225.48ZM197.396 227.088C199.076 227.088 200.624 225.792 200.624 223.56C200.624 221.328 199.076 220.032 197.396 220.032C195.704 220.032 194.168 221.328 194.168 223.56C194.168 225.792 195.704 227.088 197.396 227.088ZM197.396 225.648C196.472 225.648 195.968 224.832 195.968 223.56C195.968 222.3 196.472 221.472 197.396 221.472C198.308 221.472 198.824 222.3 198.824 223.56C198.824 224.832 198.308 225.648 197.396 225.648ZM204.956 227.088C205.7 227.088 206.516 226.836 207.152 226.272L206.456 225.108C206.084 225.42 205.64 225.648 205.148 225.648C204.176 225.648 203.48 224.832 203.48 223.56C203.48 222.3 204.176 221.472 205.208 221.472C205.58 221.472 205.892 221.628 206.228 221.904L207.068 220.788C206.576 220.344 205.94 220.032 205.112 220.032C203.288 220.032 201.68 221.328 201.68 223.56C201.68 225.792 203.108 227.088 204.956 227.088ZM208.424 226.92L210.164 226.92L210.164 225.216L211.1 224.124L212.732 226.92L214.652 226.92L212.132 222.972L214.436 220.2L212.504 220.2L210.212 223.08L210.164 223.08L210.164 217.344L208.424 217.344L208.424 226.92ZM218.6 227.088C219.428 227.088 220.28 226.8 220.94 226.344L220.34 225.264C219.848 225.564 219.38 225.72 218.84 225.72C217.832 225.72 217.112 225.156 216.968 224.064L221.108 224.064C221.156 223.896 221.192 223.572 221.192 223.248C221.192 221.376 220.232 220.032 218.384 220.032C216.788 220.032 215.252 221.388 215.252 223.56C215.252 225.78 216.716 227.088 218.6 227.088ZM216.932 222.876C217.076 221.904 217.7 221.4 218.408 221.4C219.284 221.4 219.68 221.976 219.68 222.876L216.932 222.876ZM222.644 226.92L224.408 226.92L224.408 222.912C224.792 221.94 225.416 221.592 225.932 221.592C226.22 221.592 226.412 221.628 226.652 221.7L226.94 220.176C226.748 220.092 226.532 220.032 226.16 220.032C225.464 220.032 224.744 220.512 224.252 221.388L224.216 221.388L224.084 220.2L222.644 220.2L222.644 226.92Z">
</path>
</g>
<g opacity="0.98">
<rect  x="241.919921875" y="207.89999389648438" width="266.11158752441406" height="28.643997192382812" rx="5"    fill="#FFFFFF" >
</rect>
</g>
<g >
<path     fill="#000000"  d="M248.652 223.676L251.508 223.676L251.508 224.972L248.652 224.972L248.652 223.676ZM252.432 223.676L255.42 223.676L255.42 224.972L252.432 224.972L252.432 223.676ZM248.652 221.684L251.508 221.684L251.508 222.956L248.652 222.956L248.652 221.684ZM252.432 221.684L255.42 221.684L255.42 222.956L252.432 222.956L252.432 221.684ZM254.508 218.888C254.232 219.5 253.74 220.34 253.308 220.916L250.392 220.916L250.884 220.676C250.644 220.172 250.08 219.428 249.588 218.888L248.832 219.248C249.264 219.752 249.732 220.436 249.996 220.916L247.776 220.916L247.776 225.74L251.508 225.74L251.508 226.88L246.648 226.88L246.648 227.72L251.508 227.72L251.508 229.868L252.432 229.868L252.432 227.72L257.388 227.72L257.388 226.88L252.432 226.88L252.432 225.74L256.332 225.74L256.332 220.916L254.316 220.916C254.7 220.412 255.12 219.788 255.48 219.212L254.508 218.888ZM263.52 222.368L263.52 229.868L264.456 229.868L264.456 222.368L263.52 222.368ZM264.072 218.828C262.872 220.832 260.688 222.584 258.42 223.568C258.672 223.784 258.936 224.132 259.092 224.396C260.94 223.496 262.716 222.104 264.012 220.448C265.608 222.32 267.192 223.472 268.968 224.408C269.112 224.12 269.388 223.784 269.628 223.592C267.78 222.692 266.076 221.564 264.54 219.728L264.876 219.2L264.072 218.828ZM271.296 219.284L271.296 223.592C271.296 225.368 271.224 227.78 270.408 229.472C270.624 229.544 270.984 229.748 271.14 229.892C271.692 228.752 271.932 227.24 272.04 225.812L273.948 225.812L273.948 228.788C273.948 228.968 273.876 229.016 273.72 229.016C273.564 229.028 273.06 229.028 272.508 229.016C272.628 229.256 272.736 229.652 272.76 229.88C273.576 229.88 274.056 229.868 274.368 229.712C274.68 229.568 274.788 229.292 274.788 228.8L274.788 219.284L271.296 219.284ZM272.112 220.124L273.948 220.124L273.948 222.092L272.112 222.092L272.112 220.124ZM272.112 222.932L273.948 222.932L273.948 224.96L272.088 224.96C272.1 224.48 272.112 224.012 272.112 223.592L272.112 222.932ZM280.296 224.228C280.032 225.236 279.612 226.148 279.096 226.928C278.532 226.124 278.1 225.212 277.776 224.228L280.296 224.228ZM275.844 219.32L275.844 229.88L276.696 229.88L276.696 224.228L276.996 224.228C277.38 225.476 277.908 226.628 278.592 227.6C278.04 228.272 277.404 228.788 276.744 229.148C276.936 229.304 277.176 229.604 277.272 229.808C277.932 229.424 278.556 228.908 279.108 228.272C279.672 228.944 280.32 229.496 281.052 229.892C281.196 229.676 281.448 229.364 281.64 229.196C280.884 228.836 280.212 228.284 279.624 227.612C280.38 226.544 280.968 225.188 281.292 223.556L280.764 223.364L280.608 223.4L276.696 223.4L276.696 220.16L280.068 220.16L280.068 221.636C280.068 221.78 280.032 221.816 279.84 221.828C279.648 221.84 279.012 221.84 278.28 221.816C278.4 222.032 278.532 222.344 278.568 222.584C279.48 222.584 280.092 222.584 280.464 222.464C280.848 222.332 280.944 222.092 280.944 221.648L280.944 219.32L275.844 219.32ZM287.352 224.348C287.304 224.78 287.22 225.176 287.124 225.536L283.512 225.536L283.512 226.328L286.848 226.328C286.152 227.876 284.82 228.68 282.684 229.088C282.84 229.268 283.092 229.664 283.176 229.856C285.552 229.292 287.04 228.284 287.808 226.328L291.456 226.328C291.252 227.912 291.012 228.644 290.736 228.872C290.604 228.98 290.46 228.992 290.208 228.992C289.92 228.992 289.14 228.98 288.384 228.908C288.54 229.136 288.648 229.472 288.672 229.712C289.392 229.748 290.1 229.76 290.472 229.748C290.904 229.724 291.18 229.652 291.444 229.412C291.864 229.04 292.128 228.128 292.392 225.944C292.416 225.812 292.44 225.536 292.44 225.536L288.06 225.536C288.156 225.188 288.228 224.816 288.288 224.42L287.352 224.348ZM290.94 220.844C290.232 221.564 289.248 222.14 288.108 222.596C287.16 222.188 286.404 221.672 285.888 221.012L286.056 220.844L290.94 220.844ZM286.584 218.828C285.96 219.872 284.772 221.108 283.08 221.972C283.272 222.116 283.524 222.44 283.644 222.644C284.256 222.308 284.808 221.924 285.3 221.528C285.78 222.092 286.38 222.572 287.088 222.956C285.66 223.412 284.076 223.7 282.552 223.844C282.696 224.048 282.852 224.408 282.912 224.636C284.664 224.42 286.476 224.048 288.096 223.436C289.488 224 291.168 224.336 293.028 224.492C293.136 224.24 293.34 223.88 293.532 223.676C291.924 223.592 290.424 223.364 289.164 222.98C290.496 222.332 291.624 221.492 292.344 220.4L291.804 220.028L291.648 220.076L286.764 220.076C287.052 219.728 287.304 219.368 287.52 219.008L286.584 218.828ZM298.968 219.044C299.16 219.404 299.364 219.848 299.532 220.22L295.116 220.22L295.116 222.656L296.016 222.656L296.016 221.072L303.948 221.072L303.948 222.656L304.896 222.656L304.896 220.22L300.588 220.22C300.408 219.824 300.12 219.248 299.892 218.816L298.968 219.044ZM301.872 224.384C301.5 225.356 300.972 226.136 300.288 226.784C299.424 226.436 298.548 226.124 297.72 225.848C298.02 225.416 298.344 224.912 298.668 224.384L301.872 224.384ZM297.588 224.384C297.156 225.08 296.7 225.728 296.316 226.244C297.312 226.58 298.404 226.976 299.472 227.42C298.308 228.2 296.808 228.704 294.984 229.028C295.176 229.22 295.452 229.628 295.56 229.844C297.516 229.424 299.148 228.8 300.432 227.828C301.944 228.488 303.336 229.196 304.224 229.796L304.968 229.016C304.044 228.428 302.676 227.768 301.188 227.144C301.92 226.412 302.484 225.5 302.904 224.384L305.22 224.384L305.22 223.532L299.16 223.532C299.484 222.932 299.784 222.332 300.024 221.768L299.052 221.576C298.812 222.188 298.464 222.86 298.092 223.532L294.828 223.532L294.828 224.384L297.588 224.384ZM306.816 220.016C307.356 220.388 307.992 220.94 308.28 221.312L308.856 220.736C308.556 220.364 307.896 219.848 307.368 219.5L306.816 220.016ZM311.268 224.42C311.412 224.66 311.556 224.948 311.664 225.212L306.624 225.212L306.624 225.956L310.8 225.956C309.684 226.748 307.992 227.396 306.444 227.696C306.612 227.864 306.84 228.164 306.96 228.368C307.668 228.2 308.412 227.96 309.12 227.66L309.12 228.452C309.12 228.944 308.724 229.136 308.496 229.208C308.604 229.388 308.748 229.736 308.796 229.94C309.048 229.796 309.468 229.688 312.9 228.92C312.888 228.752 312.9 228.404 312.936 228.2L309.996 228.8L309.996 227.252C310.74 226.88 311.412 226.436 311.928 225.956C312.888 227.912 314.64 229.232 317.016 229.808C317.112 229.568 317.352 229.232 317.532 229.064C316.404 228.836 315.396 228.428 314.58 227.852C315.288 227.528 316.116 227.084 316.728 226.652L316.068 226.16C315.564 226.556 314.724 227.06 314.016 227.42C313.524 227 313.116 226.508 312.804 225.956L317.388 225.956L317.388 225.212L312.684 225.212C312.552 224.876 312.336 224.48 312.132 224.168L311.268 224.42ZM313.488 218.84L313.488 220.496L310.632 220.496L310.632 221.288L313.488 221.288L313.488 223.196L310.992 223.196L310.992 223.988L316.992 223.988L316.992 223.196L314.388 223.196L314.388 221.288L317.22 221.288L317.22 220.496L314.388 220.496L314.388 218.84L313.488 218.84ZM306.444 223.1L306.756 223.856L309.264 222.692L309.264 224.492L310.104 224.492L310.104 218.84L309.264 218.84L309.264 221.864C308.208 222.332 307.164 222.812 306.444 223.1Z">
</path>
</g>
<g opacity="0.8">
<rect  x="167.0400390625" y="250.404052734375" width="351.3590850830078" height="38.8079833984375" rx="5"    fill="#000000" >
</rect>
</g>
<g >
<path     fill="#FFFFFF"  d="M191.39 273.92L193.166 273.92L193.166 270.08L196.526 270.08L196.526 273.92L198.29 273.92L198.29 265.028L196.526 265.028L196.526 268.544L193.166 268.544L193.166 265.028L191.39 265.028L191.39 273.92ZM203.258 274.088C204.086 274.088 204.938 273.8 205.598 273.344L204.998 272.264C204.506 272.564 204.038 272.72 203.498 272.72C202.49 272.72 201.77 272.156 201.626 271.064L205.766 271.064C205.814 270.896 205.85 270.572 205.85 270.248C205.85 268.376 204.89 267.032 203.042 267.032C201.446 267.032 199.91 268.388 199.91 270.56C199.91 272.78 201.374 274.088 203.258 274.088ZM201.59 269.876C201.734 268.904 202.358 268.4 203.066 268.4C203.942 268.4 204.338 268.976 204.338 269.876L201.59 269.876ZM208.97 274.088C209.378 274.088 209.666 274.016 209.87 273.932L209.654 272.624C209.534 272.648 209.486 272.648 209.414 272.648C209.246 272.648 209.066 272.516 209.066 272.108L209.066 264.344L207.302 264.344L207.302 272.036C207.302 273.284 207.734 274.088 208.97 274.088ZM211.082 273.92L212.846 273.92L212.846 269.3C213.314 268.784 213.746 268.544 214.13 268.544C214.778 268.544 215.078 268.904 215.078 269.948L215.078 273.92L216.83 273.92L216.83 269.3C217.31 268.784 217.742 268.544 218.126 268.544C218.762 268.544 219.062 268.904 219.062 269.948L219.062 273.92L220.814 273.92L220.814 269.732C220.814 268.04 220.166 267.032 218.738 267.032C217.874 267.032 217.214 267.56 216.59 268.208C216.278 267.464 215.714 267.032 214.754 267.032C213.878 267.032 213.254 267.512 212.69 268.1L212.654 268.1L212.522 267.2L211.082 267.2L211.082 273.92Z">
</path>
</g>
<g opacity="0.98">
<rect  x="241.919921875" y="255.9480743408203" width="266.11158752441406" height="28.643997192382812" rx="5"    fill="#FFFFFF" >
</rect>
</g>
<g >
<path     fill="#000000"  d="M250.212 275.92L251.316 275.92L251.316 273.136L252.828 271.336L255.468 275.92L256.704 275.92L253.524 270.46L256.284 267.124L255.024 267.124L251.34 271.54L251.316 271.54L251.316 267.124L250.212 267.124L250.212 275.92ZM260.112 276.076C261.756 276.076 262.86 275.08 262.86 273.808C262.86 272.596 262.152 271.936 261.384 271.492L261.384 271.432C261.9 271.024 262.548 270.232 262.548 269.308C262.548 267.952 261.636 266.992 260.136 266.992C258.768 266.992 257.724 267.892 257.724 269.224C257.724 270.148 258.276 270.808 258.912 271.252L258.912 271.3C258.108 271.732 257.304 272.56 257.304 273.736C257.304 275.092 258.48 276.076 260.112 276.076ZM260.712 271.144C259.668 270.736 258.72 270.268 258.72 269.224C258.72 268.372 259.308 267.808 260.124 267.808C261.06 267.808 261.612 268.492 261.612 269.368C261.612 270.016 261.3 270.616 260.712 271.144ZM260.124 275.26C259.068 275.26 258.276 274.576 258.276 273.64C258.276 272.8 258.78 272.104 259.488 271.648C260.736 272.152 261.816 272.584 261.816 273.772C261.816 274.648 261.144 275.26 260.124 275.26ZM266.22 276.076C267.756 276.076 268.584 275.2 268.584 274.144C268.584 272.908 267.552 272.524 266.604 272.164C265.872 271.888 265.2 271.648 265.2 271.036C265.2 270.52 265.584 270.088 266.412 270.088C266.988 270.088 267.444 270.34 267.888 270.664L268.416 269.98C267.924 269.572 267.204 269.236 266.4 269.236C264.972 269.236 264.156 270.052 264.156 271.084C264.156 272.2 265.14 272.632 266.052 272.968C266.772 273.232 267.54 273.544 267.54 274.204C267.54 274.768 267.12 275.224 266.256 275.224C265.476 275.224 264.9 274.912 264.324 274.444L263.796 275.176C264.408 275.692 265.296 276.076 266.22 276.076ZM282.436 266.056C282.148 266.56 281.632 267.292 281.224 267.76L281.956 268.036C282.388 267.604 282.928 266.968 283.372 266.356L282.436 266.056ZM275.656 266.452C276.16 266.944 276.7 267.652 276.928 268.12L277.732 267.724C277.492 267.256 276.928 266.572 276.412 266.104L275.656 266.452ZM279.004 265.852L279.004 268.18L274.348 268.18L274.348 269.008L278.284 269.008C277.3 270.016 275.704 270.856 274.12 271.228C274.312 271.408 274.564 271.744 274.696 271.972C276.328 271.492 277.948 270.544 279.004 269.356L279.004 271.372L279.904 271.372L279.904 269.572C281.428 270.328 283.228 271.312 284.188 271.936L284.632 271.192C283.672 270.616 281.956 269.728 280.468 269.008L284.68 269.008L284.68 268.18L279.904 268.18L279.904 265.852L279.004 265.852ZM279.04 271.636C278.98 272.104 278.908 272.536 278.8 272.932L274.288 272.932L274.288 273.772L278.476 273.772C277.876 274.9 276.664 275.644 274.036 276.052C274.204 276.256 274.432 276.64 274.504 276.88C277.492 276.352 278.824 275.356 279.46 273.856C280.396 275.548 282.052 276.508 284.476 276.88C284.584 276.628 284.836 276.244 285.04 276.04C282.856 275.788 281.248 275.032 280.372 273.772L284.716 273.772L284.716 272.932L279.76 272.932C279.856 272.524 279.928 272.092 279.988 271.636L279.04 271.636ZM293.104 266.524L293.104 270.544L293.932 270.544L293.932 266.524L293.104 266.524ZM295.348 265.912L295.348 271.276C295.348 271.432 295.3 271.48 295.108 271.492C294.928 271.504 294.328 271.504 293.644 271.48C293.776 271.72 293.896 272.068 293.944 272.308C294.796 272.308 295.384 272.296 295.744 272.152C296.104 272.02 296.2 271.792 296.2 271.288L296.2 265.912L295.348 265.912ZM290.14 267.124L290.14 268.78L288.652 268.78L288.652 268.708L288.652 267.124L290.14 267.124ZM286.288 268.78L286.288 269.584L287.752 269.584C287.62 270.388 287.224 271.204 286.192 271.84C286.36 271.96 286.66 272.296 286.78 272.464C288.004 271.708 288.46 270.628 288.592 269.584L290.14 269.584L290.14 272.164L290.992 272.164L290.992 269.584L292.36 269.584L292.36 268.78L290.992 268.78L290.992 267.124L292.108 267.124L292.108 266.332L286.684 266.332L286.684 267.124L287.824 267.124L287.824 268.696L287.824 268.78L286.288 268.78ZM291.088 271.936L291.088 273.268L287.296 273.268L287.296 274.096L291.088 274.096L291.088 275.62L286.048 275.62L286.048 276.46L296.908 276.46L296.908 275.62L292.012 275.62L292.012 274.096L295.66 274.096L295.66 273.268L292.012 273.268L292.012 271.936L291.088 271.936ZM298.78 266.284L298.78 270.592C298.78 272.368 298.708 274.78 297.892 276.472C298.108 276.544 298.468 276.748 298.624 276.892C299.176 275.752 299.416 274.24 299.524 272.812L301.432 272.812L301.432 275.788C301.432 275.968 301.36 276.016 301.204 276.016C301.048 276.028 300.544 276.028 299.992 276.016C300.112 276.256 300.22 276.652 300.244 276.88C301.06 276.88 301.54 276.868 301.852 276.712C302.164 276.568 302.272 276.292 302.272 275.8L302.272 266.284L298.78 266.284ZM299.596 267.124L301.432 267.124L301.432 269.092L299.596 269.092L299.596 267.124ZM299.596 269.932L301.432 269.932L301.432 271.96L299.572 271.96C299.584 271.48 299.596 271.012 299.596 270.592L299.596 269.932ZM307.78 271.228C307.516 272.236 307.096 273.148 306.58 273.928C306.016 273.124 305.584 272.212 305.26 271.228L307.78 271.228ZM303.328 266.32L303.328 276.88L304.18 276.88L304.18 271.228L304.48 271.228C304.864 272.476 305.392 273.628 306.076 274.6C305.524 275.272 304.888 275.788 304.228 276.148C304.42 276.304 304.66 276.604 304.756 276.808C305.416 276.424 306.04 275.908 306.592 275.272C307.156 275.944 307.804 276.496 308.536 276.892C308.68 276.676 308.932 276.364 309.124 276.196C308.368 275.836 307.696 275.284 307.108 274.612C307.864 273.544 308.452 272.188 308.776 270.556L308.248 270.364L308.092 270.4L304.18 270.4L304.18 267.16L307.552 267.16L307.552 268.636C307.552 268.78 307.516 268.816 307.324 268.828C307.132 268.84 306.496 268.84 305.764 268.816C305.884 269.032 306.016 269.344 306.052 269.584C306.964 269.584 307.576 269.584 307.948 269.464C308.332 269.332 308.428 269.092 308.428 268.648L308.428 266.32L303.328 266.32ZM314.836 271.348C314.788 271.78 314.704 272.176 314.608 272.536L310.996 272.536L310.996 273.328L314.332 273.328C313.636 274.876 312.304 275.68 310.168 276.088C310.324 276.268 310.576 276.664 310.66 276.856C313.036 276.292 314.524 275.284 315.292 273.328L318.94 273.328C318.736 274.912 318.496 275.644 318.22 275.872C318.088 275.98 317.944 275.992 317.692 275.992C317.404 275.992 316.624 275.98 315.868 275.908C316.024 276.136 316.132 276.472 316.156 276.712C316.876 276.748 317.584 276.76 317.956 276.748C318.388 276.724 318.664 276.652 318.928 276.412C319.348 276.04 319.612 275.128 319.876 272.944C319.9 272.812 319.924 272.536 319.924 272.536L315.544 272.536C315.64 272.188 315.712 271.816 315.772 271.42L314.836 271.348ZM318.424 267.844C317.716 268.564 316.732 269.14 315.592 269.596C314.644 269.188 313.888 268.672 313.372 268.012L313.54 267.844L318.424 267.844ZM314.068 265.828C313.444 266.872 312.256 268.108 310.564 268.972C310.756 269.116 311.008 269.44 311.128 269.644C311.74 269.308 312.292 268.924 312.784 268.528C313.264 269.092 313.864 269.572 314.572 269.956C313.144 270.412 311.56 270.7 310.036 270.844C310.18 271.048 310.336 271.408 310.396 271.636C312.148 271.42 313.96 271.048 315.58 270.436C316.972 271 318.652 271.336 320.512 271.492C320.62 271.24 320.824 270.88 321.016 270.676C319.408 270.592 317.908 270.364 316.648 269.98C317.98 269.332 319.108 268.492 319.828 267.4L319.288 267.028L319.132 267.076L314.248 267.076C314.536 266.728 314.788 266.368 315.004 266.008L314.068 265.828ZM325.12 265.78C324.412 267.424 323.224 268.972 321.904 269.944C322.12 270.1 322.492 270.436 322.648 270.604C323.38 270.004 324.1 269.212 324.736 268.312L331.036 268.312C330.94 271.66 330.808 272.872 330.58 273.16C330.472 273.304 330.364 273.328 330.172 273.316C329.968 273.328 329.488 273.316 328.96 273.28C329.092 273.508 329.188 273.868 329.212 274.132C329.764 274.168 330.292 274.168 330.604 274.132C330.928 274.096 331.168 274 331.372 273.724C331.708 273.292 331.828 271.888 331.96 267.88C331.972 267.76 331.972 267.46 331.972 267.46L325.288 267.46C325.564 267.004 325.804 266.524 326.02 266.044L325.12 265.78ZM324.712 270.364L327.868 270.364L327.868 272.32L324.712 272.32L324.712 270.364ZM323.824 269.56L323.824 274.948C323.824 276.304 324.388 276.628 326.284 276.628C326.704 276.628 330.376 276.628 330.844 276.628C332.476 276.628 332.824 276.172 333.016 274.588C332.752 274.54 332.368 274.396 332.14 274.252C332.02 275.512 331.852 275.776 330.82 275.776C330.028 275.776 326.848 275.776 326.224 275.776C324.94 275.776 324.712 275.608 324.712 274.948L324.712 273.124L328.744 273.124L328.744 269.56L323.824 269.56Z">
</path>
</g>
<g opacity="0.8">
<rect  x="167.0400390625" y="296.60406494140625" width="351.3590850830078" height="38.8079833984375" rx="5"    fill="#000000" >
</rect>
</g>
<g >
<path     fill="#FFFFFF"  d="M195.812 315.156L195.812 312.444L196.964 312.444C198.104 312.444 198.728 312.768 198.728 313.728C198.728 314.676 198.104 315.156 196.964 315.156L195.812 315.156ZM198.872 319.92L200.852 319.92L198.776 316.284C199.796 315.888 200.468 315.06 200.468 313.728C200.468 311.688 198.992 311.028 197.12 311.028L194.036 311.028L194.036 319.92L195.812 319.92L195.812 316.56L197.048 316.56L198.872 319.92ZM201.08 319.92L202.88 319.92L203.504 317.64L206.372 317.64L206.996 319.92L208.868 319.92L206.024 311.028L203.924 311.028L201.08 319.92ZM203.888 316.26L204.152 315.288C204.416 314.364 204.668 313.356 204.908 312.384L204.956 312.384C205.22 313.332 205.46 314.364 205.736 315.288L206 316.26L203.888 316.26ZM209.912 319.92L211.508 319.92L211.508 316.212C211.508 315.36 211.364 314.136 211.28 313.296L211.328 313.296L212.036 315.384L213.416 319.116L214.436 319.116L215.804 315.384L216.524 313.296L216.584 313.296C216.488 314.136 216.356 315.36 216.356 316.212L216.356 319.92L217.976 319.92L217.976 311.028L216.008 311.028L214.52 315.204C214.34 315.744 214.184 316.332 213.992 316.896L213.932 316.896C213.752 316.332 213.584 315.744 213.392 315.204L211.88 311.028L209.912 311.028L209.912 319.92Z">
</path>
</g>
<g opacity="0.98">
<rect  x="241.919921875" y="302.1480407714844" width="266.11158752441406" height="28.644012451171875" rx="5"    fill="#FFFFFF" >
</rect>
</g>
<g >
<path     fill="#000000"  d="M250.456 316.616L256.036 316.616L256.036 317.432L250.456 317.432L250.456 316.616ZM250.456 315.212L256.036 315.212L256.036 316.004L250.456 316.004L250.456 315.212ZM249.556 314.552L249.556 318.092L250.9 318.092C250.216 319.004 249.16 319.844 248.116 320.396C248.308 320.54 248.62 320.84 248.764 320.984C249.244 320.696 249.748 320.336 250.228 319.928C250.732 320.444 251.344 320.9 252.064 321.272C250.612 321.704 248.98 321.956 247.396 322.076C247.54 322.28 247.696 322.652 247.744 322.88C249.568 322.7 251.464 322.352 253.096 321.74C254.536 322.304 256.228 322.64 258.04 322.784C258.16 322.556 258.364 322.196 258.556 321.992C256.96 321.896 255.46 321.668 254.152 321.296C255.256 320.756 256.192 320.06 256.816 319.184L256.252 318.812L256.108 318.86L251.296 318.86C251.5 318.62 251.692 318.368 251.86 318.116L251.788 318.092L256.972 318.092L256.972 314.552L249.556 314.552ZM250.204 311.84C249.64 313.028 248.608 314.132 247.576 314.84C247.756 315.008 248.032 315.38 248.152 315.56C248.776 315.08 249.412 314.456 249.952 313.76L257.824 313.76L257.824 313.004L250.504 313.004C250.696 312.704 250.876 312.404 251.02 312.092L250.204 311.84ZM255.4 319.556C254.8 320.108 253.996 320.564 253.06 320.924C252.16 320.564 251.404 320.108 250.84 319.556L255.4 319.556ZM262.156 319.388C261.616 320.252 260.692 321.068 259.768 321.584C259.984 321.74 260.332 322.064 260.5 322.232C261.412 321.62 262.432 320.66 263.056 319.664L262.156 319.388ZM266.644 319.772C267.496 320.468 268.492 321.476 268.96 322.124L269.752 321.668C269.26 321.008 268.228 320.036 267.4 319.364L266.644 319.772ZM263.632 311.84C263.572 312.344 263.5 312.812 263.392 313.256L260.224 313.256L260.224 314.12L263.104 314.12C262.588 315.26 261.616 316.124 259.564 316.628C259.744 316.808 259.984 317.144 260.068 317.372C262.444 316.724 263.524 315.608 264.064 314.12L266.764 314.12L266.764 315.824C266.764 316.736 267.028 316.988 267.952 316.988C268.144 316.988 269.104 316.988 269.296 316.988C270.088 316.988 270.34 316.628 270.424 315.116C270.184 315.056 269.8 314.912 269.62 314.768C269.584 315.992 269.524 316.148 269.2 316.148C268.996 316.148 268.228 316.148 268.06 316.148C267.724 316.148 267.664 316.1 267.664 315.812L267.664 313.256L264.316 313.256C264.424 312.812 264.484 312.332 264.544 311.84L263.632 311.84ZM259.84 317.876L259.84 318.728L264.472 318.728L264.472 321.788C264.472 321.944 264.412 321.992 264.22 322.004C264.028 322.016 263.368 322.016 262.684 321.992C262.804 322.244 262.948 322.604 262.996 322.856C263.932 322.856 264.544 322.844 264.916 322.712C265.3 322.568 265.42 322.316 265.42 321.8L265.42 318.728L270.112 318.728L270.112 317.876L265.42 317.876L265.42 316.76L264.472 316.76L264.472 317.876L259.84 317.876ZM279.952 312.056C279.664 312.56 279.148 313.292 278.74 313.76L279.472 314.036C279.904 313.604 280.444 312.968 280.888 312.356L279.952 312.056ZM273.172 312.452C273.676 312.944 274.216 313.652 274.444 314.12L275.248 313.724C275.008 313.256 274.444 312.572 273.928 312.104L273.172 312.452ZM276.52 311.852L276.52 314.18L271.864 314.18L271.864 315.008L275.8 315.008C274.816 316.016 273.22 316.856 271.636 317.228C271.828 317.408 272.08 317.744 272.212 317.972C273.844 317.492 275.464 316.544 276.52 315.356L276.52 317.372L277.42 317.372L277.42 315.572C278.944 316.328 280.744 317.312 281.704 317.936L282.148 317.192C281.188 316.616 279.472 315.728 277.984 315.008L282.196 315.008L282.196 314.18L277.42 314.18L277.42 311.852L276.52 311.852ZM276.556 317.636C276.496 318.104 276.424 318.536 276.316 318.932L271.804 318.932L271.804 319.772L275.992 319.772C275.392 320.9 274.18 321.644 271.552 322.052C271.72 322.256 271.948 322.64 272.02 322.88C275.008 322.352 276.34 321.356 276.976 319.856C277.912 321.548 279.568 322.508 281.992 322.88C282.1 322.628 282.352 322.244 282.556 322.04C280.372 321.788 278.764 321.032 277.888 319.772L282.232 319.772L282.232 318.932L277.276 318.932C277.372 318.524 277.444 318.092 277.504 317.636L276.556 317.636ZM290.62 312.524L290.62 316.544L291.448 316.544L291.448 312.524L290.62 312.524ZM292.864 311.912L292.864 317.276C292.864 317.432 292.816 317.48 292.624 317.492C292.444 317.504 291.844 317.504 291.16 317.48C291.292 317.72 291.412 318.068 291.46 318.308C292.312 318.308 292.9 318.296 293.26 318.152C293.62 318.02 293.716 317.792 293.716 317.288L293.716 311.912L292.864 311.912ZM287.656 313.124L287.656 314.78L286.168 314.78L286.168 314.708L286.168 313.124L287.656 313.124ZM283.804 314.78L283.804 315.584L285.268 315.584C285.136 316.388 284.74 317.204 283.708 317.84C283.876 317.96 284.176 318.296 284.296 318.464C285.52 317.708 285.976 316.628 286.108 315.584L287.656 315.584L287.656 318.164L288.508 318.164L288.508 315.584L289.876 315.584L289.876 314.78L288.508 314.78L288.508 313.124L289.624 313.124L289.624 312.332L284.2 312.332L284.2 313.124L285.34 313.124L285.34 314.696L285.34 314.78L283.804 314.78ZM288.604 317.936L288.604 319.268L284.812 319.268L284.812 320.096L288.604 320.096L288.604 321.62L283.564 321.62L283.564 322.46L294.424 322.46L294.424 321.62L289.528 321.62L289.528 320.096L293.176 320.096L293.176 319.268L289.528 319.268L289.528 317.936L288.604 317.936ZM298.168 316.04C298.66 317.336 299.236 319.052 299.464 320.168L300.316 319.82C300.052 318.704 299.476 317.036 298.948 315.716L298.168 316.04ZM300.772 315.368C301.156 316.676 301.6 318.38 301.768 319.496L302.632 319.232C302.452 318.116 302.008 316.448 301.588 315.14L300.772 315.368ZM300.616 311.984C300.844 312.404 301.084 312.956 301.252 313.388L296.452 313.388L296.452 316.664C296.452 318.368 296.368 320.756 295.432 322.46C295.648 322.544 296.056 322.808 296.224 322.964C297.208 321.176 297.364 318.488 297.364 316.664L297.364 314.24L306.304 314.24L306.304 313.388L302.272 313.388C302.116 312.956 301.78 312.272 301.492 311.744L300.616 311.984ZM297.508 321.452L297.508 322.316L306.46 322.316L306.46 321.452L303.208 321.452C304.312 319.592 305.2 317.408 305.776 315.416L304.828 315.068C304.372 317.144 303.448 319.592 302.284 321.452L297.508 321.452ZM308.836 312.68L308.836 317.036C308.836 318.728 308.716 320.852 307.384 322.352C307.588 322.46 307.948 322.76 308.08 322.94C309.004 321.92 309.412 320.54 309.592 319.196L312.604 319.196L312.604 322.772L313.516 322.772L313.516 319.196L316.756 319.196L316.756 321.656C316.756 321.872 316.672 321.944 316.432 321.956C316.204 321.968 315.388 321.98 314.548 321.944C314.668 322.184 314.812 322.58 314.86 322.808C315.988 322.82 316.684 322.808 317.092 322.664C317.5 322.52 317.644 322.244 317.644 321.656L317.644 312.68L308.836 312.68ZM309.724 313.544L312.604 313.544L312.604 315.476L309.724 315.476L309.724 313.544ZM316.756 313.544L316.756 315.476L313.516 315.476L313.516 313.544L316.756 313.544ZM309.724 316.328L312.604 316.328L312.604 318.344L309.676 318.344C309.712 317.888 309.724 317.444 309.724 317.036L309.724 316.328ZM316.756 316.328L316.756 318.344L313.516 318.344L313.516 316.328L316.756 316.328ZM320.884 323.204C322.144 322.76 322.96 321.776 322.96 320.48C322.96 319.64 322.6 319.1 321.94 319.1C321.448 319.1 321.028 319.4 321.028 319.964C321.028 320.528 321.436 320.816 321.928 320.816L322.132 320.792C322.072 321.62 321.544 322.184 320.62 322.568L320.884 323.204ZM336.508 311.84L336.508 313.676L331.924 313.676L331.924 314.564L336.508 314.564L336.508 316.424L332.476 316.424L332.476 317.3L333.76 317.3L333.496 317.396C334.144 318.692 335.044 319.76 336.172 320.6C334.78 321.296 333.148 321.74 331.432 322.016C331.612 322.22 331.84 322.64 331.924 322.88C333.76 322.544 335.5 322.004 337.012 321.164C338.392 321.98 340.048 322.52 342.004 322.808C342.136 322.568 342.376 322.172 342.58 321.956C340.78 321.728 339.208 321.272 337.912 320.6C339.28 319.664 340.384 318.404 341.068 316.76L340.444 316.388L340.276 316.424L337.444 316.424L337.444 314.564L342.052 314.564L342.052 313.676L337.444 313.676L337.444 311.84L336.508 311.84ZM334.432 317.3L339.748 317.3C339.124 318.476 338.2 319.4 337.048 320.108C335.92 319.376 335.032 318.44 334.432 317.3ZM348.376 319.472C348.892 320.12 349.468 321.032 349.696 321.608L350.44 321.14C350.188 320.564 349.588 319.7 349.072 319.076L348.376 319.472ZM350.512 311.9L350.512 313.4L347.956 313.4L347.956 314.216L350.512 314.216L350.512 315.74L347.344 315.74L347.344 316.568L352.096 316.568L352.096 317.912L347.476 317.912L347.476 318.74L352.096 318.74L352.096 321.788C352.096 321.944 352.048 322.004 351.868 322.004C351.688 322.016 351.052 322.028 350.38 321.992C350.5 322.244 350.62 322.616 350.656 322.868C351.544 322.868 352.132 322.856 352.48 322.724C352.852 322.58 352.96 322.328 352.96 321.788L352.96 318.74L354.448 318.74L354.448 317.912L352.96 317.912L352.96 316.568L354.52 316.568L354.52 315.74L351.376 315.74L351.376 314.216L353.944 314.216L353.944 313.4L351.376 313.4L351.376 311.9L350.512 311.9ZM345.052 311.852L345.052 314.264L343.504 314.264L343.504 315.104L345.052 315.104L345.052 317.708C344.404 317.912 343.804 318.08 343.336 318.212L343.564 319.1L345.052 318.62L345.052 321.788C345.052 321.968 344.992 322.016 344.848 322.016C344.704 322.016 344.236 322.016 343.72 322.004C343.828 322.256 343.948 322.628 343.972 322.844C344.728 322.856 345.196 322.82 345.484 322.676C345.784 322.532 345.892 322.292 345.892 321.8L345.892 318.344L347.2 317.912L347.08 317.084L345.892 317.456L345.892 315.104L347.164 315.104L347.164 314.264L345.892 314.264L345.892 311.852L345.052 311.852ZM359.968 312.044C360.16 312.404 360.364 312.848 360.532 313.22L356.116 313.22L356.116 315.656L357.016 315.656L357.016 314.072L364.948 314.072L364.948 315.656L365.896 315.656L365.896 313.22L361.588 313.22C361.408 312.824 361.12 312.248 360.892 311.816L359.968 312.044ZM362.872 317.384C362.5 318.356 361.972 319.136 361.288 319.784C360.424 319.436 359.548 319.124 358.72 318.848C359.02 318.416 359.344 317.912 359.668 317.384L362.872 317.384ZM358.588 317.384C358.156 318.08 357.7 318.728 357.316 319.244C358.312 319.58 359.404 319.976 360.472 320.42C359.308 321.2 357.808 321.704 355.984 322.028C356.176 322.22 356.452 322.628 356.56 322.844C358.516 322.424 360.148 321.8 361.432 320.828C362.944 321.488 364.336 322.196 365.224 322.796L365.968 322.016C365.044 321.428 363.676 320.768 362.188 320.144C362.92 319.412 363.484 318.5 363.904 317.384L366.22 317.384L366.22 316.532L360.16 316.532C360.484 315.932 360.784 315.332 361.024 314.768L360.052 314.576C359.812 315.188 359.464 315.86 359.092 316.532L355.828 316.532L355.828 317.384L358.588 317.384ZM367.816 313.016C368.356 313.388 368.992 313.94 369.28 314.312L369.856 313.736C369.556 313.364 368.896 312.848 368.368 312.5L367.816 313.016ZM372.268 317.42C372.412 317.66 372.556 317.948 372.664 318.212L367.624 318.212L367.624 318.956L371.8 318.956C370.684 319.748 368.992 320.396 367.444 320.696C367.612 320.864 367.84 321.164 367.96 321.368C368.668 321.2 369.412 320.96 370.12 320.66L370.12 321.452C370.12 321.944 369.724 322.136 369.496 322.208C369.604 322.388 369.748 322.736 369.796 322.94C370.048 322.796 370.468 322.688 373.9 321.92C373.888 321.752 373.9 321.404 373.936 321.2L370.996 321.8L370.996 320.252C371.74 319.88 372.412 319.436 372.928 318.956C373.888 320.912 375.64 322.232 378.016 322.808C378.112 322.568 378.352 322.232 378.532 322.064C377.404 321.836 376.396 321.428 375.58 320.852C376.288 320.528 377.116 320.084 377.728 319.652L377.068 319.16C376.564 319.556 375.724 320.06 375.016 320.42C374.524 320 374.116 319.508 373.804 318.956L378.388 318.956L378.388 318.212L373.684 318.212C373.552 317.876 373.336 317.48 373.132 317.168L372.268 317.42ZM374.488 311.84L374.488 313.496L371.632 313.496L371.632 314.288L374.488 314.288L374.488 316.196L371.992 316.196L371.992 316.988L377.992 316.988L377.992 316.196L375.388 316.196L375.388 314.288L378.22 314.288L378.22 313.496L375.388 313.496L375.388 311.84L374.488 311.84ZM367.444 316.1L367.756 316.856L370.264 315.692L370.264 317.492L371.104 317.492L371.104 311.84L370.264 311.84L370.264 314.864C369.208 315.332 368.164 315.812 367.444 316.1ZM382.276 322.592L383.092 321.896C382.348 321.02 381.268 319.928 380.404 319.232L379.624 319.916C380.476 320.612 381.508 321.644 382.276 322.592ZM396.952 312.02C395.752 312.74 393.616 313.412 391.72 313.856C391.84 314.048 391.984 314.372 392.032 314.588C392.776 314.42 393.556 314.228 394.324 314L394.324 316.676L391.6 316.676L391.6 317.552L394.312 317.552C394.216 319.28 393.724 320.972 391.48 322.22C391.696 322.376 392.008 322.688 392.14 322.904C394.588 321.5 395.128 319.544 395.224 317.552L398.896 317.552L398.896 322.88L399.808 322.88L399.808 317.552L402.412 317.552L402.412 316.676L399.808 316.676L399.808 312.068L398.896 312.068L398.896 316.676L395.236 316.676L395.236 313.724C396.124 313.436 396.952 313.112 397.624 312.752L396.952 312.02ZM403.504 321.248L403.72 322.136C404.86 321.704 406.36 321.128 407.776 320.564L407.596 319.784C406.096 320.336 404.524 320.912 403.504 321.248ZM407.8 312.62L407.8 313.46L409.144 313.46C409 317.312 408.58 320.432 406.948 322.352C407.164 322.472 407.584 322.76 407.74 322.904C408.772 321.56 409.336 319.796 409.66 317.66C410.068 318.644 410.572 319.556 411.16 320.36C410.44 321.164 409.576 321.776 408.64 322.208C408.832 322.352 409.144 322.688 409.276 322.904C410.164 322.46 410.992 321.848 411.712 321.044C412.372 321.8 413.128 322.424 413.98 322.856C414.112 322.628 414.388 322.304 414.592 322.136C413.728 321.728 412.948 321.116 412.276 320.36C413.104 319.244 413.74 317.828 414.112 316.088L413.548 315.86L413.38 315.896L412.156 315.896C412.456 314.912 412.804 313.652 413.08 312.62L407.8 312.62ZM410.044 313.46L411.952 313.46C411.664 314.588 411.304 315.848 411.004 316.688L413.068 316.688C412.768 317.852 412.3 318.836 411.712 319.676C410.908 318.584 410.284 317.288 409.864 315.932C409.948 315.152 409.996 314.324 410.044 313.46ZM403.66 316.844C403.84 316.76 404.128 316.688 405.676 316.484C405.124 317.276 404.608 317.912 404.38 318.164C404.008 318.62 403.72 318.92 403.456 318.968C403.552 319.196 403.684 319.616 403.732 319.796C403.996 319.604 404.404 319.448 407.608 318.488C407.572 318.296 407.548 317.948 407.548 317.732L405.196 318.392C406.084 317.336 406.96 316.076 407.716 314.804L406.96 314.348C406.732 314.804 406.468 315.248 406.192 315.68L404.608 315.848C405.34 314.804 406.06 313.484 406.612 312.212L405.784 311.828C405.268 313.292 404.356 314.852 404.08 315.26C403.804 315.668 403.6 315.944 403.372 316.004C403.48 316.232 403.612 316.664 403.66 316.844ZM418.276 322.592L419.092 321.896C418.348 321.02 417.268 319.928 416.404 319.232L415.624 319.916C416.476 320.612 417.508 321.644 418.276 322.592ZM431.488 315.92L434.416 315.92L434.416 318.668L431.488 318.668L431.488 315.92ZM430.636 315.104L430.636 319.472L435.304 319.472L435.304 315.104L430.636 315.104ZM427.984 312.332L427.984 322.868L428.908 322.868L428.908 322.22L437.068 322.22L437.068 322.868L438.028 322.868L438.028 312.332L427.984 312.332ZM428.908 321.368L428.908 313.232L437.068 313.232L437.068 321.368L428.908 321.368ZM444.652 313.844C444.016 314.6 443.068 315.368 442.18 315.812L442.696 316.508C443.692 315.956 444.676 315.008 445.372 314.144L444.652 313.844ZM447.244 314.36C448.156 315.008 449.32 315.956 449.86 316.568L450.4 315.896C449.836 315.296 448.672 314.396 447.76 313.76L447.244 314.36ZM439.996 312.596C440.668 313.052 441.496 313.724 441.868 314.216L442.456 313.616C442.06 313.16 441.244 312.512 440.56 312.08L439.996 312.596ZM439.456 315.812C440.128 316.244 440.944 316.904 441.34 317.36L441.928 316.76C441.532 316.304 440.704 315.692 440.02 315.284L439.456 315.812ZM439.756 322.208L440.548 322.688C441.1 321.584 441.772 320.096 442.264 318.836L441.556 318.356C441.028 319.7 440.284 321.284 439.756 322.208ZM445.516 312.02C445.66 312.296 445.816 312.644 445.948 312.956L442.684 312.956L442.684 313.748L450.268 313.748L450.268 312.956L446.968 312.956C446.824 312.596 446.596 312.14 446.392 311.78L445.516 312.02ZM443.884 322.88C444.112 322.736 444.472 322.604 446.956 321.932C446.932 321.74 446.908 321.416 446.908 321.176L444.796 321.692L444.796 319.58C445.3 319.172 445.744 318.716 446.104 318.224C446.86 320.264 448.168 321.86 449.992 322.652C450.136 322.412 450.388 322.076 450.592 321.908C449.716 321.584 448.948 321.056 448.324 320.372C448.912 320.012 449.632 319.508 450.184 319.028L449.476 318.524C449.08 318.92 448.432 319.436 447.868 319.82C447.412 319.208 447.064 318.524 446.8 317.768L448.048 317.624C448.3 317.912 448.516 318.2 448.672 318.416L449.344 317.936C448.924 317.372 448.06 316.46 447.388 315.812L446.764 316.208L447.496 316.988L444.496 317.3C445.216 316.712 445.924 316.004 446.572 315.248L445.744 314.864C445.024 315.836 444.004 316.784 443.668 317.036C443.368 317.288 443.128 317.456 442.9 317.492C442.996 317.72 443.128 318.14 443.176 318.32C443.392 318.224 443.692 318.164 445.288 317.96C444.532 318.932 443.26 319.76 441.808 320.3C442 320.456 442.276 320.78 442.396 320.96C442.96 320.732 443.5 320.456 443.992 320.144L443.992 321.32C443.992 321.824 443.68 322.088 443.488 322.208C443.62 322.376 443.824 322.7 443.884 322.88Z">
</path>
</g>
<path d="M130.832 224.072C130.832 224.072 142.375 243.365 131.812 266.973C121.248 290.581 144.253 302.51 99.6709 305.67C55.0886 308.839 130.832 224.072 130.832 224.072Z"   fill="#68E1FD" >
</path>
<g opacity="0.08">
<path d="M130.832 224.072C130.832 224.072 142.375 243.365 131.812 266.973C121.248 290.581 144.253 302.51 99.6709 305.67C55.0886 308.839 130.832 224.072 130.832 224.072Z"   fill="#000001" >
</path>
</g>
<path d="M104.049 175.82C104.049 175.82 106.053 181.614 105.719 185.707C105.581 187.37 103.772 188.645 101.698 188.516C99.1294 188.35 95.708 187.537 94.1643 184.543L90.7659 179.71C90.7659 179.71 88.7729 176.624 92.3672 173.612C95.9614 170.6 103.035 172.244 104.037 175.82L104.049 175.82Z"   fill="#F4A28C" >
</path>
<path d="M92.1943 180.911L86.3076 200.02L99.6708 201.868L98.611 187.592L92.1943 180.911Z"   fill="#F4A28C" >
</path>
<path d="M105.073 179.525L107.654 181.494C108.287 181.983 108.08 182.833 107.262 183.083L104.543 183.924L105.073 179.516L105.073 179.525Z"   fill="#F4A28C" >
</path>
<g opacity="0.31">
<path d="M98.6454 187.999C98.6454 187.999 94.095 186.308 92.8394 184.811C92.8394 184.811 93.1043 192.665 99.1638 194.956L98.6454 187.989L98.6454 187.999Z"   fill="#CE8172" >
</path>
</g>
<path d="M96.6063 181.272C96.6063 181.272 96.0188 179.008 93.9337 179.498C91.8485 179.988 92.6665 183.268 95.6271 183.138L96.6063 181.263L96.6063 181.272Z"   fill="#F4A28C" >
</path>
<path d="M84.0725 177.641C82.5173 183.009 82.2523 188.738 78.5198 193.321C77.9553 194.005 77.3563 194.984 78.0936 195.548C78.3816 195.769 78.8078 195.834 79.1995 195.862C82.2869 196.102 85.3166 194.707 87.2635 192.766C89.2104 190.826 90.2356 188.396 90.996 185.984C91.4913 184.413 91.9061 182.806 92.7585 181.337C93.5649 179.951 94.7515 178.832 96.4219 178.084C97.5969 177.557 98.8987 176.633 100.016 176.181L102.954 174.979C105.788 173.824 106.686 170.905 104.831 168.835C103.783 167.671 102.355 166.663 100.431 166.395C97.067 165.924 94.3022 167.772 91.4568 168.816C88.3925 169.944 86.8488 171.043 85.5355 173.732C84.9134 174.998 84.4411 176.31 84.0609 177.65L84.0725 177.641Z"   fill="#24285B" >
</path>
<path d="M92.2864 178.925C92.2864 178.925 88.6461 177.197 87.2982 179.516C85.9504 181.835 90.0054 183.656 92.7587 182.242C92.7587 182.242 91.6873 180.754 92.2864 178.916L92.2864 178.925Z"   fill="#F4A28C" >
</path>
<path d="M100.811 201.655L87.4474 199.807C87.4474 199.807 43.0033 199.863 35.2273 212.069C27.4513 224.275 29.0756 269.717 54.7882 307.019L107.423 308.239C107.423 308.239 104.508 280.842 114.312 265.919C124.115 250.997 154.608 219.304 100.811 201.646L100.811 201.655Z"   fill="#68E1FD" >
</path>
<g opacity="0.08">
<path d="M59.3046 216.449C59.3046 216.449 73.9004 226.705 70.9628 238.033C70.4905 239.863 69.9951 242.08 69.4998 244.501C65.6291 263.517 72.6102 282.921 88.4156 297.428L97.6085 305.864L54.7773 307.019L51.1139 301.263L31.1152 274.605L59.2931 216.439L59.3046 216.449Z"   fill="#000001" >
</path>
</g>
<path d="M34.4787 213.196C24.7329 224.201 16.0583 248.511 23.5924 282.764C25.8849 293.187 36.8403 300.976 50.0077 301.65L90.2239 303.692L90.2239 293.168L59.6614 289.629C52.5536 288.807 48.0377 283.097 50.1229 277.58C55.5027 263.36 63.8432 237.608 61.6889 219.239C60.3756 208.086 42.5658 204.076 34.4787 213.205L34.4787 213.196Z"   fill="#68E1FD" >
</path>
<g opacity="0.46">
<path d="M34.4792 213.197C24.7333 224.202 16.0587 248.512 23.5928 282.765C25.8853 293.187 36.8408 300.977 50.0081 301.651L90.2244 303.693L90.2244 293.169L59.6619 289.63C52.554 288.808 48.0382 283.097 50.1233 277.581C55.5032 263.361 63.8436 237.609 61.6894 219.24C60.3761 208.087 42.5662 204.077 34.4792 213.206L34.4792 213.197Z"   fill="#FFFFFF" >
</path>
</g>
<path d="M90.2241 299.017C90.2241 299.017 106.548 298.796 104.221 303.351C101.894 307.906 90.2241 304.34 90.2241 304.34L90.2241 299.017Z"   fill="#F4A28C" >
</path>
<path d="M144.529 306.132L151.118 276.259L104.393 276.259L100.338 301.725L78.9111 301.965L78.9111 306.132L144.529 306.132Z"   fill="#FFD200" >
</path>
<ellipse cx="125.92467498779297" cy="290.5809326171875" rx="4.677116394042969" ry="3.751434326171875"   fill="#FFFFFF" >
</ellipse>
<rect x="26.703125" y="306.05810546875" width="124.4156322479248" height="15.850250244140625"   fill="#A5A5A5" >
</rect>
<g filter="url(#filter_UX2rLGdYq1FD-aQAXSPoA)">
<rect x="28.83203125" y="321.90826416015625" width="120.14726829528809" height="98.72573852539062"   fill="#E6E6E6" >
</rect>
</g>
<g opacity="0.58">
<path d="M511.419 403.899C511.419 403.899 495.383 400.388 491.904 388.422C491.904 388.422 516.741 384.393 517.455 404.961L511.43 403.908L511.419 403.899Z"   fill="#68E1FD" >
</path>
</g>
<g opacity="0.73">
<path d="M513.389 402.624C513.389 402.624 502.191 388.422 512.041 375.144C512.041 375.144 530.922 384.763 522.536 402.652L513.389 402.624Z"   fill="#68E1FD" >
</path>
</g>
<path d="M516.269 402.633C516.269 402.633 522.19 387.636 540.069 384.791C540.069 384.791 543.421 394.53 528.491 402.67L516.269 402.633Z"   fill="#68E1FD" >
</path>
<path d="M504.645 402.291L507.894 420.124L528.365 420.198L531.383 402.384L504.645 402.291Z"   fill="#24285B" >
</path>
<defs>
<filter id="filter_UX2rLGdYq1FD-aQAXSPoA" x="24.83203125" y="319.90826416015625" width="128.1474609375" height="106.72576904296875" filterUnits="userSpaceOnUse" color-interpolation-filters="sRGB">
<feFlood flood-opacity="0" result="feFloodId_UX2rLGdYq1FD-aQAXSPoA"/>
<feColorMatrix in="SourceAlpha" type="matrix" values="0 0 0 0 0 0 0 0 0 0 0 0 0 0 0 0 0 0 127 0" result="hardAlpha_UX2rLGdYq1FD-aQAXSPoA"/>
<feOffset dx="0" dy="2"/>
<feGaussianBlur stdDeviation="2"/>
<feComposite in2="hardAlpha_UX2rLGdYq1FD-aQAXSPoA" operator="out"/>
<feColorMatrix type="matrix" values="0 0 0 0 0 0 0 0 0 0 0 0 0 0 0 0 0 0 0.25 0"/>
<feBlend mode="normal" in2="feFloodId_UX2rLGdYq1FD-aQAXSPoA" result="dropShadow_1_UX2rLGdYq1FD-aQAXSPoA"/>
<feBlend mode="normal" in="SourceGraphic" in2="dropShadow_1_UX2rLGdYq1FD-aQAXSPoA" result="shape_UX2rLGdYq1FD-aQAXSPoA"/>
</filter>
</defs>
</svg>
