<svg xmlns="http://www.w3.org/2000/svg" xmlns:xlink="http://www.w3.org/1999/xlink" width="576" height="462" viewBox="0 0 576 462" fill="none">
<g opacity="0.9">
<path d="M127.296 47.494C71.8207 66.7549 28.2047 112.413 21.7358 196.884C16.2817 268.067 30.8092 389.268 125.236 402.994C316.153 430.73 519.518 458.63 546.166 336.054C564.235 252.967 569.374 104.086 466.126 57.384C396.11 25.7098 246.169 6.22499 127.286 47.494L127.296 47.494Z"   fill="#FFFFFF" >
</path>
</g>
<g opacity="0.03">
<ellipse cx="290.55732440948486" cy="397.96681213378906" rx="254.96064472198486" ry="16.216201782226562"   fill="#000001" >
</ellipse>
</g>
<rect x="281.8369140625" y="277.7913818359375" width="3.7670440673828125" height="39.085205078125"   fill="#A5A5A5" >
</rect>
<path d="M285.566 348.13C279.184 348.13 274 342.935 274 336.565C274 330.195 279.195 325 285.566 325C291.937 325 297.132 330.195 297.132 336.565C297.132 342.935 291.948 348.13 285.566 348.13ZM285.566 328.755C281.258 328.755 277.767 332.257 277.767 336.553C277.767 340.85 281.269 344.352 285.566 344.352C289.863 344.352 293.365 340.85 293.365 336.553C293.365 332.257 289.863 328.755 285.566 328.755Z"   fill="#A5A5A5" >
</path>
<path     fill="#E6E6E6"  d="M99 81L469 81L469 320C469 322.761 466.761 325 464 325L104 325C101.239 325 99 322.761 99 320L99 81Z">
</path>
<path     fill="#24285B"  d="M103.784 47.817L463.68 47.817C466.441 47.817 468.68 50.0556 468.68 52.817L468.68 81.118L98.7842 81.118L98.7842 52.817C98.7842 50.0556 101.023 47.817 103.784 47.817Z">
</path>
<g >
<path     fill="#FFFFFF"  d="M112.078 59.516L112.078 71.024L113.772 71.024L113.772 70.1L122.13 70.1L122.13 70.912L123.908 70.912L123.908 59.516L112.078 59.516ZM113.772 68.476L113.772 66.558C114.122 66.88 114.542 67.468 114.696 67.832C116.894 66.642 117.202 64.556 117.258 61.14L118.63 61.14L118.63 64.836C118.63 66.278 118.91 66.95 120.24 66.95C120.492 66.95 121.192 66.95 121.458 66.95C121.682 66.95 121.934 66.95 122.13 66.908L122.13 68.476L113.772 68.476ZM113.772 66.46L113.772 61.14L115.62 61.14C115.578 63.968 115.452 65.508 113.772 66.46ZM120.198 61.14L122.13 61.14L122.13 65.494C121.906 65.536 121.612 65.55 121.416 65.55C121.206 65.55 120.688 65.55 120.492 65.55C120.226 65.55 120.198 65.354 120.198 64.892L120.198 61.14ZM133.806 62.764L133.806 65.382L132.616 65.382L132.616 62.764L133.806 62.764ZM135.5 62.764L136.676 62.764L136.676 65.382L135.5 65.382L135.5 62.764ZM133.806 58.396L133.806 61.14L131.034 61.14L131.034 67.86L132.616 67.86L132.616 66.992L133.806 66.992L133.806 71.444L135.5 71.444L135.5 66.992L136.676 66.992L136.676 67.748L138.328 67.748L138.328 61.14L135.5 61.14L135.5 58.396L133.806 58.396ZM130.054 58.466C128.892 58.956 127.128 59.376 125.532 59.614C125.7 59.978 125.924 60.552 125.98 60.916C126.484 60.86 127.03 60.776 127.562 60.692L127.562 62.288L125.476 62.288L125.476 63.842L127.324 63.842C126.82 65.2 126.022 66.712 125.238 67.622C125.504 68.042 125.868 68.742 126.022 69.218C126.582 68.518 127.1 67.51 127.562 66.418L127.562 71.486L129.186 71.486L129.186 65.872C129.522 66.404 129.844 66.978 130.012 67.356L130.978 66.04C130.712 65.704 129.564 64.388 129.186 64.052L129.186 63.842L130.726 63.842L130.726 62.288L129.186 62.288L129.186 60.37C129.83 60.216 130.446 60.034 130.992 59.838L130.054 58.466ZM143.144 61.882C142.36 62.89 140.988 63.926 139.714 64.556C140.106 64.836 140.75 65.452 141.058 65.788C142.304 65.018 143.816 63.744 144.796 62.512L143.144 61.882ZM147.344 62.75C148.59 63.646 150.158 64.976 150.844 65.858L152.286 64.752C151.502 63.87 149.878 62.624 148.66 61.798L147.344 62.75ZM144.222 64.374L142.71 64.836C143.256 66.096 143.928 67.174 144.768 68.084C143.382 68.994 141.646 69.596 139.616 69.988C139.938 70.352 140.442 71.108 140.638 71.486C142.71 70.982 144.516 70.254 146 69.204C147.414 70.268 149.192 70.996 151.404 71.416C151.614 70.968 152.062 70.268 152.426 69.904C150.354 69.596 148.66 68.994 147.316 68.112C148.24 67.202 148.982 66.11 149.542 64.794L147.848 64.304C147.428 65.396 146.812 66.32 146.028 67.076C145.258 66.306 144.656 65.41 144.222 64.374ZM144.614 58.732C144.852 59.152 145.118 59.67 145.3 60.118L139.826 60.118L139.826 61.756L152.174 61.756L152.174 60.118L147.19 60.118L147.232 60.104C147.05 59.572 146.588 58.774 146.21 58.172L144.614 58.732ZM158.544 64.766C159.16 65.844 160 67.286 160.35 68.154L161.946 67.328C161.54 66.488 160.658 65.102 160.028 64.08L158.544 64.766ZM163.262 58.508L163.262 61.378L157.914 61.378L157.914 63.072L163.262 63.072L163.262 69.456C163.262 69.764 163.136 69.876 162.786 69.876C162.45 69.89 161.218 69.89 160.126 69.848C160.392 70.282 160.686 71.038 160.77 71.514C162.324 71.528 163.388 71.486 164.074 71.234C164.746 70.982 164.998 70.534 164.998 69.456L164.998 63.072L166.552 63.072L166.552 61.378L164.998 61.378L164.998 58.508L163.262 58.508ZM156.724 58.424C155.968 60.482 154.708 62.512 153.364 63.8C153.658 64.206 154.162 65.144 154.344 65.55C154.68 65.214 155.016 64.822 155.338 64.402L155.338 71.472L157.046 71.472L157.046 61.798C157.564 60.86 158.012 59.894 158.39 58.942L156.724 58.424ZM178.508 58.55C177.724 59.684 176.184 60.818 174.896 61.462C175.316 61.784 175.806 62.288 176.086 62.652C177.528 61.812 179.054 60.58 180.104 59.194L178.508 58.55ZM178.802 62.4C177.976 63.604 176.408 64.808 175.092 65.522C175.512 65.844 175.988 66.334 176.268 66.698C177.71 65.802 179.264 64.472 180.342 63.044L178.802 62.4ZM179.04 66.138C178.088 67.86 176.24 69.288 174.364 70.1C174.784 70.464 175.274 71.038 175.54 71.458C177.598 70.408 179.446 68.798 180.636 66.754L179.04 66.138ZM172.25 60.72L172.25 63.744L170.64 63.744L170.64 60.72L172.25 60.72ZM167.448 63.744L167.448 65.298L169.058 65.298C168.988 67.16 168.638 69.008 167.28 70.45C167.658 70.702 168.246 71.262 168.512 71.598C170.178 69.876 170.556 67.594 170.626 65.298L172.25 65.298L172.25 71.486L173.888 71.486L173.888 65.298L175.246 65.298L175.246 63.744L173.888 63.744L173.888 60.72L175.064 60.72L175.064 59.166L167.7 59.166L167.7 60.72L169.072 60.72L169.072 63.744L167.448 63.744ZM188.602 58.396C188.602 59.18 188.616 59.964 188.644 60.734L181.714 60.734L181.714 62.372L188.728 62.372C189.064 67.342 190.114 71.5 192.522 71.5C193.852 71.5 194.426 70.856 194.678 68.182C194.216 68 193.586 67.594 193.208 67.202C193.138 68.98 192.97 69.736 192.676 69.736C191.654 69.736 190.786 66.474 190.492 62.372L194.314 62.372L194.314 60.734L192.984 60.734L193.964 59.894C193.558 59.432 192.746 58.774 192.102 58.34L190.996 59.264C191.556 59.684 192.242 60.272 192.634 60.734L190.422 60.734C190.394 59.964 190.394 59.18 190.408 58.396L188.602 58.396ZM181.714 69.414L182.176 71.108C183.996 70.73 186.488 70.212 188.784 69.708L188.672 68.21L186.04 68.686L186.04 65.592L188.308 65.592L188.308 63.968L182.246 63.968L182.246 65.592L184.36 65.592L184.36 68.98C183.352 69.148 182.442 69.302 181.714 69.414Z">
</path>
</g>
<g opacity="0.08">
<path d="M406.66 196.585C406.66 196.585 385.809 192.169 388.885 207.599C391.972 223.03 403.423 271.901 434.976 282.194C466.53 292.488 467.797 304.666 450.206 311.097C432.615 317.528 392.756 291.287 386.627 324.421L493.06 325.336L512.759 282.194L472.059 258.244L463.293 257.098C448.19 255.112 435.31 247.211 428.986 236.031L406.649 196.585L406.66 196.585Z"   fill="#000001" >
</path>
</g>
<path d="M195.448 125.118L196.411 100.496L106.853 97.0049L105.544 130.422L195.103 133.913L206.289 139.501L195.448 125.118Z"   fill="#FFD200" >
</path>
<g >
<path     fill="#000000"  d="M130.182 109.135L130.071 112.293C130.045 113.033 130.208 113.259 130.907 113.283C131.047 113.288 131.647 113.309 131.787 113.314C132.406 113.335 132.599 112.962 132.697 111.604C132.509 111.548 132.213 111.417 132.068 111.272C131.996 112.481 131.95 112.659 131.73 112.651C131.61 112.647 131.14 112.631 131.05 112.628C130.83 112.62 130.801 112.589 130.811 112.319L130.921 109.161L130.182 109.135ZM128.302 109.09C128.173 111.066 127.906 112.128 126.245 112.68C126.41 112.826 126.611 113.113 126.694 113.306C128.529 112.63 128.883 111.351 129.042 109.115L128.302 109.09ZM123.521 111.894L123.665 112.64C124.575 112.381 125.767 112.053 126.899 111.722L126.802 111.068C125.58 111.386 124.338 111.713 123.521 111.894ZM129.317 104.382C129.492 104.798 129.723 105.347 129.812 105.69L127.393 105.606L127.369 106.285L129.168 106.348C128.697 106.952 127.975 107.847 127.738 108.059C127.541 108.232 127.289 108.294 127.098 108.337C127.172 108.5 127.299 108.884 127.322 109.075C127.606 108.965 128.027 108.93 131.667 108.717C131.818 108.992 131.958 109.257 132.051 109.461L132.693 109.133C132.414 108.543 131.797 107.581 131.282 106.862L130.681 107.141C130.891 107.439 131.11 107.777 131.308 108.114L128.552 108.248C129.02 107.714 129.617 106.954 130.058 106.379L132.776 106.474L132.8 105.794L129.921 105.694L130.568 105.516C130.459 105.192 130.229 104.634 130.013 104.226L129.317 104.382ZM123.83 108.203C123.983 108.138 124.214 108.096 125.419 107.968C124.968 108.583 124.561 109.059 124.374 109.243C124.042 109.601 123.803 109.843 123.582 109.875C123.665 110.078 123.772 110.452 123.806 110.614C124.02 110.491 124.364 110.393 126.861 109.94C126.847 109.779 126.847 109.489 126.874 109.28L124.973 109.584C125.763 108.731 126.55 107.688 127.217 106.63L126.562 106.207C126.359 106.57 126.136 106.943 125.894 107.284L124.66 107.371C125.309 106.534 125.967 105.466 126.463 104.433L125.716 104.056C125.234 105.25 124.45 106.514 124.198 106.835C123.966 107.167 123.769 107.39 123.587 107.424C123.68 107.637 123.786 108.041 123.83 108.203ZM133.667 108.466L133.638 109.286L142.793 109.606L142.821 108.786L133.667 108.466ZM144.71 105.41C145.254 105.899 145.93 106.603 146.234 107.044L146.764 106.502C146.438 106.081 145.751 105.416 145.217 104.947L144.71 105.41ZM143.714 107.867L143.688 108.606L145.277 108.662L145.152 112.25C145.137 112.679 144.817 112.968 144.623 113.082C144.757 113.236 144.945 113.583 145.008 113.785C145.176 113.581 145.463 113.371 147.399 112.098C147.324 111.955 147.215 111.631 147.172 111.43L145.913 112.226L146.063 107.949L143.714 107.867ZM149.619 104.961L149.504 108.249L146.966 108.16L146.939 108.93L149.477 109.019L149.299 114.125L150.089 114.153L150.267 109.046L152.805 109.135L152.832 108.365L150.294 108.277L150.409 104.989L149.619 104.961ZM155.743 108.977L160.86 109.156L160.839 109.745L155.722 109.567L155.743 108.977ZM155.705 110.046L160.822 110.225L160.801 110.825L155.684 110.646L155.705 110.046ZM155.779 107.928L160.896 108.106L160.876 108.676L155.759 108.497L155.779 107.928ZM159.116 105.213C158.809 105.972 158.274 106.684 157.648 107.143C157.815 107.218 158.1 107.388 158.246 107.504L156.237 107.433L156.814 107.243C156.75 107.051 156.61 106.776 156.458 106.531L158.177 106.591L158.199 105.971L155.561 105.879C155.678 105.683 155.784 105.486 155.881 105.29L155.188 105.075C154.841 105.844 154.265 106.604 153.637 107.092C153.804 107.198 154.096 107.409 154.232 107.534C154.552 107.255 154.875 106.886 155.159 106.485L155.679 106.503C155.868 106.81 156.055 107.187 156.147 107.43L155.048 107.392L154.917 111.13L156.256 111.176L156.234 111.826L156.216 112.046L153.677 111.957L153.656 112.576L155.954 112.657C155.66 113.067 155.046 113.466 153.776 113.731C153.931 113.877 154.131 114.144 154.226 114.307C155.841 113.904 156.532 113.297 156.814 112.687L159.512 112.781L159.454 114.46L160.223 114.487L160.282 112.808L162.57 112.888L162.592 112.268L160.303 112.188L160.334 111.319L161.563 111.362L161.693 107.624L160.694 107.589L161.242 107.358C161.149 107.165 160.978 106.919 160.786 106.682L162.705 106.749L162.726 106.129L159.528 106.017C159.645 105.821 159.742 105.615 159.83 105.408L159.116 105.213ZM159.534 112.161L156.975 112.072L156.992 111.873L157.016 111.203L159.564 111.292L159.534 112.161ZM158.326 107.506C158.604 107.266 158.885 106.966 159.137 106.624L159.936 106.652C160.196 106.951 160.463 107.321 160.584 107.585L158.326 107.506ZM164.171 106.32C164.891 106.615 165.784 107.116 166.221 107.482L166.641 106.916C166.184 106.55 165.279 106.088 164.568 105.813L164.171 106.32ZM163.721 108.876L163.917 109.573C164.726 109.331 165.767 109.037 166.748 108.741L166.651 108.077C165.559 108.389 164.468 108.691 163.721 108.876ZM165.007 110.151L164.91 112.939L165.649 112.965L165.722 110.877L170.679 111.05L170.609 113.068L171.388 113.096L171.483 110.377L165.007 110.151ZM167.881 111.242C167.533 112.891 166.733 113.744 163.551 114.023C163.666 114.187 163.816 114.472 163.859 114.654C167.254 114.292 168.211 113.255 168.621 111.268L167.881 111.242ZM168.242 113.236C169.477 113.689 171.113 114.407 171.937 114.876L172.398 114.272C171.544 113.802 169.897 113.124 168.671 112.701L168.242 113.236ZM168.187 105.619C167.903 106.31 167.364 107.132 166.523 107.713C166.69 107.808 166.922 108.037 167.037 108.201C167.479 107.866 167.832 107.488 168.136 107.089L169.315 107.13C168.969 108.168 168.277 109.065 166.472 109.482C166.607 109.607 166.788 109.863 166.852 110.036C168.246 109.674 169.068 109.042 169.576 108.249C170.176 109.121 171.123 109.804 172.232 110.153C172.338 109.967 172.547 109.714 172.702 109.579C171.472 109.266 170.406 108.559 169.887 107.68C169.952 107.512 170.019 107.334 170.075 107.156L171.564 107.208C171.403 107.533 171.221 107.857 171.073 108.082L171.716 108.294C171.98 107.913 172.301 107.314 172.58 106.773L172.035 106.604L171.914 106.64L168.506 106.521C168.665 106.266 168.794 106.001 168.903 105.744L168.187 105.619ZM178.561 110.274L181.619 110.381L181.589 111.261L178.531 111.154L178.561 110.274ZM178.611 108.855L181.669 108.962L181.639 109.821L178.581 109.715L178.611 108.855ZM178.171 112.282C177.848 112.941 177.384 113.625 176.907 114.099C177.073 114.205 177.357 114.395 177.493 114.51C177.951 114.005 178.479 113.213 178.834 112.495L178.171 112.282ZM180.993 112.551C181.371 113.204 181.821 114.06 182.024 114.568L182.724 114.282C182.501 113.794 182.03 112.947 181.652 112.323L180.993 112.551ZM174.193 106.419C174.731 106.788 175.463 107.304 175.822 107.627L176.293 107.043C175.913 106.74 175.18 106.254 174.651 105.915L174.193 106.419ZM173.609 109.101C174.158 109.43 174.891 109.936 175.261 110.229L175.722 109.645C175.342 109.351 174.597 108.895 174.057 108.586L173.609 109.101ZM173.634 114.415L174.289 114.858C174.801 113.935 175.404 112.716 175.851 111.671L175.266 111.23C174.776 112.353 174.101 113.651 173.634 114.415ZM176.706 106.367L176.611 109.105C176.553 110.754 176.364 113.019 175.179 114.589C175.346 114.675 175.659 114.876 175.784 115.01C177.032 113.373 177.279 110.88 177.34 109.131L177.412 107.072L182.809 107.261L182.833 106.581L176.706 106.367ZM179.796 107.296C179.726 107.583 179.592 107.989 179.471 108.305L177.951 108.252L177.831 111.71L179.63 111.772L179.539 114.381C179.535 114.491 179.493 114.529 179.373 114.535C179.243 114.531 178.803 114.515 178.334 114.489C178.417 114.682 178.498 114.955 178.522 115.136C179.181 115.169 179.621 115.184 179.894 115.084C180.168 114.983 180.244 114.796 180.257 114.426L180.349 111.798L182.268 111.865L182.389 108.407L180.2 108.33C180.339 108.075 180.479 107.78 180.62 107.494L179.796 107.296ZM136.931 122.169L136.883 123.548L134.534 123.466L134.582 122.087L136.931 122.169ZM136.955 121.479L134.606 121.397L134.652 120.098L137 120.18L136.955 121.479ZM135.801 125.011C135.98 125.337 136.167 125.694 136.355 126.061L134.424 126.614L134.51 124.145L137.608 124.254L137.773 119.536L133.926 119.402L133.683 126.358C133.669 126.738 133.403 126.908 133.23 126.992C133.344 127.177 133.481 127.542 133.523 127.763C133.739 127.601 134.074 127.482 136.643 126.671C136.82 127.048 136.968 127.413 137.068 127.687L137.761 127.341C137.514 126.672 136.932 125.561 136.441 124.723L135.801 125.011ZM138.681 119.628L138.38 128.233L139.12 128.259L139.396 120.354L141.215 120.417L141.038 125.474C141.033 125.614 140.992 125.652 140.842 125.647C140.712 125.653 140.242 125.636 139.733 125.599C139.825 125.812 139.915 126.125 139.928 126.326C140.657 126.361 141.107 126.367 141.391 126.247C141.675 126.137 141.763 125.92 141.777 125.51L141.979 119.743L138.681 119.628ZM145.096 123.014L150.323 123.197L150.261 124.986L145.034 124.803L145.096 123.014ZM146.008 126.418C146.115 127.072 146.166 127.914 146.148 128.414L146.911 128.341C146.918 127.861 146.847 127.028 146.72 126.383L146.008 126.418ZM148.076 126.5C148.345 127.13 148.615 127.98 148.708 128.483L149.444 128.319C149.341 127.815 149.05 126.995 148.761 126.374L148.076 126.5ZM150.118 126.492C150.596 127.139 151.124 128.048 151.335 128.605L152.055 128.33C151.824 127.772 151.274 126.902 150.797 126.255L150.118 126.492ZM144.388 126.091C144.053 126.82 143.515 127.612 142.969 128.053L143.637 128.406C144.205 127.896 144.744 127.074 145.091 126.306L144.388 126.091ZM144.411 122.28L144.3 125.478L150.986 125.711L151.097 122.513L148.049 122.407L148.094 121.138L151.891 121.27L151.916 120.561L148.118 120.428L148.155 119.369L147.406 119.342L147.3 122.381L144.411 122.28ZM156.919 122.867L156.87 124.246L154.522 124.164L154.57 122.785L156.919 122.867ZM156.943 122.177L154.594 122.095L154.639 120.796L156.988 120.878L156.943 122.177ZM155.789 125.709C155.967 126.035 156.155 126.392 156.342 126.759L154.412 127.312L154.498 124.843L157.596 124.952L157.761 120.234L153.913 120.1L153.67 127.056C153.657 127.436 153.391 127.606 153.218 127.69C153.332 127.875 153.469 128.24 153.511 128.461C153.727 128.299 154.061 128.18 156.631 127.369C156.808 127.746 156.956 128.111 157.056 128.385L157.749 128.039C157.502 127.37 156.92 126.259 156.429 125.421L155.789 125.709ZM158.668 120.326L158.368 128.931L159.107 128.957L159.383 121.052L161.202 121.115L161.026 126.172C161.021 126.312 160.98 126.35 160.83 126.345C160.699 126.351 160.23 126.334 159.721 126.297C159.813 126.51 159.902 126.823 159.915 127.024C160.645 127.059 161.095 127.065 161.379 126.945C161.663 126.835 161.751 126.618 161.765 126.208L161.966 120.441L158.668 120.326ZM164.351 120.635L164.224 124.262C164.175 125.672 164.013 127.437 162.86 128.648C163.027 128.743 163.318 129.004 163.423 129.157C164.222 128.335 164.602 127.197 164.791 126.083L167.3 126.171L167.196 129.149L167.955 129.176L168.059 126.197L170.758 126.292L170.686 128.34C170.68 128.52 170.608 128.578 170.407 128.581C170.217 128.584 169.537 128.57 168.839 128.516C168.932 128.719 169.04 129.053 169.073 129.245C170.013 129.288 170.592 129.298 170.936 129.19C171.28 129.082 171.408 128.856 171.426 128.366L171.687 120.891L164.351 120.635ZM165.065 121.38L167.464 121.464L167.408 123.073L165.009 122.989L165.065 121.38ZM170.922 121.585L170.866 123.194L168.167 123.099L168.224 121.49L170.922 121.585ZM164.984 123.699L167.383 123.782L167.324 125.461L164.886 125.376C164.929 124.997 164.952 124.628 164.964 124.288L164.984 123.699ZM170.841 123.903L170.782 125.582L168.084 125.488L168.143 123.809L170.841 123.903Z">
</path>
</g>
<path d="M319.715 263.846L318.143 284.637L418.839 291.989L420.974 263.769L320.277 256.417L311.227 249.659L319.715 263.846Z"   fill="#FFD200" >
</path>
<g >
<path     fill="#000000"  d="M327.321 272.92L330.014 273.109L329.859 275.323L327.166 275.135L327.321 272.92ZM333.516 273.354L333.361 275.568L330.617 275.376L330.772 273.162L333.516 273.354ZM327.372 272.182L327.524 270.008L330.218 270.196L330.066 272.371L327.372 272.182ZM333.567 272.615L330.824 272.424L330.976 270.249L333.719 270.441L333.567 272.615ZM330.405 267.512L330.27 269.448L326.828 269.207L326.322 276.449L327.07 276.502L327.113 275.883L333.308 276.316L333.268 276.895L334.046 276.949L334.55 269.747L331.028 269.501L331.164 267.565L330.405 267.512ZM338.133 270.108L343.171 270.46L343.121 271.168L338.084 270.816L338.133 270.108ZM338.217 268.911L343.255 269.263L343.206 269.961L338.168 269.609L338.217 268.911ZM337.536 268.332L337.328 271.295L343.833 271.749L344.04 268.787L337.536 268.332ZM339.44 272.635L339.393 273.303L337.578 273.177L337.625 272.508L339.44 272.635ZM335.715 275.873L335.738 276.546L339.178 276.376L339.111 277.344L339.829 277.394L339.903 276.336L340.447 276.304L340.489 275.696L339.946 275.718L340.158 272.685L344.957 273.021L345.001 272.392L336.022 271.765L335.979 272.393L336.936 272.46L336.699 275.852L335.715 275.873ZM340.504 273.331L340.461 273.949L341.059 273.991L340.856 274.037C341.104 274.786 341.468 275.463 341.959 276.039C341.382 276.41 340.741 276.676 340.099 276.831C340.22 276.97 340.381 277.242 340.44 277.406C341.125 277.214 341.807 276.921 342.417 276.512C342.943 277.01 343.587 277.406 344.33 277.678C344.442 277.506 344.651 277.25 344.82 277.121C344.105 276.891 343.478 276.536 342.957 276.099C343.66 275.506 344.235 274.745 344.613 273.779L344.197 273.559L344.055 273.579L340.504 273.331ZM341.518 274.023L343.703 274.176C343.402 274.747 342.977 275.238 342.488 275.645C342.059 275.174 341.736 274.63 341.518 274.023ZM339.354 273.862L339.305 274.57L337.489 274.443L337.539 273.735L339.354 273.862ZM339.266 275.129L339.222 275.747L337.392 275.83L337.45 275.002L339.266 275.129ZM345.578 276.463L345.657 277.2C346.638 277.068 347.953 276.899 349.209 276.716L349.195 276.054C347.871 276.212 346.496 276.386 345.578 276.463ZM351.012 274.727C351.711 275.057 352.575 275.609 353.018 276L353.504 275.503C353.05 275.121 352.194 274.6 351.485 274.269L351.012 274.727ZM349.776 276.495C351.117 276.96 352.725 277.754 353.586 278.346L354.067 277.778C353.184 277.215 351.575 276.431 350.263 275.988L349.776 276.495ZM351.594 268.994C351.162 269.856 350.377 270.904 349.292 271.66L349.493 271.373L348.891 270.95C348.675 271.306 348.43 271.66 348.176 271.993L346.881 272.023C347.54 271.197 348.206 270.13 348.741 269.075L348.043 268.736C347.54 269.903 346.721 271.149 346.469 271.463C346.236 271.787 346.039 272.014 345.847 272.041C345.924 272.236 346.018 272.614 346.046 272.776C346.201 272.717 346.444 272.674 347.691 272.621C347.208 273.228 346.774 273.699 346.581 273.876C346.236 274.223 345.98 274.446 345.757 274.47C345.834 274.666 345.919 275.023 345.949 275.175C346.177 275.071 346.521 275.025 349.143 274.797C349.133 274.646 349.144 274.356 349.158 274.157L347.032 274.309C347.807 273.551 348.582 272.633 349.27 271.688C349.433 271.8 349.656 272.046 349.765 272.214C350.176 271.922 350.54 271.597 350.864 271.259C351.13 271.758 351.457 272.242 351.826 272.689C351.025 273.255 350.124 273.673 349.214 273.93C349.363 274.081 349.572 274.396 349.649 274.582C350.552 274.284 351.466 273.827 352.29 273.223C352.983 273.933 353.783 274.53 354.626 274.94C354.749 274.758 354.989 274.484 355.169 274.346C354.332 273.987 353.528 273.44 352.853 272.781C353.578 272.15 354.213 271.393 354.666 270.502L354.217 270.19L354.085 270.211L351.83 270.053C352.032 269.756 352.212 269.468 352.363 269.178L351.594 268.994ZM351.365 270.692L353.629 270.851C353.291 271.378 352.857 271.859 352.367 272.276C351.939 271.795 351.585 271.269 351.331 270.74L351.365 270.692ZM357.231 270.09L356.978 273.711C356.879 275.118 356.656 276.876 355.462 278.046C355.625 278.148 355.907 278.418 356.006 278.575C356.833 277.781 357.253 276.657 357.481 275.551L359.985 275.726L359.777 278.698L360.535 278.751L360.743 275.779L363.436 275.967L363.293 278.012C363.281 278.192 363.207 278.247 363.006 278.243C362.816 278.239 362.137 278.202 361.441 278.123C361.527 278.33 361.623 278.667 361.65 278.86C362.587 278.935 363.166 278.966 363.514 278.87C363.861 278.774 363.997 278.553 364.031 278.064L364.553 270.602L357.231 270.09ZM357.919 270.86L360.313 271.027L360.201 272.633L357.807 272.466L357.919 270.86ZM363.765 271.269L363.652 272.875L360.959 272.686L361.071 271.08L363.765 271.269ZM357.757 273.174L360.151 273.342L360.034 275.017L357.6 274.847C357.656 274.47 357.692 274.102 357.716 273.763L357.757 273.174ZM363.603 273.583L363.486 275.259L360.792 275.07L360.909 273.395L363.603 273.583ZM368.036 272.399L373.243 272.763L373.103 274.769L367.886 274.404L367.933 273.876L368.036 272.399ZM370.119 270.43C370.287 270.883 370.468 271.457 370.559 271.874L367.307 271.647L367.155 273.821C367.049 275.328 366.775 277.393 365.454 278.795C365.628 278.887 365.941 279.14 366.071 279.289C367.132 278.16 367.597 276.529 367.807 275.1L373.054 275.467L373.008 276.125L373.767 276.178L374.05 272.118L370.888 271.897L371.357 271.789C371.264 271.392 371.057 270.766 370.85 270.29L370.119 270.43ZM382.384 271.648C382.78 272.137 383.304 272.815 383.557 273.214L384.174 272.846C383.92 272.467 383.385 271.809 382.987 271.33L382.384 271.648ZM376.92 273.943C377.028 273.84 377.371 273.804 377.999 273.848L379.396 273.945C378.592 275.974 377.371 277.533 375.458 278.512C375.638 278.655 375.887 278.963 375.976 279.13C377.329 278.422 378.348 277.471 379.132 276.283C379.479 277.059 379.932 277.742 380.493 278.333C379.592 278.881 378.555 279.23 377.5 279.407C377.629 279.576 377.789 279.868 377.855 280.073C378.994 279.842 380.083 279.457 381.037 278.862C381.898 279.594 382.952 280.149 384.209 280.527C384.333 280.325 384.553 280.04 384.724 279.892C383.523 279.577 382.496 279.074 381.658 278.434C382.58 277.727 383.328 276.777 383.826 275.528L383.334 275.253L383.192 275.284L379.82 275.048C379.974 274.718 380.128 274.368 380.254 274.005L384.773 274.321L384.833 273.604L380.504 273.301C380.711 272.624 380.891 271.915 381.055 271.154L380.227 270.956C380.07 271.767 379.876 272.526 379.646 273.241L377.83 273.114C378.146 272.605 378.473 271.956 378.697 271.32L377.91 271.115C377.687 271.871 377.241 272.652 377.117 272.844C376.982 273.055 376.862 273.197 376.72 273.217C376.798 273.403 376.891 273.78 376.92 273.943ZM381.092 277.933C380.454 277.307 379.964 276.581 379.63 275.756L382.773 275.976C382.356 276.769 381.77 277.41 381.092 277.933ZM386.352 275.966C386.198 277.739 385.976 279.338 385.317 280.304C385.491 280.396 385.807 280.599 385.931 280.698C386.259 280.169 386.497 279.484 386.672 278.705C387.294 280.121 388.468 280.534 390.593 280.683L394.434 280.952C394.499 280.736 394.653 280.395 394.795 280.235C394.164 280.221 391.122 280.008 390.634 279.964C389.696 279.898 388.963 279.777 388.399 279.517L388.542 277.482L390.168 277.596L390.214 276.937L388.588 276.824L388.692 275.337L390.417 275.458L390.465 274.78L388.579 274.648L388.667 273.391L390.303 273.505L390.35 272.837L388.714 272.722L388.792 271.605L388.084 271.556L388.006 272.673L386.34 272.556L386.293 273.225L387.959 273.341L387.871 274.598L385.946 274.464L385.898 275.142L388.003 275.289L387.737 279.09C387.332 278.721 387.069 278.191 386.891 277.437C386.951 277 387.013 276.543 387.057 276.065L386.352 275.966ZM390.921 274.992L390.693 278.254C390.634 279.102 390.898 279.341 391.835 279.406C392.035 279.42 393.372 279.514 393.591 279.529C394.439 279.589 394.684 279.235 394.873 277.825C394.677 277.761 394.376 277.619 394.226 277.479C394.091 278.682 394.018 278.877 393.589 278.847C393.279 278.826 392.172 278.748 391.953 278.733C391.474 278.7 391.388 278.633 391.411 278.304L391.593 275.711L393.717 275.859L393.7 276.109L394.418 276.159L394.675 272.488L391.014 272.232L390.968 272.89L393.911 273.096L393.764 275.191L390.921 274.992ZM399.774 272.534C399.913 272.844 400.057 273.225 400.175 273.544L396.504 273.287L396.362 275.312L397.11 275.365L397.202 274.048L403.796 274.509L403.704 275.826L404.492 275.881L404.634 273.856L401.052 273.605C400.926 273.266 400.72 272.77 400.556 272.398L399.774 272.534ZM401.878 277.142C401.512 277.928 401.028 278.546 400.422 279.045C399.724 278.705 399.013 278.395 398.341 278.117C398.616 277.775 398.914 277.375 399.214 276.955L401.878 277.142ZM398.317 276.892C397.917 277.446 397.5 277.958 397.151 278.365C397.959 278.702 398.844 279.095 399.706 279.526C398.693 280.107 397.417 280.438 395.882 280.602C396.03 280.772 396.236 281.128 396.313 281.314C397.964 281.078 399.357 280.654 400.481 279.921C401.699 280.557 402.815 281.227 403.518 281.777L404.182 281.172C403.448 280.63 402.349 280.001 401.149 279.396C401.8 278.83 402.322 278.105 402.736 277.202L404.661 277.336L404.711 276.628L399.673 276.276C399.977 275.796 400.261 275.314 400.494 274.859L399.697 274.643C399.462 275.138 399.133 275.676 398.785 276.214L396.072 276.024L396.022 276.732L398.317 276.892ZM406.242 273.798C406.669 274.138 407.166 274.634 407.383 274.96L407.896 274.515C407.668 274.188 407.149 273.721 406.731 273.401L406.242 273.798ZM409.687 277.718C409.792 277.926 409.895 278.173 409.97 278.399L405.78 278.106L405.737 278.725L409.208 278.967C408.235 279.561 406.79 280.001 405.486 280.161C405.616 280.31 405.788 280.573 405.876 280.749C406.474 280.651 407.107 280.494 407.713 280.286L407.667 280.945C407.638 281.354 407.298 281.49 407.104 281.537C407.183 281.693 407.283 281.99 407.311 282.163C407.529 282.058 407.884 281.992 410.782 281.553C410.782 281.413 410.812 281.124 410.854 280.957L408.375 281.285L408.465 279.998C409.105 279.732 409.689 279.402 410.146 279.033C410.83 280.715 412.21 281.914 414.152 282.531C414.246 282.337 414.465 282.072 414.624 281.942C413.7 281.687 412.885 281.289 412.24 280.763C412.848 280.535 413.562 280.214 414.096 279.891L413.576 279.443C413.134 279.743 412.406 280.113 411.797 280.371C411.412 279.994 411.102 279.561 410.874 279.084L414.685 279.35L414.728 278.732L410.818 278.458C410.728 278.171 410.571 277.83 410.42 277.558L409.687 277.718ZM411.857 273.208L411.76 274.585L409.386 274.419L409.34 275.077L411.714 275.243L411.603 276.829L409.528 276.684L409.482 277.342L414.47 277.691L414.516 277.033L412.351 276.881L412.462 275.295L414.817 275.46L414.863 274.802L412.508 274.637L412.605 273.26L411.857 273.208ZM405.753 276.34L405.969 276.986L408.121 276.165L408.017 277.661L408.715 277.71L409.043 273.011L408.345 272.962L408.169 275.476C407.264 275.804 406.368 276.142 405.753 276.34Z">
</path>
</g>
<path d="M332.995 124.01L332.661 96.7615L447.081 95.1744L447.541 132.152L333.121 133.749L319.768 140.993L332.995 124.01Z"   fill="#24285B" >
</path>
<g >
<path     fill="#FFD200"  d="M340.568 105.173C340.483 108.885 340.135 111.872 338.516 113.65C338.718 113.767 339.123 114.03 339.245 114.158C340.244 112.93 340.775 111.311 341.061 109.325C341.685 110.125 342.291 111.054 342.612 111.689L343.173 111.149C342.789 110.375 341.949 109.22 341.194 108.343C341.297 107.371 341.348 106.32 341.389 105.199L340.568 105.173ZM344.418 105.096C344.265 108.949 343.785 111.858 341.815 113.563C342.017 113.679 342.412 113.942 342.544 114.07C343.626 113.021 344.272 111.65 344.672 109.952C345.138 111.405 345.905 112.981 347.142 113.92C347.268 113.698 347.522 113.373 347.69 113.23C346.142 112.207 345.324 110.071 344.955 108.397C345.088 107.395 345.169 106.303 345.228 105.122L344.418 105.096ZM350.654 108.278C351.083 109.35 351.588 110.772 351.794 111.698L352.499 111.396C352.262 110.47 351.758 109.089 351.299 107.996L350.654 108.278ZM352.814 107.68C353.153 108.764 353.548 110.178 353.704 111.105L354.42 110.872C354.254 109.945 353.859 108.562 353.49 107.478L352.814 107.68ZM352.635 104.863C352.831 105.209 353.039 105.666 353.185 106.023L349.186 106.093L349.233 108.823C349.258 110.242 349.223 112.233 348.468 113.667C348.649 113.734 348.993 113.948 349.135 114.075C349.929 112.571 350.02 110.329 349.993 108.809L349.958 106.79L357.407 106.66L357.394 105.95L354.035 106.008C353.899 105.651 353.609 105.086 353.361 104.65L352.635 104.863ZM350.183 112.797L350.195 113.517L357.654 113.386L357.642 112.666L354.932 112.714C355.825 111.148 356.533 109.315 356.984 107.647L356.189 107.371C355.839 109.107 355.105 111.161 354.162 112.727L350.183 112.797ZM359.494 105.323L359.557 108.952C359.582 110.362 359.513 112.134 358.425 113.403C358.596 113.49 358.9 113.735 359.013 113.883C359.768 113.019 360.088 111.864 360.218 110.741L362.728 110.697L362.78 113.677L363.54 113.664L363.488 110.684L366.188 110.637L366.223 112.687C366.226 112.867 366.158 112.928 365.958 112.941C365.768 112.955 365.088 112.977 364.388 112.959C364.491 113.157 364.617 113.485 364.66 113.674C365.6 113.668 366.18 113.648 366.518 113.522C366.856 113.396 366.972 113.164 366.963 112.674L366.833 105.195L359.494 105.323ZM360.246 106.03L362.646 105.988L362.674 107.598L360.274 107.64L360.246 106.03ZM366.105 105.928L366.133 107.538L363.434 107.585L363.406 105.975L366.105 105.928ZM360.287 108.35L362.686 108.308L362.716 109.988L360.276 110.03C360.299 109.65 360.303 109.28 360.297 108.94L360.287 108.35ZM366.146 108.247L366.175 109.927L363.476 109.974L363.446 108.295L366.146 108.247ZM372.082 104.553C372.329 104.949 372.608 105.474 372.775 105.861L368.486 105.936L368.499 106.666L372.568 106.595L372.592 107.955L369.492 108.009L369.57 112.488L370.32 112.475L370.255 108.726L372.604 108.685L372.69 113.574L373.46 113.561L373.374 108.671L375.874 108.628L375.923 111.417C375.925 111.557 375.876 111.608 375.696 111.621C375.526 111.634 374.916 111.645 374.236 111.627C374.35 111.845 374.475 112.143 374.509 112.362C375.369 112.347 375.929 112.337 376.276 112.201C376.604 112.075 376.7 111.844 376.693 111.414L376.631 107.884L373.362 107.941L373.338 106.582L377.497 106.509L377.484 105.779L373.475 105.849L373.624 105.797C373.467 105.399 373.106 104.775 372.808 104.311L372.082 104.553ZM382.129 108.288C382.218 108.207 382.537 108.161 382.997 108.153L383.707 108.141C383.306 109.248 382.602 110.171 381.693 110.786L381.562 110.209L380.5 110.627L380.443 107.408L381.543 107.389L381.531 106.679L380.431 106.698L380.39 104.378L379.681 104.391L379.721 106.71L378.491 106.732L378.504 107.442L379.733 107.42L379.794 110.9C379.278 111.099 378.811 111.277 378.433 111.403L378.696 112.159C379.55 111.804 380.672 111.334 381.714 110.896L381.693 110.806C381.855 110.904 382.128 111.099 382.24 111.217C383.188 110.5 383.989 109.436 384.417 108.129L385.256 108.114C384.664 110.265 383.573 111.944 381.891 112.993C382.063 113.09 382.356 113.295 382.478 113.413C384.148 112.254 385.307 110.463 385.956 108.102L386.636 108.09C386.508 111.032 386.317 112.176 386.062 112.46C385.964 112.582 385.875 112.614 385.715 112.607C385.535 112.61 385.155 112.616 384.744 112.583C384.868 112.781 384.953 113.08 384.967 113.29C385.387 113.302 385.797 113.305 386.037 113.271C386.326 113.236 386.525 113.152 386.71 112.909C387.053 112.493 387.241 111.25 387.39 107.737C387.398 107.626 387.404 107.366 387.404 107.366L383.384 107.436C384.363 106.789 385.399 105.951 386.452 104.983L385.885 104.572L385.726 104.635L381.706 104.705L381.719 105.415L384.938 105.359C384.082 106.164 383.124 106.861 382.798 107.077C382.412 107.333 382.046 107.55 381.797 107.584C381.9 107.772 382.066 108.12 382.129 108.288ZM390.172 110.668C390.811 111.177 391.534 111.935 391.833 112.45L392.384 111.94C392.066 111.456 391.374 110.768 390.755 110.268L394.534 110.202L394.571 112.302C394.574 112.452 394.514 112.503 394.315 112.516C394.125 112.52 393.405 112.542 392.665 112.535C392.778 112.723 392.903 113.001 392.946 113.2C393.906 113.184 394.516 113.173 394.874 113.057C395.232 112.95 395.349 112.748 395.341 112.308L395.304 110.189L397.494 110.151L397.482 109.451L395.292 109.489L395.278 108.709L394.508 108.722L394.522 109.502L388.663 109.605L388.675 110.305L390.615 110.271L390.172 110.668ZM389.309 104.803L389.355 107.422C389.371 108.362 389.875 108.553 391.525 108.525C391.894 108.518 395.114 108.462 395.514 108.455C396.774 108.433 397.099 108.187 397.211 107.155C396.981 107.129 396.679 107.044 396.478 106.938C396.411 107.679 396.273 107.822 395.453 107.836C394.753 107.848 391.984 107.896 391.454 107.906C390.344 107.925 390.142 107.819 390.135 107.399L390.125 106.869L396.254 106.762L396.213 104.382L389.304 104.503L389.309 104.803ZM390.095 105.149L395.485 105.055L395.503 106.105L390.114 106.199L390.095 105.149ZM399.073 108.923L399.136 112.542L406.235 112.418L406.245 112.988L407.055 112.974L406.981 108.785L406.172 108.799L406.222 111.669L403.472 111.716L403.411 108.217L406.57 108.162L406.51 104.702L405.7 104.717L405.748 107.446L403.398 107.487L403.335 103.868L402.515 103.882L402.578 107.501L400.289 107.541L400.241 104.822L399.461 104.835L399.522 108.285L402.591 108.231L402.652 111.731L399.953 111.778L399.902 108.908L399.073 108.923ZM412.176 103.873C412.485 104.358 412.817 105.022 412.944 105.43L413.769 105.146C413.622 104.738 413.26 104.095 412.952 103.62L412.176 103.873ZM408.475 105.528L408.488 106.268L410.047 106.241C410.664 107.75 411.477 109.046 412.525 110.098C411.441 111.037 410.103 111.741 408.452 112.24C408.605 112.417 408.851 112.763 408.934 112.941C410.595 112.372 411.972 111.628 413.085 110.629C414.232 111.609 415.605 112.325 417.252 112.746C417.378 112.534 417.593 112.21 417.76 112.047C416.153 111.675 414.781 110.989 413.655 110.069C414.647 109.021 415.394 107.728 415.947 106.138L417.526 106.11L417.513 105.37L408.475 105.528ZM413.086 109.558C412.129 108.625 411.37 107.498 410.827 106.227L415.097 106.153C414.62 107.511 413.95 108.633 413.086 109.558ZM421.199 108.537L421.212 109.267L424.082 109.216L424.142 112.696L424.892 112.683L424.831 109.203L427.571 109.156L427.558 108.426L424.819 108.473L424.78 106.264L427.08 106.224L427.067 105.494L424.767 105.534L424.734 103.604L423.984 103.617L424.017 105.547L422.678 105.57C422.8 105.118 422.901 104.636 422.993 104.165L422.271 104.027C422.064 105.341 421.666 106.638 421.101 107.478C421.282 107.565 421.605 107.739 421.747 107.847C422.01 107.422 422.251 106.888 422.45 106.304L424.03 106.277L424.069 108.487L421.199 108.537ZM420.623 103.596C420.109 105.115 419.256 106.63 418.333 107.627C418.466 107.794 418.693 108.18 418.776 108.359C419.09 108.013 419.383 107.608 419.675 107.173L419.773 112.752L420.492 112.74L420.375 105.991C420.742 105.284 421.069 104.538 421.336 103.794L420.623 103.596ZM430.97 103.325C430.404 104.705 429.436 106.012 428.351 106.842C428.533 106.968 428.848 107.243 428.98 107.381C429.581 106.87 430.17 106.2 430.687 105.441L435.936 105.349C435.905 108.14 435.812 109.152 435.626 109.395C435.539 109.517 435.449 109.538 435.289 109.531C435.119 109.544 434.719 109.541 434.278 109.519C434.392 109.707 434.477 110.005 434.501 110.225C434.961 110.247 435.401 110.239 435.661 110.205C435.93 110.17 436.129 110.086 436.295 109.853C436.568 109.489 436.648 108.317 436.699 104.976C436.708 104.875 436.703 104.625 436.703 104.625L431.134 104.723C431.358 104.339 431.551 103.935 431.724 103.532L430.97 103.325ZM430.697 107.151L433.326 107.105L433.355 108.735L430.725 108.78L430.697 107.151ZM429.945 106.494L430.023 110.983C430.043 112.113 430.518 112.375 432.097 112.347C432.447 112.341 435.507 112.288 435.897 112.281C437.257 112.257 437.54 111.872 437.677 110.549C437.456 110.513 437.134 110.399 436.942 110.282C436.86 111.334 436.724 111.556 435.864 111.571C435.205 111.583 432.555 111.629 432.035 111.638C430.965 111.657 430.773 111.52 430.763 110.97L430.737 109.45L434.096 109.392L434.044 106.422L429.945 106.494ZM369.628 119.788L369.734 125.847L370.433 125.835L370.328 119.776L369.628 119.788ZM371.595 119.054L371.733 126.923C371.736 127.093 371.686 127.144 371.516 127.147C371.347 127.16 370.797 127.169 370.206 127.159C370.33 127.357 370.456 127.695 370.5 127.904C371.229 127.892 371.759 127.862 372.067 127.727C372.365 127.602 372.471 127.38 372.462 126.91L372.325 119.041L371.595 119.054ZM363.963 127.008L364.145 127.725C365.461 127.442 367.354 127.049 369.128 126.668L369.076 126.009L366.983 126.436L366.956 124.866L368.956 124.831L368.944 124.161L366.944 124.196L366.926 123.126L366.216 123.138L366.234 124.208L364.265 124.243L364.276 124.913L366.246 124.878L366.276 126.568L363.963 127.008ZM364.464 123.029C364.702 122.915 365.071 122.868 368.195 122.514C368.339 122.741 368.463 122.949 368.556 123.128L369.119 122.738C368.819 122.173 368.143 121.275 367.572 120.614L367.028 120.944C367.283 121.24 367.549 121.595 367.795 121.931L365.239 122.195C365.64 121.648 366.038 120.971 366.366 120.305L369.076 120.258L369.064 119.598L363.925 119.688L363.937 120.348L365.526 120.32C365.219 121.036 364.82 121.683 364.673 121.875C364.508 122.118 364.361 122.291 364.201 122.323C364.295 122.522 364.411 122.87 364.464 123.029ZM377.53 119.28L377.623 124.6L378.343 124.587L378.262 119.928L381.291 119.875L381.372 124.534L382.112 124.521L382.019 119.202L377.53 119.28ZM373.761 126.257L373.944 126.984C374.889 126.678 376.152 126.276 377.336 125.905L377.233 125.206L375.93 125.619L375.886 123.09L376.936 123.071L376.924 122.371L375.874 122.39L375.836 120.2L377.086 120.178L377.073 119.478L373.764 119.536L373.776 120.236L375.116 120.213L375.154 122.402L373.964 122.423L373.977 123.123L375.166 123.102L375.214 125.842C374.667 126.001 374.169 126.15 373.761 126.257ZM379.406 120.758L379.44 122.688C379.467 124.257 379.18 126.153 376.673 127.497C376.825 127.604 377.07 127.88 377.153 128.028C378.797 127.129 379.566 125.926 379.905 124.72L379.942 126.829C379.954 127.509 380.217 127.685 380.917 127.673L381.837 127.657C382.697 127.642 382.81 127.239 382.872 125.658C382.682 125.621 382.44 125.516 382.257 125.369C382.232 126.799 382.177 127.08 381.827 127.087L381.007 127.101C380.727 127.106 380.646 127.037 380.641 126.747L380.6 124.378L379.99 124.388C380.119 123.806 380.149 123.225 380.14 122.695L380.106 120.746L379.406 120.758ZM387.381 122.679C387.47 122.597 387.789 122.552 388.249 122.544L388.959 122.531C388.558 123.639 387.854 124.561 386.944 125.177L386.814 124.599L385.751 125.018L385.695 121.798L386.795 121.779L386.783 121.069L385.683 121.088L385.642 118.769L384.932 118.781L384.973 121.101L383.743 121.122L383.756 121.832L384.985 121.811L385.046 125.29C384.53 125.489 384.063 125.667 383.685 125.794L383.948 126.549C384.802 126.195 385.924 125.725 386.966 125.287L386.945 125.197C387.107 125.294 387.38 125.489 387.492 125.608C388.44 124.891 389.241 123.827 389.668 122.519L390.508 122.504C389.916 124.655 388.825 126.334 387.143 127.384C387.315 127.481 387.608 127.686 387.73 127.804C389.4 126.644 390.559 124.854 391.208 122.492L391.888 122.48C391.759 125.423 391.569 126.566 391.314 126.851C391.216 126.973 391.127 127.004 390.967 126.997C390.787 127 390.407 127.007 389.996 126.974C390.12 127.172 390.205 127.47 390.219 127.68C390.639 127.693 391.049 127.696 391.288 127.662C391.578 127.627 391.776 127.543 391.962 127.3C392.305 126.884 392.493 125.64 392.642 122.127C392.65 122.017 392.656 121.757 392.656 121.757L388.636 121.827C389.615 121.18 390.651 120.342 391.704 119.373L391.137 118.963L390.978 119.026L386.958 119.096L386.971 119.806L390.19 119.75C389.334 120.555 388.376 121.251 388.05 121.467C387.664 121.724 387.298 121.94 387.049 121.975C387.152 122.163 387.318 122.51 387.381 122.679ZM397.341 118.615C397.507 118.912 397.683 119.279 397.829 119.586L394.149 119.65L394.185 121.68L394.934 121.667L394.911 120.347L401.52 120.232L401.543 121.552L402.333 121.538L402.298 119.508L398.708 119.571C398.553 119.243 398.304 118.768 398.108 118.411L397.341 118.615ZM399.839 123.022C399.543 123.837 399.114 124.494 398.554 125.044C397.829 124.767 397.095 124.52 396.401 124.302C396.644 123.938 396.907 123.513 397.169 123.068L399.839 123.022ZM396.269 123.084C395.919 123.67 395.549 124.217 395.237 124.652C396.071 124.918 396.987 125.232 397.883 125.586C396.925 126.253 395.682 126.695 394.167 126.991C394.33 127.148 394.566 127.484 394.659 127.663C396.283 127.284 397.633 126.741 398.689 125.912C399.958 126.44 401.129 127.01 401.877 127.497L402.486 126.836C401.707 126.36 400.558 125.83 399.309 125.331C399.908 124.711 400.365 123.943 400.699 123.007L402.628 122.973L402.616 122.263L397.567 122.351C397.828 121.847 398.069 121.342 398.261 120.869L397.448 120.723C397.257 121.236 396.977 121.801 396.677 122.367L393.957 122.414L393.97 123.124L396.269 123.084ZM403.895 119.31C404.35 119.612 404.888 120.063 405.133 120.369L405.605 119.881C405.349 119.575 404.792 119.155 404.347 118.872L403.895 119.31ZM407.668 122.915C407.792 123.113 407.916 123.351 408.01 123.569L403.81 123.642L403.821 124.262L407.301 124.202C406.382 124.878 404.982 125.442 403.696 125.715C403.839 125.852 404.033 126.099 404.136 126.267C404.724 126.117 405.34 125.906 405.926 125.646L405.937 126.306C405.944 126.716 405.617 126.881 405.428 126.945C405.521 127.093 405.646 127.381 405.689 127.55C405.897 127.427 406.245 127.33 409.093 126.641C409.081 126.501 409.086 126.211 409.113 126.04L406.672 126.583L406.649 125.293C407.264 124.972 407.817 124.593 408.24 124.185C409.069 125.801 410.548 126.875 412.536 127.321C412.612 127.119 412.807 126.836 412.955 126.693C412.012 126.52 411.166 126.194 410.478 125.726C411.063 125.446 411.746 125.064 412.25 124.695L411.693 124.295C411.279 124.632 410.586 125.064 410.001 125.375C409.585 125.032 409.238 124.628 408.97 124.172L412.79 124.106L412.779 123.486L408.859 123.554C408.745 123.276 408.559 122.949 408.384 122.692L407.668 122.915ZM409.437 118.233L409.461 119.613L407.081 119.655L407.093 120.315L409.472 120.273L409.5 121.863L407.42 121.899L407.432 122.559L412.431 122.472L412.42 121.812L410.25 121.85L410.222 120.26L412.582 120.219L412.57 119.559L410.211 119.6L410.187 118.22L409.437 118.233ZM403.63 121.885L403.9 122.511L405.973 121.504L405.999 123.004L406.699 122.992L406.617 118.283L405.917 118.295L405.961 120.814C405.088 121.22 404.225 121.635 403.63 121.885Z">
</path>
</g>
<path d="M223.997 267.394L225.289 294.609L118.213 299.815L116.449 262.871L223.525 257.665L235.767 250L223.997 267.394Z"   fill="#24285B" >
</path>
<g >
<path     fill="#FFD200"  d="M123.141 270.762C123.185 274.475 122.942 277.472 121.386 279.306C121.592 279.415 122.005 279.664 122.132 279.788C123.087 278.526 123.562 276.889 123.778 274.895C124.43 275.672 125.068 276.579 125.411 277.202L125.953 276.643C125.542 275.884 124.662 274.758 123.877 273.908C123.946 272.933 123.961 271.881 123.962 270.759L123.141 270.762ZM126.985 270.551C126.967 274.407 126.589 277.331 124.68 279.103C124.886 279.213 125.289 279.462 125.426 279.585C126.47 278.499 127.068 277.105 127.409 275.395C127.925 276.83 128.747 278.379 130.016 279.274C130.134 279.048 130.377 278.715 130.539 278.566C128.957 277.597 128.065 275.491 127.638 273.831C127.735 272.825 127.778 271.731 127.796 270.548L126.985 270.551ZM133.329 273.513C133.795 274.57 134.349 275.973 134.587 276.892L135.281 276.565C135.013 275.648 134.461 274.285 133.964 273.209L133.329 273.513ZM135.467 272.84C135.843 273.912 136.287 275.311 136.475 276.232L137.183 275.975C136.984 275.054 136.542 273.685 136.136 272.615L135.467 272.84ZM135.189 270.031C135.397 270.37 135.621 270.819 135.78 271.171L131.785 271.381L131.928 274.107C132.002 275.525 132.037 277.516 131.332 278.975C131.515 279.035 131.866 279.237 132.013 279.36C132.754 277.829 132.766 275.585 132.687 274.067L132.581 272.05L140.021 271.66L139.984 270.951L136.628 271.127C136.48 270.774 136.17 270.22 135.908 269.793L135.189 270.031ZM133.016 278.046L133.053 278.765L140.503 278.374L140.465 277.655L137.759 277.797C138.597 276.201 139.24 274.345 139.633 272.662L138.829 272.414C138.54 274.161 137.878 276.239 136.99 277.837L133.016 278.046ZM142.06 270.251L142.25 273.877C142.324 275.285 142.317 277.057 141.274 278.364C141.448 278.445 141.761 278.679 141.878 278.823C142.603 277.934 142.882 276.767 142.973 275.641L145.48 275.51L145.636 278.486L146.395 278.446L146.239 275.47L148.935 275.329L149.043 277.376C149.052 277.556 148.985 277.619 148.786 277.64C148.597 277.66 147.918 277.705 147.218 277.712C147.328 277.906 147.465 278.23 147.515 278.417C148.454 278.378 149.033 278.338 149.366 278.2C149.699 278.062 149.807 277.826 149.781 277.337L149.39 269.867L142.06 270.251ZM142.837 270.932L145.233 270.806L145.318 272.414L142.921 272.54L142.837 270.932ZM148.689 270.625L148.773 272.233L146.077 272.374L145.992 270.766L148.689 270.625ZM142.958 273.249L145.355 273.123L145.443 274.801L143.006 274.928C143.016 274.547 143.007 274.177 142.989 273.838L142.958 273.249ZM148.81 272.942L148.898 274.62L146.202 274.761L146.114 273.083L148.81 272.942ZM154.614 269.043C154.875 269.43 155.172 269.945 155.352 270.326L151.068 270.55L151.106 271.279L155.171 271.066L155.242 272.425L152.146 272.587L152.381 277.061L153.13 277.021L152.933 273.277L155.28 273.154L155.536 278.037L156.305 277.997L156.049 273.113L158.546 272.982L158.692 275.769C158.699 275.908 158.652 275.961 158.472 275.98C158.303 275.999 157.694 276.031 157.013 276.037C157.135 276.251 157.27 276.544 157.312 276.762C158.171 276.717 158.73 276.688 159.072 276.54C159.396 276.403 159.484 276.168 159.461 275.738L159.276 272.213L156.011 272.384L155.94 271.026L160.094 270.808L160.056 270.079L156.051 270.289L156.198 270.232C156.028 269.84 155.645 269.229 155.331 268.775L154.614 269.043ZM164.785 272.425C164.871 272.341 165.188 272.284 165.648 272.26L166.357 272.223C165.995 273.343 165.323 274.29 164.436 274.937L164.286 274.364L163.238 274.819L163.07 271.604L164.168 271.546L164.131 270.837L163.032 270.895L162.911 268.578L162.202 268.615L162.323 270.932L161.095 270.996L161.132 271.705L162.361 271.641L162.543 275.116C162.033 275.333 161.573 275.528 161.2 275.667L161.489 276.413C162.33 276.029 163.435 275.52 164.462 275.046L164.437 274.957C164.602 275.048 164.882 275.234 164.998 275.348C165.92 274.599 166.684 273.507 167.066 272.185L167.904 272.142C167.387 274.312 166.356 276.028 164.711 277.135C164.886 277.226 165.187 277.421 165.313 277.535C166.942 276.318 168.037 274.488 168.603 272.105L169.283 272.069C169.257 275.015 169.107 276.164 168.862 276.457C168.768 276.582 168.68 276.617 168.519 276.615C168.34 276.625 167.96 276.645 167.549 276.626C167.679 276.82 167.775 277.115 167.796 277.324C168.216 277.322 168.626 277.311 168.864 277.268C169.152 277.223 169.348 277.133 169.525 276.883C169.853 276.455 169.998 275.206 170.024 271.69C170.028 271.58 170.024 271.319 170.024 271.319L166.01 271.53C166.965 270.849 167.971 269.975 168.99 268.97L168.409 268.58L168.252 268.649L164.238 268.859L164.275 269.568L167.49 269.399C166.663 270.234 165.73 270.964 165.411 271.191C165.035 271.461 164.676 271.69 164.428 271.733C164.538 271.917 164.716 272.259 164.785 272.425ZM172.518 277.437C173.547 277.013 174.183 276.158 174.127 275.08C174.09 274.381 173.767 273.947 173.218 273.976C172.808 273.997 172.472 274.265 172.496 274.735C172.521 275.204 172.873 275.426 173.283 275.405L173.451 275.376C173.437 276.067 173.023 276.56 172.27 276.92L172.518 277.437ZM183.037 269.686L183.071 270.335L188.144 270.069L188.11 269.42L183.037 269.686ZM184.357 271.96L186.994 271.822L187.093 273.719L184.457 273.858L184.357 271.96ZM183.635 271.357L183.84 275.262L184.529 275.226L184.49 274.497L187.826 274.322L187.659 271.146L183.635 271.357ZM181.347 268.012L181.802 276.7L182.531 276.662L182.113 268.683L188.894 268.328L189.26 275.328C189.27 275.508 189.213 275.571 189.034 275.59C188.864 275.599 188.285 275.64 187.655 275.653C187.785 275.836 187.913 276.17 187.963 276.368C188.822 276.323 189.33 276.276 189.623 276.14C189.927 276.004 190.024 275.759 190 275.299L189.595 267.58L181.347 268.012ZM195.364 270.642C195.933 271.384 196.668 272.407 197.019 272.999L197.658 272.585C197.287 271.994 196.545 271.011 195.965 270.28L195.364 270.642ZM193.892 271.22L194.011 273.497L192.303 273.587L192.184 271.31L193.892 271.22ZM193.857 270.551L192.149 270.641L192.034 268.454L193.742 268.364L193.857 270.551ZM191.28 267.812L191.662 275.112L192.381 275.074L192.339 274.266L194.746 274.139L194.406 267.648L191.28 267.812ZM198.059 266.666L198.161 268.613L194.926 268.783L194.964 269.522L198.2 269.352L198.479 274.675C198.489 274.875 198.413 274.949 198.213 274.959C197.995 274.991 197.256 275.029 196.475 275.04C196.597 275.254 196.734 275.587 196.795 275.794C197.794 275.742 198.432 275.699 198.785 275.55C199.138 275.411 199.267 275.184 199.238 274.635L198.959 269.312L200.177 269.249L200.139 268.51L198.92 268.573L198.818 266.626L198.059 266.666ZM203.716 268.753C203.157 269.543 202.209 270.384 201.347 270.93C201.523 271.041 201.818 271.315 201.965 271.458C202.804 270.843 203.816 269.889 204.46 268.994L203.716 268.753ZM206.734 269.015C207.696 269.605 208.854 270.496 209.397 271.109L210 270.576C209.418 269.976 208.242 269.126 207.301 268.555L206.734 269.015ZM204.147 270.482L203.489 270.727C203.94 271.685 204.523 272.486 205.247 273.128C204.241 273.982 202.92 274.572 201.33 274.996C201.478 275.159 201.735 275.475 201.825 275.651C203.411 275.167 204.769 274.515 205.823 273.599C206.926 274.402 208.305 274.911 209.979 275.144C210.068 274.929 210.262 274.608 210.422 274.429C208.801 274.254 207.435 273.795 206.356 273.08C207.029 272.354 207.545 271.496 207.9 270.446L207.141 270.275C206.849 271.212 206.389 271.987 205.772 272.63C205.08 272.046 204.542 271.323 204.147 270.482ZM204.595 266.423C204.865 266.79 205.161 267.275 205.329 267.627L201.155 267.845L201.193 268.574L209.822 268.122L209.783 267.393L205.649 267.61L206.089 267.407C205.941 267.064 205.582 266.532 205.292 266.147L204.595 266.423ZM214.701 270.09C215.252 270.862 215.958 271.906 216.291 272.52L216.97 272.104C216.618 271.511 215.894 270.498 215.334 269.746L214.701 270.09ZM217.906 265.696L218.016 267.793L213.961 268.005L214.001 268.764L218.055 268.552L218.327 273.735C218.339 273.964 218.253 274.039 218.014 274.062C217.784 274.084 216.966 274.137 216.115 274.141C216.236 274.345 216.394 274.677 216.454 274.874C217.543 274.827 218.212 274.782 218.605 274.641C218.978 274.502 219.126 274.274 219.096 273.694L218.824 268.512L220.083 268.446L220.043 267.687L218.784 267.753L218.675 265.656L217.906 265.696ZM213.349 265.875C212.841 267.463 211.963 269.041 210.985 270.074C211.144 270.246 211.395 270.623 211.494 270.798C211.825 270.431 212.143 269.993 212.449 269.527L212.738 275.039L213.486 275L213.137 268.329C213.51 267.608 213.83 266.841 214.09 266.066L213.349 265.875ZM145.806 283.834C145.22 284.696 144.063 285.738 142.491 286.491C142.667 286.602 142.909 286.83 143.038 286.993C143.924 286.526 144.668 285.997 145.299 285.433L148.115 285.285C147.648 285.931 146.988 286.506 146.222 286.997C145.847 286.716 145.329 286.393 144.897 286.175L144.368 286.593C144.78 286.802 145.236 287.098 145.581 287.381C144.54 287.956 143.381 288.377 142.273 288.636C142.411 288.789 142.587 289.09 142.667 289.286C145.245 288.6 148.101 287.108 149.262 284.815L148.757 284.541L148.629 284.577L146.022 284.714C146.25 284.472 146.457 284.221 146.644 283.97L145.806 283.834ZM147.616 287.234C146.949 288.26 145.569 289.444 143.58 290.279C143.747 290.411 143.971 290.659 144.08 290.824C145.302 290.259 146.318 289.595 147.112 288.873L149.838 288.73C149.379 289.535 148.693 290.202 147.85 290.737C147.483 290.425 146.974 290.061 146.559 289.803L145.959 290.195C146.364 290.464 146.833 290.82 147.18 291.132C145.805 291.845 144.146 292.283 142.447 292.532C142.576 292.715 142.734 293.037 142.794 293.245C146.318 292.639 149.682 291.301 150.925 288.262L150.409 287.979L150.272 288.026L147.835 288.154C148.062 287.892 148.268 287.63 148.455 287.37L147.616 287.234ZM155.987 286.265L156.314 292.506L157.093 292.465L156.766 286.224L155.987 286.265ZM156.292 283.295C155.381 285.015 153.64 286.568 151.795 287.486C152.015 287.654 152.249 287.932 152.391 288.145C153.889 287.316 155.307 286.08 156.313 284.645C157.723 286.134 159.091 287.023 160.61 287.725C160.717 287.479 160.932 287.187 161.124 287.017C159.546 286.348 158.079 285.484 156.721 284.023L156.978 283.569L156.292 283.295ZM162.79 283.665L162.98 287.29C163.054 288.698 163.047 290.471 162.004 291.777C162.178 291.858 162.491 292.092 162.609 292.236C163.333 291.347 163.613 290.181 163.704 289.055L166.21 288.923L166.366 291.899L167.125 291.859L166.969 288.883L169.666 288.742L169.773 290.789C169.782 290.969 169.716 291.033 169.516 291.053C169.327 291.073 168.649 291.119 167.948 291.125C168.058 291.32 168.195 291.643 168.245 291.831C169.185 291.791 169.763 291.751 170.096 291.613C170.43 291.476 170.538 291.24 170.512 290.751L170.12 283.281L162.79 283.665ZM163.567 284.345L165.964 284.22L166.048 285.827L163.651 285.953L163.567 284.345ZM169.419 284.039L169.503 285.646L166.807 285.788L166.723 284.18L169.419 284.039ZM163.689 286.662L166.085 286.536L166.173 288.214L163.737 288.342C163.747 287.961 163.737 287.591 163.719 287.251L163.689 286.662ZM169.541 286.355L169.628 288.033L166.932 288.174L166.844 286.497L169.541 286.355ZM173.797 284.64L179.009 284.367L179.115 286.374L173.892 286.648L173.874 286.118L173.797 284.64ZM175.624 282.432C175.846 282.861 176.095 283.408 176.237 283.811L172.981 283.982L173.095 286.159C173.174 287.667 173.153 289.751 172.013 291.303C172.197 291.373 172.538 291.586 172.686 291.718C173.601 290.468 173.864 288.792 173.899 287.349L179.151 287.073L179.186 287.732L179.945 287.693L179.732 283.628L176.566 283.794L177.018 283.63C176.878 283.247 176.596 282.651 176.333 282.204L175.624 282.432ZM188.14 285.1C188.933 285.9 189.882 287.002 190.319 287.69L190.903 287.188C190.448 286.521 189.471 285.451 188.689 284.671L188.14 285.1ZM181.944 289.35L182.171 290.049C182.974 289.707 184.014 289.282 184.993 288.86L184.837 288.187L183.848 288.6L183.719 286.143L184.608 286.096L184.571 285.397L183.682 285.444L183.568 283.257L184.666 283.199L184.629 282.5L181.644 282.657L181.68 283.356L182.869 283.294L182.983 285.481L181.945 285.535L181.981 286.234L183.02 286.18L183.161 288.876L181.944 289.35ZM185.137 282.434L185.175 283.163L187.721 283.029C187.184 284.82 186.227 286.432 185.031 287.496C185.219 287.627 185.524 287.911 185.652 288.055C186.309 287.409 186.907 286.597 187.42 285.679L187.69 290.842L188.429 290.803L188.087 284.272C188.255 283.852 188.413 283.424 188.54 282.986L190.697 282.873L190.659 282.144L185.137 282.434ZM196.311 286.615L199.466 286.449L199.501 287.108L196.345 287.274L196.311 286.615ZM196.251 285.466L199.406 285.301L199.44 285.95L196.285 286.115L196.251 285.466ZM197.05 281.239C197.151 281.434 197.263 281.668 197.355 281.884L195.188 281.997L195.221 282.626L200.244 282.363L200.211 281.734L198.134 281.843C198.031 281.598 197.885 281.305 197.743 281.072L197.05 281.239ZM198.732 282.562C198.658 282.877 198.512 283.325 198.369 283.663L196.681 283.751L197.056 283.632C196.982 283.365 196.8 282.954 196.644 282.652L196.032 282.824C196.177 283.107 196.327 283.49 196.402 283.766L194.984 283.84L195.017 284.479L200.61 284.186L200.576 283.547L199.038 283.628C199.174 283.35 199.306 283.013 199.43 282.696L198.732 282.562ZM195.524 284.974L195.674 287.84L196.713 287.785C196.644 288.95 196.244 289.552 194.623 289.958C194.78 290.08 194.984 290.349 195.043 290.516C196.858 289.991 197.338 289.204 197.422 287.748L198.33 287.7L198.408 289.178C198.436 289.718 198.514 289.874 198.69 289.985C198.857 290.106 199.159 290.13 199.388 290.118C199.518 290.112 199.918 290.091 200.067 290.083C200.257 290.073 200.536 290.038 200.673 289.981C200.85 289.912 200.964 289.806 201.025 289.632C201.087 289.479 201.105 289.057 201.104 288.647C200.901 288.597 200.625 288.491 200.488 288.368C200.5 288.778 200.506 289.079 200.483 289.22C200.46 289.351 200.393 289.415 200.315 289.449C200.256 289.482 200.106 289.49 199.977 289.497C199.837 289.504 199.597 289.517 199.497 289.522C199.368 289.529 199.277 289.523 199.216 289.497C199.144 289.46 199.129 289.371 199.121 289.211L199.039 287.663L200.248 287.6L200.098 284.734L195.524 284.974ZM191.896 288.558L192.186 289.304C193.008 288.931 194.064 288.455 195.061 287.982L194.875 287.311L193.847 287.755L193.677 284.5L194.645 284.449L194.608 283.74L193.639 283.791L193.518 281.474L192.789 281.512L192.91 283.829L191.812 283.886L191.849 284.595L192.948 284.538L193.132 288.063C192.672 288.257 192.24 288.43 191.896 288.558Z">
</path>
</g>
<path d="M112.779 382.247C112.779 382.247 112.839 385.913 116.424 387.174C120.001 388.436 119.733 391.584 116.088 391.423C112.444 391.262 105.363 385.502 105.363 385.502L107.994 380.194L112.787 382.247L112.779 382.247Z"   fill="#68E1FD" >
</path>
<path d="M98.6704 343.77C98.6704 343.77 120.046 344.526 117.713 356.1C115.388 367.674 105.959 380.194 105.959 380.194L114.173 382.937C114.173 382.937 130.525 367.983 132.075 349.542C133.625 331.101 100.973 335.207 98.6704 343.77Z"   fill="#24285B" >
</path>
<g opacity="0.08">
<path d="M98.6704 343.77C98.6704 343.77 120.046 344.526 117.713 356.1C115.388 367.674 105.959 380.194 105.959 380.194L114.173 382.937C114.173 382.937 130.525 367.983 132.075 349.542C133.625 331.101 100.973 335.207 98.6704 343.77Z"   fill="#000001" >
</path>
</g>
<path d="M129.951 383.045C129.951 383.045 130.011 386.71 133.595 387.972C137.173 389.233 136.905 392.381 133.26 392.221C129.616 392.06 122.535 386.3 122.535 386.3L125.166 380.992L129.958 383.045L129.951 383.045Z"   fill="#68E1FD" >
</path>
<rect x="86.94677734375" y="382.12811279296875" width="4.8295745849609375" height="33.19873046875" transform="rotate(-180 86.94677734375 382.12811279296875)"   fill="#FFD200" >
</rect>
<g opacity="0.46">
<rect x="86.94677734375" y="382.12811279296875" width="4.8295745849609375" height="33.19873046875" transform="rotate(-180 86.94677734375 382.12811279296875)"   fill="#FFFFFF" >
</rect>
</g>
<path d="M68.5528 268.447C68.5528 268.447 64.1256 249.458 42.7801 258.051C27.0393 264.382 42.4149 314.886 51.5822 340.997C54.8093 350.185 65.3107 356.523 77.2579 356.523L107.368 356.523C116.573 356.523 118.212 346.043 109.299 344.229C109.127 344.193 108.948 344.157 108.769 344.127C103.582 343.181 97.493 342.414 91.9404 341.83C82.2813 340.813 74.8282 334.547 74.0978 326.793L68.5602 268.453L68.5528 268.447Z"   fill="#FFD200" >
</path>
<path d="M86.9471 382.128L104.208 393L65.7729 393L82.1175 382.128L86.9471 382.128Z"   fill="#FFD200" >
</path>
<g opacity="0.08">
<path d="M86.9471 382.128L104.208 393L65.7729 393L82.1175 382.128L86.9471 382.128Z"   fill="#000001" >
</path>
</g>
<path d="M80.9175 242.478C80.9175 242.478 83.8838 246.179 84.7558 249.101C85.1136 250.285 84.1819 251.493 82.6913 251.761C80.843 252.094 78.2195 252.112 76.3264 250.279L72.6372 247.489C72.6372 247.489 70.4013 245.674 72.1155 242.948C73.8297 240.217 79.248 240.151 80.91 242.478L80.9175 242.478Z"   fill="#F4A28C" >
</path>
<path d="M74.5749 246.59L73.8594 260.985L83.8167 260.735L80.3361 250.357L74.5749 246.59Z"   fill="#F4A28C" >
</path>
<path d="M132.634 325.877C132.634 325.877 142.129 326.597 140.169 330.982C138.216 335.368 131.352 330.185 131.352 330.185L132.634 325.877Z"   fill="#F4A28C" >
</path>
<g opacity="0.08">
<path d="M132.634 325.877C132.634 325.877 142.129 326.597 140.169 330.982C138.216 335.368 131.352 330.185 131.352 330.185L132.634 325.877Z"   fill="#000001" >
</path>
</g>
<path d="M79.8146 243.145C78.9873 243.537 77.4221 244.186 75.1341 244.745C75.1341 244.745 77.7725 245.804 77.4743 248.31C77.1762 250.815 74.1652 251.035 74.1652 251.035L70.9678 246.001C69.9766 244.555 70.0436 242.793 71.169 241.413C71.6237 240.848 72.1528 240.258 72.7267 239.723C74.1503 238.39 77.4221 238.247 78.406 236.599C78.8382 235.879 80.0829 235.79 80.6717 236.432C81.9536 237.837 83.1834 240.372 81.1487 242.282C80.776 242.633 80.3139 242.907 79.822 243.139L79.8146 243.145Z"   fill="#24285B" >
</path>
<path d="M77.9211 247.977C77.9211 247.977 76.9 246.495 75.5659 247.197C74.2318 247.905 75.6852 250.053 77.7348 249.452L77.9211 247.977Z"   fill="#F4A28C" >
</path>
<path d="M82.6392 244.888L84.9794 245.822C85.5608 246.054 85.6427 246.685 85.1359 247.007L83.4515 248.066L82.6392 244.888Z"   fill="#F4A28C" >
</path>
<path d="M67.1591 270.893C70.349 262.008 85.3594 260.61 90.8597 268.744C91.1802 269.22 91.5007 269.72 91.8137 270.25C96.4495 278.087 95.7788 292.648 94.5863 302.627C93.8335 308.923 98.5662 314.808 106.034 316.915L133.022 324.514L131.74 330.911L94.4298 325.032C85.0315 323.55 77.3176 318.236 74.0457 311.048C68.9031 299.723 62.9481 282.609 67.1591 270.893Z"   fill="#68E1FD" >
</path>
<g opacity="0.08">
<path d="M67.1591 270.893C70.349 262.008 85.3594 260.61 90.8597 268.744C91.1802 269.22 91.5007 269.72 91.8137 270.25C96.4495 278.087 95.7788 292.648 94.5863 302.627C93.8335 308.923 98.5662 314.808 106.034 316.915L133.022 324.514L131.74 330.911L94.4298 325.032C85.0315 323.55 77.3176 318.236 74.0457 311.048C68.9031 299.723 62.9481 282.609 67.1591 270.893Z"   fill="#000001" >
</path>
</g>
<g opacity="0.31">
<path d="M81.2228 252.606C81.2228 252.606 79.3521 252.481 77.7944 251.386C77.7944 251.386 78.3236 253.987 82.3035 256.23L81.2154 252.606L81.2228 252.606Z"   fill="#CE8172" >
</path>
</g>
<path d="M73.8593 260.985L83.824 260.735C83.824 260.735 105.676 264.49 111.028 286.608C116.386 308.721 101.1 328.584 101.1 328.584L69.5961 328.798C69.5961 328.798 27.9336 264.728 73.8593 260.985Z"   fill="#68E1FD" >
</path>
<g opacity="0.08">
<path d="M68.7243 270.44C68.7243 270.44 53.7735 276.373 61.2861 303.133C66.8014 322.764 76.4829 328.798 76.4829 328.798L93.5355 328.364L84.9868 294.767L68.7168 270.446L68.7243 270.44Z"   fill="#000001" >
</path>
</g>
<path d="M147.95 337.165L167 305.793L161.82 304.044L144.395 331.387L113.577 328.828L112.869 331.803L147.95 337.165Z"   fill="#FFD200" >
</path>
<path d="M69.5889 328.798C69.5889 328.798 70.0211 343.193 82.2218 344.437C94.4224 345.674 122.371 338.177 125.867 350.328C129.362 362.473 122.401 381.807 122.401 381.807L130.92 383.711C130.92 383.711 150.037 354.499 138.783 340.646C127.529 326.793 101.108 328.59 101.108 328.59L69.6038 328.804L69.5889 328.798Z"   fill="#24285B" >
</path>
<path d="M66.2645 274.213C69.4544 265.329 84.4649 263.93 89.9652 272.065C90.2857 272.541 90.6062 273.041 90.9192 273.57C95.555 281.407 94.8842 295.968 93.6917 305.948C92.939 312.244 97.6717 318.129 105.14 320.235L132.127 327.834L130.845 334.231L93.5352 328.352C84.1369 326.87 76.423 321.556 73.1511 314.368C68.0085 303.044 62.0535 285.93 66.2645 274.213Z"   fill="#68E1FD" >
</path>
<g opacity="0.46">
<path d="M66.2645 274.213C69.4544 265.329 84.4649 263.93 89.9652 272.065C90.2857 272.541 90.6062 273.041 90.9192 273.57C95.555 281.407 94.8842 295.968 93.6917 305.948C92.939 312.244 97.6717 318.129 105.14 320.235L132.127 327.834L130.845 334.231L93.5352 328.352C84.1369 326.87 76.423 321.556 73.1511 314.368C68.0085 303.044 62.0535 285.93 66.2645 274.213Z"   fill="#FFFFFF" >
</path>
</g>
<path d="M131.859 329.185C131.859 329.185 141.622 330.655 139.662 335.041C137.702 339.426 130.845 334.243 130.845 334.243L131.859 329.191L131.859 329.185Z"   fill="#F4A28C" >
</path>
<path d="M446.99 383.066C446.99 383.066 446.943 386.724 444.119 387.982C441.301 389.241 441.512 392.382 444.383 392.222C447.254 392.062 452.832 386.314 452.832 386.314L450.759 381.017L446.984 383.066L446.99 383.066Z"   fill="#68E1FD" >
</path>
<path d="M425.166 383.529C425.166 383.529 422.542 386.047 419.683 384.883C416.818 383.719 414.751 386.07 416.871 388.036C418.99 390.001 426.951 390.031 426.951 390.031L429.253 384.829L425.166 383.529Z"   fill="#68E1FD" >
</path>
<rect x="480.8662109375" y="349.0179748535156" width="3.80450439453125" height="33.1275634765625"   fill="#FFD200" >
</rect>
<g opacity="0.46">
<rect x="480.8662109375" y="349.0179748535156" width="3.80450439453125" height="33.1275634765625"   fill="#FFFFFF" >
</rect>
</g>
<path d="M495.357 268.714C495.357 268.714 498.844 249.766 515.659 258.34C528.059 264.658 515.947 315.053 508.725 341.109C506.183 350.277 497.911 356.601 488.499 356.601L464.78 356.601C457.529 356.601 456.237 346.144 463.259 344.333C463.394 344.297 463.535 344.262 463.676 344.232C467.762 343.288 472.559 342.522 476.933 341.94C484.542 340.925 490.413 334.672 490.988 326.935L495.351 268.72L495.357 268.714Z"   fill="#FFD200" >
</path>
<path d="M480.866 382.151L467.269 393L497.546 393L484.671 382.151L480.866 382.151Z"   fill="#FFD200" >
</path>
<g opacity="0.08">
<path d="M480.866 382.151L467.269 393L497.546 393L484.671 382.151L480.866 382.151Z"   fill="#000001" >
</path>
</g>
<path d="M485.616 242.801C485.616 242.801 483.279 246.494 482.592 249.41C482.311 250.591 483.045 251.797 484.219 252.064C485.675 252.396 487.742 252.414 489.233 250.585L492.139 247.8C492.139 247.8 493.9 245.989 492.55 243.27C491.2 240.544 486.931 240.479 485.622 242.801L485.616 242.801Z"   fill="#F4A28C" >
</path>
<path d="M490.612 246.904L491.176 261.268L483.332 261.018L486.074 250.662L490.612 246.904Z"   fill="#F4A28C" >
</path>
<path d="M481.447 346.393C481.447 346.393 449.749 352.201 430.55 385.904L423.622 383.203C423.622 383.203 436.862 343.43 464.937 339.476C493.013 335.521 481.453 346.399 481.453 346.399L481.447 346.393Z"   fill="#24285B" >
</path>
<g opacity="0.08">
<path d="M481.447 346.393C481.447 346.393 449.749 352.201 430.55 385.904L423.622 383.203C423.622 383.203 436.862 343.43 464.937 339.476C493.013 335.521 481.453 346.399 481.453 346.399L481.447 346.393Z"   fill="#000001" >
</path>
</g>
<path d="M484.26 245.206L482.416 246.138C481.958 246.369 481.894 246.999 482.293 247.319L483.62 248.376L484.26 245.206Z"   fill="#F4A28C" >
</path>
<path d="M497.675 269.224C485.757 272.912 471.654 285.459 461.873 283.422C447.342 280.394 438.629 255.377 438.629 255.377C438.629 255.377 436.574 246.001 432.781 245.2C428.989 244.398 432.247 250.562 432.247 250.562C432.247 250.562 427.873 253.875 432.247 258.204C446.45 326.264 482.874 299.49 500 290.429C502.637 289.033 488.828 284.592 490.536 283.256C498.973 276.647 507.879 266.065 497.669 269.218L497.675 269.224Z"   fill="#F4A28C" >
</path>
<g opacity="0.08">
<path d="M497.675 269.224C485.757 272.912 471.654 285.459 461.873 283.422C447.342 280.394 438.629 255.377 438.629 255.377C438.629 255.377 436.574 246.001 432.781 245.2C428.989 244.398 432.247 250.562 432.247 250.562C432.247 250.562 427.873 253.875 432.247 258.204C446.45 326.264 482.874 299.49 500 290.429C502.637 289.033 488.828 284.592 490.536 283.256C498.973 276.647 507.879 266.065 497.669 269.218L497.675 269.224Z"   fill="#000001" >
</path>
</g>
<g opacity="0.31">
<path d="M485.375 252.907C485.375 252.907 486.849 252.782 488.076 251.69C488.076 251.69 487.659 254.285 484.524 256.523L485.381 252.907L485.375 252.907Z"   fill="#CE8172" >
</path>
</g>
<path d="M491.176 261.268L483.326 261.018C483.326 261.018 466.112 264.765 461.896 286.836C457.675 308.901 469.717 328.722 469.717 328.722L494.534 328.936C494.534 328.936 527.354 265.003 491.176 261.268Z"   fill="#68E1FD" >
</path>
<g opacity="0.08">
<path d="M480.866 272.181C480.866 272.181 468.39 282.935 470.069 299.68C471.748 316.431 462.654 310.356 462.654 310.356C462.654 310.356 464.656 318.77 465.924 320.759C467.192 322.743 489.814 296.473 489.814 296.473L480.872 272.187L480.866 272.181Z"   fill="#000001" >
</path>
</g>
<path d="M494.54 328.936C494.54 328.936 494.2 344.814 484.588 346.049C474.977 347.284 452.961 338.288 450.207 350.414C447.453 362.533 452.937 381.825 452.937 381.825L446.226 383.725C446.226 383.725 431.167 354.576 440.032 340.753C448.898 326.929 469.711 328.722 469.711 328.722L494.528 328.936L494.54 328.936Z"   fill="#24285B" >
</path>
<path d="M485.616 242.801L484.559 238.793C484.078 236.964 485.933 235.408 487.618 236.222L492.456 238.567C495.251 239.921 496.214 243.466 494.499 246.078L490.806 251.69L489.814 250.033L489.931 249.154C490.29 246.411 488.663 243.798 486.062 242.943L485.628 242.801L485.616 242.801Z"   fill="#24285B" >
</path>
<path d="M488.563 246.951C488.563 246.951 490.401 246.138 491.452 246.839C492.503 247.539 491.681 250.603 488.076 248.851L488.563 246.945L488.563 246.951Z"   fill="#F4A28C" >
</path>
<path d="M479.111 277.549C482.281 267.241 497.382 269.046 498.033 279.824C498.163 282.009 498.098 284.562 497.752 287.549C495.509 306.966 496.871 352.48 433.269 326.02L434.548 319.091C434.548 319.091 459.894 325.902 470.55 315.463C477.725 308.438 475.412 289.586 479.111 277.549Z"   fill="#F4A28C" >
</path>
<path d="M475.03 299.116L498.098 302.388C498.098 302.388 506.746 273.868 490.542 269.011C474.337 264.153 475.03 299.11 475.03 299.11L475.03 299.116Z"   fill="#68E1FD" >
</path>
<g opacity="0.46">
<path d="M475.03 299.116L498.098 302.388C498.098 302.388 506.746 273.868 490.542 269.011C474.337 264.153 475.03 299.11 475.03 299.11L475.03 299.116Z"   fill="#FFFFFF" >
</path>
</g>
<path d="M434.549 319.091C434.549 319.091 423.188 318.699 424.949 323.55C426.711 328.408 433.269 326.015 433.269 326.015L434.549 319.085L434.549 319.091Z"   fill="#F4A28C" >
</path>
<g opacity="0.58">
<path d="M280.881 379.154C280.881 379.154 264.845 375.643 261.354 363.668C261.354 363.668 286.203 359.639 286.917 380.217L280.881 379.154Z"   fill="#68E1FD" >
</path>
</g>
<g opacity="0.73">
<path d="M282.839 377.879C282.839 377.879 271.63 363.668 281.491 350.381C281.491 350.381 300.384 360.009 291.997 377.907L282.839 377.879Z"   fill="#68E1FD" >
</path>
</g>
<path d="M285.73 377.888C285.73 377.888 291.652 362.883 309.554 360.037C309.554 360.037 312.906 369.785 297.965 377.925L285.73 377.888Z"   fill="#68E1FD" >
</path>
<path d="M274.095 377.546L277.344 395.389L297.826 395.463L300.845 377.639L274.095 377.546Z"   fill="#24285B" >
</path>
<rect  x="196" y="143" width="76" height="40" rx="5"    fill="#FFD200" >
</rect>
<g >
<path     fill="#24285B"  d="M223.744 168.088C225.796 168.088 227.008 166.852 227.008 165.4C227.008 164.116 226.3 163.42 225.22 162.976L224.056 162.508C223.3 162.196 222.676 161.968 222.676 161.332C222.676 160.744 223.156 160.396 223.936 160.396C224.68 160.396 225.268 160.672 225.832 161.128L226.732 160.024C226.012 159.292 224.98 158.872 223.936 158.872C222.148 158.872 220.864 160 220.864 161.44C220.864 162.736 221.776 163.456 222.676 163.816L223.852 164.332C224.644 164.668 225.196 164.872 225.196 165.532C225.196 166.156 224.704 166.552 223.78 166.552C223 166.552 222.148 166.156 221.524 165.568L220.504 166.792C221.368 167.632 222.556 168.088 223.744 168.088ZM230.08 168.088C230.86 168.088 231.532 167.716 232.108 167.2L232.168 167.2L232.288 167.92L233.728 167.92L233.728 163.996C233.728 162.052 232.852 161.032 231.148 161.032C230.092 161.032 229.132 161.44 228.352 161.92L228.976 163.096C229.6 162.724 230.2 162.448 230.824 162.448C231.652 162.448 231.94 162.952 231.964 163.612C229.264 163.9 228.1 164.656 228.1 166.084C228.1 167.236 228.88 168.088 230.08 168.088ZM230.668 166.708C230.152 166.708 229.78 166.48 229.78 165.952C229.78 165.34 230.32 164.896 231.964 164.704L231.964 166.048C231.544 166.468 231.172 166.708 230.668 166.708ZM237.172 168.088C237.952 168.088 238.624 167.716 239.2 167.2L239.26 167.2L239.38 167.92L240.82 167.92L240.82 163.996C240.82 162.052 239.944 161.032 238.24 161.032C237.184 161.032 236.224 161.44 235.444 161.92L236.068 163.096C236.692 162.724 237.292 162.448 237.916 162.448C238.744 162.448 239.032 162.952 239.056 163.612C236.356 163.9 235.192 164.656 235.192 166.084C235.192 167.236 235.972 168.088 237.172 168.088ZM237.76 166.708C237.244 166.708 236.872 166.48 236.872 165.952C236.872 165.34 237.412 164.896 239.056 164.704L239.056 166.048C238.636 166.468 238.264 166.708 237.76 166.708ZM245.416 168.088C247.468 168.088 248.68 166.852 248.68 165.4C248.68 164.116 247.972 163.42 246.892 162.976L245.728 162.508C244.972 162.196 244.348 161.968 244.348 161.332C244.348 160.744 244.828 160.396 245.608 160.396C246.352 160.396 246.94 160.672 247.504 161.128L248.404 160.024C247.684 159.292 246.652 158.872 245.608 158.872C243.82 158.872 242.536 160 242.536 161.44C242.536 162.736 243.448 163.456 244.348 163.816L245.524 164.332C246.316 164.668 246.868 164.872 246.868 165.532C246.868 166.156 246.376 166.552 245.452 166.552C244.672 166.552 243.82 166.156 243.196 165.568L242.176 166.792C243.04 167.632 244.228 168.088 245.416 168.088Z">
</path>
</g>
<rect  x="296" y="143" width="76" height="40" rx="5"    fill="#24285B" >
</rect>
<g >
<path     fill="#FFD200"  d="M315.872 157.984L316.172 158.692L311.696 158.692L311.696 159.916L318.476 159.916C318.092 160.18 317.636 160.444 317.144 160.696L315.38 159.952L314.828 160.6L316.136 161.176C315.608 161.416 315.068 161.62 314.564 161.788C314.78 161.956 315.104 162.328 315.248 162.52L314.324 162.52L314.324 160.216L312.944 160.216L312.944 163.612L316.232 163.612L315.92 164.236L312.152 164.236L312.152 168.976L313.556 168.976L313.556 165.448L315.2 165.448C315.068 165.64 314.96 165.796 314.888 165.88C314.6 166.252 314.384 166.492 314.12 166.564C314.276 166.936 314.504 167.62 314.576 167.896C314.912 167.74 315.416 167.656 318.836 167.26L319.184 167.776L320.108 167.092C319.832 166.66 319.268 166 318.788 165.448L320.54 165.448L320.54 167.716C320.54 167.884 320.468 167.932 320.264 167.944C320.072 167.944 319.256 167.956 318.644 167.92C318.836 168.22 319.04 168.664 319.124 169C320.084 169 320.78 169 321.272 168.832C321.776 168.652 321.944 168.364 321.944 167.728L321.944 164.236L317.48 164.236L317.816 163.612L321.188 163.612L321.188 160.216L319.748 160.216L319.748 162.52L315.284 162.52C315.872 162.28 316.508 161.98 317.144 161.656C317.816 161.98 318.44 162.28 318.848 162.52L319.436 161.776C319.088 161.584 318.62 161.368 318.104 161.128C318.548 160.864 318.968 160.6 319.34 160.336L318.512 159.916L322.352 159.916L322.352 158.692L317.672 158.692C317.528 158.344 317.324 157.936 317.156 157.612L315.872 157.984ZM317.708 165.796L318.092 166.276L315.944 166.492C316.22 166.168 316.472 165.808 316.724 165.448L318.224 165.448L317.708 165.796ZM323.576 167.068L323.864 168.436C325.04 168.04 326.504 167.524 327.884 167.032L327.656 165.844C326.156 166.324 324.584 166.804 323.576 167.068ZM331.484 158.584C331.976 158.92 332.636 159.412 332.972 159.724L333.836 158.884C333.488 158.584 332.804 158.116 332.324 157.84L331.484 158.584ZM323.888 162.964C324.08 162.868 324.368 162.796 325.424 162.664C325.028 163.228 324.68 163.66 324.488 163.852C324.116 164.296 323.84 164.56 323.528 164.632C323.684 164.98 323.9 165.628 323.972 165.892C324.284 165.712 324.776 165.568 327.704 165.004C327.68 164.716 327.704 164.164 327.74 163.804L325.844 164.116C326.672 163.144 327.464 162.016 328.112 160.888L326.948 160.156C326.732 160.588 326.492 161.02 326.24 161.428L325.22 161.5C325.892 160.588 326.552 159.46 327.02 158.392L325.676 157.744C325.244 159.112 324.416 160.564 324.152 160.936C323.888 161.32 323.684 161.56 323.432 161.632C323.588 162.004 323.816 162.688 323.888 162.964ZM333.344 163.708C332.984 164.284 332.528 164.8 332 165.268C331.892 164.8 331.784 164.272 331.688 163.708L334.46 163.192L334.22 161.944L331.52 162.436L331.412 161.308L334.148 160.876L333.908 159.616L331.328 160.012C331.292 159.244 331.28 158.464 331.292 157.684L329.852 157.684C329.852 158.524 329.876 159.388 329.924 160.228L328.184 160.492L328.412 161.788L330.008 161.536L330.128 162.688L327.92 163.084L328.16 164.368L330.296 163.972C330.428 164.776 330.596 165.52 330.788 166.18C329.804 166.804 328.676 167.284 327.5 167.632C327.824 167.968 328.184 168.46 328.364 168.832C329.396 168.46 330.38 168.004 331.268 167.44C331.736 168.4 332.348 168.988 333.116 168.988C334.076 168.988 334.46 168.604 334.688 167.116C334.376 166.96 333.956 166.66 333.68 166.324C333.62 167.296 333.512 167.596 333.284 167.596C332.984 167.596 332.684 167.236 332.432 166.612C333.26 165.928 333.98 165.148 334.556 164.248L333.344 163.708ZM338.552 160.756C337.88 161.62 336.704 162.508 335.612 163.048C335.948 163.288 336.5 163.816 336.764 164.104C337.832 163.444 339.128 162.352 339.968 161.296L338.552 160.756ZM342.152 161.5C343.22 162.268 344.564 163.408 345.152 164.164L346.388 163.216C345.716 162.46 344.324 161.392 343.28 160.684L342.152 161.5ZM339.476 162.892L338.18 163.288C338.648 164.368 339.224 165.292 339.944 166.072C338.756 166.852 337.268 167.368 335.528 167.704C335.804 168.016 336.236 168.664 336.404 168.988C338.18 168.556 339.728 167.932 341 167.032C342.212 167.944 343.736 168.568 345.632 168.928C345.812 168.544 346.196 167.944 346.508 167.632C344.732 167.368 343.28 166.852 342.128 166.096C342.92 165.316 343.556 164.38 344.036 163.252L342.584 162.832C342.224 163.768 341.696 164.56 341.024 165.208C340.364 164.548 339.848 163.78 339.476 162.892ZM339.812 158.056C340.016 158.416 340.244 158.86 340.4 159.244L335.708 159.244L335.708 160.648L346.292 160.648L346.292 159.244L342.02 159.244L342.056 159.232C341.9 158.776 341.504 158.092 341.18 157.576L339.812 158.056ZM351.752 163.228C352.28 164.152 353 165.388 353.3 166.132L354.668 165.424C354.32 164.704 353.564 163.516 353.024 162.64L351.752 163.228ZM355.796 157.864L355.796 160.324L351.212 160.324L351.212 161.776L355.796 161.776L355.796 167.248C355.796 167.512 355.688 167.608 355.388 167.608C355.1 167.62 354.044 167.62 353.108 167.584C353.336 167.956 353.588 168.604 353.66 169.012C354.992 169.024 355.904 168.988 356.492 168.772C357.068 168.556 357.284 168.172 357.284 167.248L357.284 161.776L358.616 161.776L358.616 160.324L357.284 160.324L357.284 157.864L355.796 157.864ZM350.192 157.792C349.544 159.556 348.464 161.296 347.312 162.4C347.564 162.748 347.996 163.552 348.152 163.9C348.44 163.612 348.728 163.276 349.004 162.916L349.004 168.976L350.468 168.976L350.468 160.684C350.912 159.88 351.296 159.052 351.62 158.236L350.192 157.792Z">
</path>
</g>
<rect  x="196" y="207" width="76" height="40" rx="5"    fill="#24285B" >
</rect>
<g >
<path     fill="#FFD200"  d="M223.704 223.308C223.956 223.764 224.232 224.352 224.388 224.808L222.732 224.808C222.972 224.268 223.188 223.716 223.38 223.164L222.024 222.792C221.472 224.568 220.512 226.32 219.408 227.412C219.54 227.52 219.732 227.7 219.912 227.892L219.132 228.096L219.132 226.272L220.32 226.272L220.32 224.94L219.132 224.94L219.132 222.732L217.74 222.732L217.74 224.94L216.408 224.94L216.408 226.272L217.74 226.272L217.74 228.456C217.188 228.6 216.684 228.72 216.264 228.816L216.588 230.208L217.74 229.872L217.74 232.344C217.74 232.512 217.692 232.548 217.548 232.548C217.404 232.56 216.972 232.56 216.552 232.548C216.732 232.956 216.9 233.568 216.936 233.952C217.728 233.952 218.256 233.904 218.64 233.664C219.012 233.424 219.132 233.04 219.132 232.356L219.132 229.476L220.308 229.128L220.164 228.168L220.44 228.48C220.692 228.192 220.944 227.88 221.196 227.532L221.196 234.012L222.576 234.012L222.576 233.256L227.592 233.256L227.592 231.948L225.396 231.948L225.396 230.808L227.172 230.808L227.172 229.536L225.396 229.536L225.396 228.456L227.184 228.456L227.184 227.184L225.396 227.184L225.396 226.116L227.328 226.116L227.328 224.808L225.012 224.808L225.756 224.484C225.6 224.028 225.276 223.332 224.94 222.816L223.704 223.308ZM222.576 228.456L224.052 228.456L224.052 229.536L222.576 229.536L222.576 228.456ZM222.576 227.184L222.576 226.116L224.052 226.116L224.052 227.184L222.576 227.184ZM222.576 230.808L224.052 230.808L224.052 231.948L222.576 231.948L222.576 230.808ZM232.68 223.032C232.824 223.332 232.98 223.68 233.112 224.016L228.936 224.016L228.936 226.716L230.388 226.716L230.388 225.36L237.564 225.36L237.564 226.716L239.1 226.716L239.1 224.016L234.852 224.016C234.672 223.608 234.396 223.092 234.18 222.684L232.68 223.032ZM235.512 228.744C235.212 229.428 234.804 230.004 234.3 230.496C233.64 230.244 232.98 230.004 232.344 229.788C232.548 229.464 232.764 229.116 232.98 228.744L235.512 228.744ZM230.052 230.4C230.952 230.7 231.936 231.072 232.92 231.468C231.804 232.056 230.4 232.428 228.744 232.656C229.008 232.98 229.44 233.64 229.584 233.988C231.552 233.616 233.196 233.064 234.516 232.152C235.944 232.788 237.252 233.46 238.104 234.024L239.268 232.8C238.392 232.26 237.12 231.648 235.74 231.072C236.328 230.424 236.82 229.668 237.192 228.744L239.328 228.744L239.328 227.388L233.736 227.388C233.976 226.896 234.204 226.404 234.396 225.936L232.788 225.612C232.572 226.176 232.284 226.788 231.972 227.388L228.708 227.388L228.708 228.744L231.192 228.744C230.832 229.332 230.46 229.884 230.112 230.34L230.052 230.4ZM240.564 224.088C241.092 224.46 241.752 225.012 242.052 225.384L242.928 224.484C242.604 224.112 241.92 223.608 241.392 223.272L240.564 224.088ZM245.016 228.492L245.244 229.032L240.54 229.032L240.54 230.16L244.14 230.16C243.12 230.76 241.716 231.216 240.312 231.444C240.576 231.708 240.912 232.176 241.092 232.488C241.716 232.356 242.34 232.176 242.928 231.96L242.928 232.14C242.928 232.692 242.496 232.896 242.208 232.992C242.388 233.232 242.568 233.772 242.64 234.084C242.928 233.904 243.432 233.796 246.828 233.088C246.816 232.824 246.864 232.272 246.924 231.948L244.32 232.452L244.32 231.324C244.932 231 245.472 230.616 245.928 230.196C246.864 232.188 248.376 233.412 250.872 233.928C251.04 233.568 251.4 233.028 251.676 232.752C250.68 232.596 249.816 232.308 249.108 231.912C249.72 231.612 250.416 231.216 250.992 230.832L250.104 230.16L251.472 230.16L251.472 229.032L246.876 229.032C246.756 228.72 246.588 228.384 246.42 228.096L245.016 228.492ZM248.16 231.228C247.812 230.916 247.524 230.556 247.284 230.16L249.852 230.16C249.396 230.508 248.748 230.916 248.16 231.228ZM247.308 222.72L247.308 224.124L244.728 224.124L244.728 225.36L247.308 225.36L247.308 226.776L245.04 226.776L245.04 228.012L251.112 228.012L251.112 226.776L248.748 226.776L248.748 225.36L251.364 225.36L251.364 224.124L248.748 224.124L248.748 222.72L247.308 222.72ZM240.348 226.848L240.804 228.012C241.452 227.736 242.232 227.412 242.976 227.076L242.976 228.528L244.308 228.528L244.308 222.72L242.976 222.72L242.976 225.804C241.992 226.212 241.032 226.608 240.348 226.848Z">
</path>
</g>
<rect  x="296" y="207" width="76" height="40" rx="5"    fill="#FFD200" >
</rect>
<g >
<path     fill="#24285B"  d="M321.532 227.824C321.856 229.432 322.156 231.556 322.24 232.792L323.62 232.408C323.5 231.196 323.152 229.12 322.792 227.536L321.532 227.824ZM322.912 223.888C323.104 224.464 323.356 225.232 323.452 225.748L320.764 225.748L320.764 227.092L327.448 227.092L327.448 225.748L323.632 225.748L324.892 225.388C324.772 224.884 324.508 224.128 324.28 223.552L322.912 223.888ZM320.224 233.128L320.224 234.484L327.712 234.484L327.712 233.128L325.588 233.128C326.008 231.628 326.452 229.528 326.752 227.716L325.24 227.476C325.072 229.228 324.676 231.568 324.292 233.128L320.224 233.128ZM317.884 223.72L317.884 226.012L316.552 226.012L316.552 227.344L317.884 227.344L317.884 229.492C317.332 229.612 316.828 229.732 316.396 229.816L316.768 231.196L317.884 230.908L317.884 233.464C317.884 233.62 317.836 233.668 317.692 233.668C317.548 233.68 317.128 233.68 316.72 233.656C316.888 234.028 317.068 234.604 317.116 234.952C317.896 234.964 318.412 234.916 318.796 234.7C319.18 234.484 319.3 234.136 319.3 233.464L319.3 230.536L320.5 230.2L320.332 228.892L319.3 229.144L319.3 227.344L320.416 227.344L320.416 226.012L319.3 226.012L319.3 223.72L317.884 223.72ZM332.68 224.032C332.824 224.332 332.98 224.68 333.112 225.016L328.936 225.016L328.936 227.716L330.388 227.716L330.388 226.36L337.564 226.36L337.564 227.716L339.1 227.716L339.1 225.016L334.852 225.016C334.672 224.608 334.396 224.092 334.18 223.684L332.68 224.032ZM335.512 229.744C335.212 230.428 334.804 231.004 334.3 231.496C333.64 231.244 332.98 231.004 332.344 230.788C332.548 230.464 332.764 230.116 332.98 229.744L335.512 229.744ZM330.052 231.4C330.952 231.7 331.936 232.072 332.92 232.468C331.804 233.056 330.4 233.428 328.744 233.656C329.008 233.98 329.44 234.64 329.584 234.988C331.552 234.616 333.196 234.064 334.516 233.152C335.944 233.788 337.252 234.46 338.104 235.024L339.268 233.8C338.392 233.26 337.12 232.648 335.74 232.072C336.328 231.424 336.82 230.668 337.192 229.744L339.328 229.744L339.328 228.388L333.736 228.388C333.976 227.896 334.204 227.404 334.396 226.936L332.788 226.612C332.572 227.176 332.284 227.788 331.972 228.388L328.708 228.388L328.708 229.744L331.192 229.744C330.832 230.332 330.46 230.884 330.112 231.34L330.052 231.4ZM340.564 225.088C341.092 225.46 341.752 226.012 342.052 226.384L342.928 225.484C342.604 225.112 341.92 224.608 341.392 224.272L340.564 225.088ZM345.016 229.492L345.244 230.032L340.54 230.032L340.54 231.16L344.14 231.16C343.12 231.76 341.716 232.216 340.312 232.444C340.576 232.708 340.912 233.176 341.092 233.488C341.716 233.356 342.34 233.176 342.928 232.96L342.928 233.14C342.928 233.692 342.496 233.896 342.208 233.992C342.388 234.232 342.568 234.772 342.64 235.084C342.928 234.904 343.432 234.796 346.828 234.088C346.816 233.824 346.864 233.272 346.924 232.948L344.32 233.452L344.32 232.324C344.932 232 345.472 231.616 345.928 231.196C346.864 233.188 348.376 234.412 350.872 234.928C351.04 234.568 351.4 234.028 351.676 233.752C350.68 233.596 349.816 233.308 349.108 232.912C349.72 232.612 350.416 232.216 350.992 231.832L350.104 231.16L351.472 231.16L351.472 230.032L346.876 230.032C346.756 229.72 346.588 229.384 346.42 229.096L345.016 229.492ZM348.16 232.228C347.812 231.916 347.524 231.556 347.284 231.16L349.852 231.16C349.396 231.508 348.748 231.916 348.16 232.228ZM347.308 223.72L347.308 225.124L344.728 225.124L344.728 226.36L347.308 226.36L347.308 227.776L345.04 227.776L345.04 229.012L351.112 229.012L351.112 227.776L348.748 227.776L348.748 226.36L351.364 226.36L351.364 225.124L348.748 225.124L348.748 223.72L347.308 223.72ZM340.348 227.848L340.804 229.012C341.452 228.736 342.232 228.412 342.976 228.076L342.976 229.528L344.308 229.528L344.308 223.72L342.976 223.72L342.976 226.804C341.992 227.212 341.032 227.608 340.348 227.848Z">
</path>
</g>
</svg>
